<?xml version="1.0" encoding="utf-8"?>
<!-- Generator: Adobe Illustrator 27.8.1, SVG Export Plug-In . SVG Version: 6.00 Build 0)  -->
<svg version="1.1" id="Capa_1" xmlns="http://www.w3.org/2000/svg" xmlns:xlink="http://www.w3.org/1999/xlink" x="0px" y="0px"
	 viewBox="0 0 128.79 128.79" style="enable-background:new 0 0 128.79 128.79;" xml:space="preserve">
<style type="text/css">
	.st0{fill:#D1D700;}
	.st1{fill:none;stroke:#D1D700;stroke-width:0.5;stroke-miterlimit:10;}
</style>
<g>
	<g>
		<g>
			<path class="st0" d="M85.49,65.29c-9.93-1.43-19.7-5.33-26.66-12.77c-6.53-6.98-9.7-16.71-7.65-26.16c1.08-5,3.62-9.54,7.61-12.8
				c0.75-0.61-0.32-1.67-1.06-1.06c-7.48,6.11-9.86,16.43-8.07,25.64c1.97,10.11,9.25,18.3,18.16,23.1
				c5.36,2.89,11.27,4.62,17.28,5.49C86.03,66.87,86.44,65.43,85.49,65.29L85.49,65.29z"/>
		</g>
	</g>
	<g>
		<g>
			<path class="st0" d="M78.29,82.87c-14.86-0.38-31.11-2.54-42.03-13.61c-8.82-8.95-14.05-21.37-16.03-33.66
				c-1.09-6.76-1.17-13.79,0.33-20.49c0.21-0.94-1.24-1.34-1.45-0.4c-2.78,12.46-0.55,25.96,4.38,37.6
				c2.52,5.94,5.87,11.58,10.19,16.4c4.29,4.79,9.44,8.37,15.41,10.73c9.25,3.66,19.32,4.68,29.19,4.93
				C79.25,84.39,79.25,82.89,78.29,82.87L78.29,82.87z"/>
		</g>
	</g>
	<g>
		<g>
			<path class="st0" d="M57.23,12.26c-7.15,4.48-14.31,8.96-21.46,13.44c-0.82,0.51-0.06,1.81,0.76,1.3
				c7.15-4.48,14.31-8.96,21.46-13.44C58.8,13.04,58.05,11.75,57.23,12.26L57.23,12.26z"/>
		</g>
	</g>
	<g>
		<g>
			<path class="st0" d="M36.52,25.7c-5.86-2.9-11.59-6.61-16.16-11.32c-0.67-0.69-1.73,0.37-1.06,1.06
				c4.65,4.8,10.49,8.61,16.46,11.56C36.63,27.42,37.39,26.13,36.52,25.7L36.52,25.7z"/>
		</g>
	</g>
	<g>
		<g>
			<path class="st0" d="M86.01,66.21c0.36-1.46,0.4-3.02,0.49-4.51c0.15-2.33,0.24-4.67,0.34-7c0.1-2.36,0.19-4.73,0.34-7.09
				c0.09-1.5,0.11-3.09,0.47-4.56c0.23-0.94-1.22-1.34-1.45-0.4c-0.36,1.46-0.4,3.02-0.49,4.51c-0.15,2.33-0.24,4.67-0.34,7
				c-0.1,2.36-0.19,4.73-0.34,7.09c-0.09,1.5-0.11,3.09-0.47,4.56C84.33,66.75,85.78,67.15,86.01,66.21L86.01,66.21z"/>
		</g>
	</g>
	<g>
		<g>
			<path class="st0" d="M77.54,83.62c0.11,8.18,0.01,16.37-0.02,24.55c0,0.97,1.5,0.97,1.5,0c0.03-8.18,0.13-16.37,0.02-24.55
				C79.02,82.66,77.52,82.65,77.54,83.62L77.54,83.62z"/>
		</g>
	</g>
	<g>
		<g>
			<path class="st0" d="M86.28,43.23c2.99,5.73,6.7,11.1,10.46,16.35c4.25,5.95,8.71,11.76,13.36,17.4
				c2.16,2.63,4.36,5.22,6.66,7.72c0.65,0.71,1.71-0.35,1.06-1.06c-4.35-4.73-8.39-9.75-12.33-14.82
				c-4.47-5.76-8.79-11.65-12.78-17.76c-1.83-2.79-3.59-5.63-5.13-8.59C87.13,41.61,85.83,42.37,86.28,43.23L86.28,43.23z"/>
		</g>
	</g>
	<g>
		<g>
			<path class="st0" d="M117.29,84.92c0.97,0,0.97-1.5,0-1.5C116.32,83.42,116.32,84.92,117.29,84.92L117.29,84.92z"/>
		</g>
	</g>
	<g>
		<g>
			<path class="st0" d="M116.91,83.53c-13,8.01-26.02,15.99-39.02,24c-0.82,0.51-0.07,1.8,0.76,1.3c13-8.01,26.02-15.99,39.02-24
				C118.49,84.32,117.73,83.02,116.91,83.53L116.91,83.53z"/>
		</g>
	</g>
	<g>
		<g>
			<path class="st0" d="M116.56,83.98c-1.28,3.52-2.56,7.04-3.83,10.55c-0.18,0.51-0.37,1.01-0.55,1.52
				c-0.33,0.91,1.12,1.3,1.45,0.4c1.28-3.52,2.56-7.04,3.83-10.55c0.18-0.51,0.37-1.01,0.55-1.52
				C118.34,83.47,116.89,83.07,116.56,83.98L116.56,83.98z"/>
		</g>
	</g>
	<g>
		<g>
			<path class="st0" d="M80.13,105.74c0.1,2.4,0.2,4.81,0.3,7.21c0.01,0.35,0.03,0.69,0.04,1.04c0.04,0.96,1.54,0.97,1.5,0
				c-0.1-2.4-0.2-4.81-0.3-7.21c-0.01-0.35-0.03-0.69-0.04-1.04C81.58,104.78,80.08,104.78,80.13,105.74L80.13,105.74z"/>
		</g>
	</g>
	<g>
		<g>
			<path class="st0" d="M76.98,84.87c-0.85,3.31-1.7,6.63-2.55,9.94c-0.24,0.94,1.21,1.33,1.45,0.4c0.85-3.31,1.7-6.63,2.55-9.94
				C78.67,84.33,77.22,83.93,76.98,84.87L76.98,84.87z"/>
		</g>
	</g>
	<g>
		<g>
			<path class="st0" d="M17.88,15.13c-1.85,4.84-3.71,9.68-5.56,14.52c-0.26,0.69-0.53,1.38-0.79,2.06c-0.35,0.9,1.1,1.29,1.45,0.4
				c1.85-4.84,3.71-9.68,5.56-14.52c0.26-0.69,0.53-1.38,0.79-2.06C19.67,14.63,18.22,14.24,17.88,15.13L17.88,15.13z"/>
		</g>
	</g>
	<g>
		<g>
			<path class="st0" d="M108.38,89.01c-0.5,3.52-1.23,7.01-1.73,10.53c-0.06,0.4,0.1,0.8,0.52,0.92c0.35,0.1,0.87-0.12,0.92-0.52
				c0.5-3.52,1.23-7.01,1.73-10.53c0.06-0.4-0.1-0.8-0.52-0.92C108.95,88.39,108.44,88.61,108.38,89.01L108.38,89.01z"/>
		</g>
	</g>
	<g>
		<g>
			<path class="st0" d="M99.04,95.8c0.09,2.41,0.18,4.82,0.27,7.23c0.01,0.35,0.03,0.69,0.04,1.04c0.04,0.96,1.54,0.97,1.5,0
				c-0.09-2.41-0.18-4.82-0.27-7.23c-0.01-0.35-0.03-0.69-0.04-1.04C100.5,94.84,99,94.83,99.04,95.8L99.04,95.8z"/>
		</g>
	</g>
	<g>
		<g>
			<path class="st0" d="M90.96,101.61c0,1.92,0,3.83,0,5.75c0,0.27,0,0.54,0,0.81c0,0.97,1.5,0.97,1.5,0c0-1.92,0-3.83,0-5.75
				c0-0.27,0-0.54,0-0.81C92.46,100.65,90.96,100.64,90.96,101.61L90.96,101.61z"/>
		</g>
	</g>
	<g>
		<g>
			<path class="st0" d="M85.47,103.85c-0.01,2.25-0.02,4.49-0.04,6.74c0,0.32,0,0.65-0.01,0.97c-0.01,0.97,1.49,0.97,1.5,0
				c0.01-2.25,0.02-4.49,0.04-6.74c0-0.32,0-0.65,0.01-0.97C86.97,102.89,85.47,102.88,85.47,103.85L85.47,103.85z"/>
		</g>
	</g>
	<g>
		<g>
			<path class="st0" d="M72.01,84.88c-0.86,2.76-1.72,5.51-2.58,8.27c-0.29,0.92,1.16,1.32,1.45,0.4c0.86-2.76,1.72-5.51,2.58-8.27
				C73.75,84.36,72.3,83.96,72.01,84.88L72.01,84.88z"/>
		</g>
	</g>
	<g>
		<g>
			<path class="st0" d="M66.86,83.16c-0.84,2.76-1.67,5.53-2.51,8.29c-0.28,0.93,1.17,1.32,1.45,0.4c0.84-2.76,1.67-5.53,2.51-8.29
				C68.58,82.64,67.14,82.24,66.86,83.16L66.86,83.16z"/>
		</g>
	</g>
	<g>
		<g>
			<path class="st0" d="M58.64,82.99c-0.82,1.94-1.65,3.88-2.47,5.81c-0.16,0.37-0.11,0.8,0.27,1.03c0.32,0.18,0.87,0.11,1.03-0.27
				c0.82-1.94,1.65-3.88,2.47-5.81c0.16-0.37,0.11-0.8-0.27-1.03C59.35,82.54,58.8,82.62,58.64,82.99L58.64,82.99z"/>
		</g>
	</g>
	<g>
		<g>
			<path class="st0" d="M49.15,79.79c-0.52,2.88-1.54,5.63-3.03,8.15c-0.49,0.83,0.8,1.59,1.3,0.76c1.56-2.62,2.64-5.51,3.18-8.51
				c0.07-0.4-0.11-0.81-0.52-0.92C49.71,79.16,49.22,79.39,49.15,79.79L49.15,79.79z"/>
		</g>
	</g>
	<g>
		<g>
			<path class="st0" d="M41.06,76.28c-1.06,1.96-2.12,3.92-3.18,5.88c-0.46,0.85,0.84,1.61,1.3,0.76c1.06-1.96,2.12-3.92,3.18-5.88
				C42.81,76.19,41.52,75.43,41.06,76.28L41.06,76.28z"/>
		</g>
	</g>
	<g>
		<g>
			<path class="st0" d="M34.25,71.21c-0.96,1.77-1.92,3.55-2.87,5.32c-0.19,0.36-0.09,0.82,0.27,1.03c0.34,0.2,0.83,0.09,1.03-0.27
				c0.96-1.77,1.92-3.55,2.87-5.32c0.19-0.36,0.09-0.82-0.27-1.03C34.94,70.74,34.45,70.85,34.25,71.21L34.25,71.21z"/>
		</g>
	</g>
	<g>
		<g>
			<path class="st0" d="M28.71,62.81c-1.36,1.68-2.72,3.36-4.08,5.03c-0.25,0.31-0.31,0.75,0,1.06c0.26,0.26,0.8,0.32,1.06,0
				c1.36-1.68,2.72-3.36,4.08-5.03c0.25-0.31,0.31-0.75,0-1.06C29.51,62.55,28.97,62.5,28.71,62.81L28.71,62.81z"/>
		</g>
	</g>
	<g>
		<g>
			<path class="st0" d="M23.96,54.73c-1.7,1.62-3.39,3.24-5.09,4.86c-0.29,0.28-0.28,0.78,0,1.06c0.29,0.29,0.77,0.28,1.06,0
				c1.7-1.62,3.39-3.24,5.09-4.86c0.29-0.28,0.28-0.78,0-1.06C24.73,54.43,24.26,54.45,23.96,54.73L23.96,54.73z"/>
		</g>
	</g>
	<g>
		<g>
			<path class="st0" d="M20.51,44.86c-1.37,2.5-2.73,5-4.1,7.49c-0.46,0.85,0.83,1.61,1.3,0.76c1.37-2.5,2.73-5,4.1-7.49
				C22.27,44.77,20.97,44.01,20.51,44.86L20.51,44.86z"/>
		</g>
	</g>
	<g>
		<g>
			<path class="st0" d="M17.91,33.74c-2.69,2.68-4.68,5.99-5.79,9.61c-0.28,0.92,1.16,1.32,1.45,0.4c1.04-3.38,2.9-6.45,5.41-8.95
				C19.66,34.12,18.6,33.06,17.91,33.74L17.91,33.74z"/>
		</g>
	</g>
	<g>
		<g>
			<path class="st0" d="M78.23,94.25c-12.96,0.06-26.08-4.03-36.95-11.03C30.6,76.35,21.7,65.64,16.87,53.88
				c-2.76-6.71-4.06-13.88-3.83-21.13c0.03-0.97-1.47-0.96-1.5,0c-0.43,13.43,4.55,26.05,12.71,36.56
				c4.07,5.24,8.73,9.98,14.17,13.8c5.49,3.85,11.59,6.83,17.94,8.96c7.03,2.37,14.44,3.71,21.87,3.67
				C79.2,95.75,79.2,94.25,78.23,94.25L78.23,94.25z"/>
		</g>
	</g>
	<path class="st1" d="M78.12,108.42c-0.31,2.03-0.31,5.3-0.63,7.33c12.25-5.64,24.09-12.16,35.41-19.49"/>
</g>
</svg>
