<?xml version="1.0" encoding="utf-8"?>
<!-- Generator: Adobe Illustrator 27.8.1, SVG Export Plug-In . SVG Version: 6.00 Build 0)  -->
<svg version="1.1" id="Capa_1" xmlns="http://www.w3.org/2000/svg" xmlns:xlink="http://www.w3.org/1999/xlink" x="0px" y="0px"
	 viewBox="0 0 100 100" style="enable-background:new 0 0 100 100;" xml:space="preserve">
<style type="text/css">
	.st0{fill:#D1D700;}
	.st1{fill:none;stroke:#D1D700;stroke-width:0.5;stroke-miterlimit:10;}
</style>
<g>
	<path class="st0" d="M68.47,48.05c-4.78-0.27-8.8-3.81-11.99-7.08c-3.18-3.25-5.86-7.16-7.05-11.59c-0.02-0.06-0.05-0.1-0.1-0.12
		c-0.13-0.09-0.34-0.07-0.4,0.12c-1.3,4.34-3.89,8.2-7.23,11.24c-1.77,1.62-3.73,3.04-5.76,4.31c-2,1.25-4.16,2.61-6.39,3.39
		c-0.46,0.16-0.16,0.86,0.26,0.61c0.04-0.02,0.09-0.05,0.13-0.07c3.2,1.39,6.3,2.92,9.05,5.1c2.8,2.22,5.27,4.94,7.12,8
		c1.07,1.78,1.86,3.66,2.56,5.61c0.2,0.56,1.08,0.34,0.91-0.25c-0.01-0.03-0.02-0.05-0.03-0.08c2.26-8.89,9.79-16.6,18.85-18.52
		c0.02,0,0.04,0,0.06,0.01C68.91,48.77,68.91,48.08,68.47,48.05z"/>
	<path class="st0" d="M84.05,37.06c-2.26-0.13-4.17-1.81-5.68-3.35c-1.5-1.54-2.77-3.39-3.34-5.49c-0.01-0.03-0.03-0.05-0.05-0.06
		c-0.06-0.04-0.16-0.03-0.19,0.06c-0.61,2.06-1.84,3.88-3.42,5.32c-0.84,0.77-1.77,1.44-2.73,2.04c-0.95,0.59-1.97,1.24-3.03,1.61
		c-0.22,0.08-0.08,0.41,0.12,0.29c0.02-0.01,0.04-0.02,0.06-0.03c1.52,0.66,2.98,1.38,4.29,2.42c1.33,1.05,2.5,2.34,3.37,3.79
		c0.51,0.84,0.88,1.73,1.21,2.66c0.1,0.27,0.51,0.16,0.43-0.12c0-0.01-0.01-0.03-0.01-0.04c1.07-4.21,4.63-7.86,8.92-8.77
		c0.01,0,0.02,0,0.03,0C84.26,37.4,84.26,37.08,84.05,37.06z"/>
	<path class="st0" d="M36.88,29.83c-1.8-0.1-3.31-1.44-4.51-2.67c-1.2-1.22-2.2-2.69-2.65-4.36c-0.01-0.02-0.02-0.04-0.04-0.04
		c-0.05-0.03-0.13-0.03-0.15,0.05c-0.49,1.63-1.47,3.09-2.72,4.23c-0.67,0.61-1.4,1.14-2.17,1.62c-0.75,0.47-1.57,0.98-2.41,1.28
		c-0.17,0.06-0.06,0.32,0.1,0.23c0.02-0.01,0.03-0.02,0.05-0.03c1.2,0.52,2.37,1.1,3.41,1.92c1.05,0.84,1.98,1.86,2.68,3.01
		c0.4,0.67,0.7,1.38,0.97,2.11c0.08,0.21,0.41,0.13,0.34-0.09c0-0.01-0.01-0.02-0.01-0.03c0.85-3.35,3.68-6.25,7.09-6.97
		c0.01,0,0.01,0,0.02,0C37.04,30.1,37.04,29.84,36.88,29.83z"/>
	<path class="st0" d="M72.41,62.72c-1.23-0.07-2.26-0.98-3.08-1.82c-0.82-0.84-1.5-1.84-1.81-2.97c0-0.02-0.01-0.03-0.03-0.03
		c-0.03-0.02-0.09-0.02-0.1,0.03c-0.33,1.11-1,2.1-1.85,2.89c-0.45,0.41-0.96,0.78-1.48,1.11c-0.51,0.32-1.07,0.67-1.64,0.87
		c-0.12,0.04-0.04,0.22,0.07,0.16c0.01-0.01,0.02-0.01,0.03-0.02c0.82,0.36,1.62,0.75,2.32,1.31c0.72,0.57,1.35,1.27,1.83,2.05
		c0.28,0.46,0.48,0.94,0.66,1.44c0.05,0.14,0.28,0.09,0.23-0.06c0-0.01,0-0.01-0.01-0.02c0.58-2.28,2.51-4.26,4.84-4.75
		c0,0,0.01,0,0.01,0C72.52,62.91,72.52,62.73,72.41,62.72z"/>
	<path class="st0" d="M62.32,74.75c-0.61-0.04-1.13-0.49-1.54-0.91c-0.41-0.42-0.75-0.92-0.9-1.49c0-0.01-0.01-0.01-0.01-0.02
		c-0.02-0.01-0.04-0.01-0.05,0.02c-0.17,0.56-0.5,1.05-0.93,1.44c-0.23,0.21-0.48,0.39-0.74,0.55c-0.26,0.16-0.53,0.33-0.82,0.44
		c-0.06,0.02-0.02,0.11,0.03,0.08c0.01,0,0.01-0.01,0.02-0.01c0.41,0.18,0.81,0.37,1.16,0.65c0.36,0.29,0.68,0.63,0.91,1.03
		c0.14,0.23,0.24,0.47,0.33,0.72c0.03,0.07,0.14,0.04,0.12-0.03c0,0,0-0.01,0-0.01c0.29-1.14,1.26-2.13,2.42-2.38c0,0,0.01,0,0.01,0
		C62.38,74.84,62.38,74.75,62.32,74.75z"/>
	<path class="st0" d="M38.51,70.38c-2.26-0.13-4.17-1.81-5.68-3.35c-1.5-1.54-2.77-3.39-3.34-5.49c-0.01-0.03-0.03-0.05-0.05-0.06
		c-0.06-0.04-0.16-0.03-0.19,0.06c-0.61,2.06-1.84,3.88-3.42,5.32c-0.84,0.77-1.77,1.44-2.73,2.04c-0.95,0.59-1.97,1.24-3.03,1.61
		c-0.22,0.08-0.08,0.41,0.12,0.29c0.02-0.01,0.04-0.02,0.06-0.03c1.52,0.66,2.98,1.38,4.29,2.42c1.33,1.05,2.5,2.34,3.37,3.79
		c0.51,0.84,0.88,1.73,1.21,2.66c0.1,0.27,0.51,0.16,0.43-0.12c0-0.01-0.01-0.03-0.01-0.04c1.07-4.21,4.63-7.86,8.92-8.77
		c0.01,0,0.02,0,0.03,0C38.72,70.72,38.72,70.39,38.51,70.38z"/>
</g>
</svg>
