<?xml version="1.0" encoding="utf-8"?>
<!-- Generator: Adobe Illustrator 27.8.1, SVG Export Plug-In . SVG Version: 6.00 Build 0)  -->
<svg version="1.1" id="Capa_1" xmlns="http://www.w3.org/2000/svg" xmlns:xlink="http://www.w3.org/1999/xlink" x="0px" y="0px"
	 viewBox="0 0 128.79 128.79" style="enable-background:new 0 0 128.79 128.79;" xml:space="preserve">
<style type="text/css">
	.st0{fill:#D1D700;}
	.st1{fill:none;stroke:#D1D700;stroke-width:0.5;stroke-miterlimit:10;}
</style>
<g id="XMLID_1_">
	<g id="XMLID_127_">
		<path id="XMLID_210_" class="st0" d="M65.59,110.35c-0.21-1.71,1.01-3.28,2.72-3.48l0,0c1.72-0.21,3.28,1.01,3.48,2.73l0,0
			c0.21,1.71-1.01,3.28-2.72,3.48l0,0c-0.14,0.01-0.26,0.02-0.39,0.02l0,0C67.13,113.1,65.77,111.94,65.59,110.35z M45.77,110.29
			c-1.62-0.62-2.43-2.42-1.82-4.04l0,0c0.61-1.62,2.41-2.43,4.03-1.83l0,0c1.62,0.62,2.43,2.42,1.83,4.04l0,0
			c-0.48,1.25-1.67,2.02-2.93,2.02l0,0C46.51,110.49,46.14,110.42,45.77,110.29z M86.64,103.95c-0.98-1.42-0.63-3.37,0.79-4.36l0,0
			c1.42-0.98,3.37-0.63,4.35,0.79l0,0c0.99,1.42,0.64,3.37-0.78,4.36l0,0c-0.55,0.38-1.17,0.55-1.78,0.55l0,0
			C88.22,105.3,87.24,104.83,86.64,103.95z M26.46,96.98c-1.16-1.29-1.03-3.28,0.25-4.42l0,0c1.29-1.15,3.28-1.03,4.42,0.26l0,0
			c1.15,1.29,1.03,3.28-0.26,4.42l0,0c-0.59,0.53-1.34,0.79-2.08,0.79l0,0C27.93,98.03,27.08,97.67,26.46,96.98z M102.32,88.5
			c-1.53-0.81-2.12-2.7-1.31-4.24l0,0c0.8-1.52,2.69-2.12,4.23-1.31l0,0c1.53,0.8,2.12,2.7,1.31,4.23l0,0
			c-0.56,1.07-1.65,1.68-2.78,1.68l0,0C103.28,88.86,102.78,88.74,102.32,88.5z M15.51,76.22c-0.41-1.68,0.62-3.38,2.3-3.79l0,0
			c1.67-0.42,3.37,0.61,3.79,2.28l0,0c0.42,1.67-0.62,3.37-2.28,3.79l0,0c-0.25,0.06-0.51,0.09-0.76,0.09l0,0
			C17.15,78.6,15.86,77.64,15.51,76.22z M105.89,64.4c0-0.03,0-0.06,0-0.08l0,0c0-0.03,0-0.06,0-0.08l0,0
			c-0.01-1.73,1.39-3.14,3.12-3.14l0,0c1.73-0.01,3.13,1.39,3.14,3.11l0,0c0,0.04,0,0.07,0,0.1l0,0c0,0.03,0,0.06,0,0.09l0,0
			c0,1.73-1.4,3.13-3.13,3.13l0,0C107.29,67.53,105.89,66.14,105.89,64.4z M17.77,56.55c-1.68-0.41-2.71-2.1-2.31-3.78l0,0
			c0.41-1.68,2.11-2.71,3.79-2.31l0,0c1.68,0.41,2.7,2.11,2.29,3.79l0,0c-0.34,1.43-1.63,2.39-3.04,2.39l0,0
			C18.26,56.64,18.02,56.61,17.77,56.55z M100.92,44.38c-0.8-1.52-0.22-3.41,1.3-4.23l0,0c1.52-0.81,3.42-0.23,4.23,1.29l0,0
			c0.81,1.53,0.23,3.42-1.29,4.24l0,0c-0.47,0.25-0.97,0.36-1.46,0.36l0,0C102.57,46.05,101.48,45.45,100.92,44.38z M26.61,36.39
			c-1.29-1.15-1.42-3.12-0.27-4.41l0,0c1.14-1.3,3.12-1.42,4.41-0.28l0,0c1.29,1.15,1.42,3.12,0.28,4.42l0,0
			c-0.63,0.7-1.48,1.05-2.36,1.05l0,0C27.94,37.17,27.2,36.91,26.61,36.39z M87.3,29.11c-1.43-0.97-1.79-2.92-0.81-4.35l0,0
			c0.98-1.42,2.93-1.78,4.35-0.8l0,0c1.43,0.98,1.79,2.92,0.81,4.35l0,0c-0.6,0.89-1.59,1.36-2.59,1.36l0,0
			C88.45,29.66,87.84,29.49,87.3,29.11z M43.79,22.63c-0.62-1.62,0.19-3.42,1.8-4.04l0,0l0,0l0,0c1.62-0.62,3.42,0.19,4.05,1.8l0,0
			c0.62,1.62-0.2,3.42-1.8,4.04l0,0c-0.38,0.15-0.75,0.21-1.13,0.21l0,0C45.46,24.64,44.27,23.88,43.79,22.63z M68.14,21.92
			c-1.71-0.2-2.94-1.75-2.74-3.47l0,0c0.2-1.71,1.76-2.94,3.47-2.74l0,0l0,0l0,0c1.72,0.2,2.94,1.75,2.74,3.47l0,0
			c-0.19,1.6-1.53,2.76-3.1,2.76l0,0C68.39,21.94,68.27,21.93,68.14,21.92z"/>
	</g>
	<g id="XMLID_14_">
		<path id="XMLID_196_" class="st0" d="M65.14,101.99c-0.18-1.4,0.82-2.68,2.23-2.85l0,0c1.4-0.17,2.68,0.83,2.85,2.23l0,0
			c0.17,1.41-0.84,2.68-2.23,2.85l0,0c-0.1,0.02-0.21,0.02-0.31,0.02l0,0C66.4,104.25,65.29,103.3,65.14,101.99z M48.92,101.94
			c-1.32-0.5-1.99-1.98-1.48-3.3l0,0c0.49-1.32,1.97-1.99,3.3-1.49l0,0c1.32,0.5,1.99,1.98,1.49,3.3l0,0
			c-0.4,1.03-1.37,1.66-2.4,1.66l0,0C49.53,102.11,49.23,102.06,48.92,101.94z M82.36,96.77c-0.8-1.17-0.51-2.77,0.65-3.57l0,0
			c1.17-0.8,2.75-0.51,3.57,0.65l0,0c0.8,1.16,0.51,2.76-0.65,3.57l0,0c-0.45,0.3-0.96,0.45-1.46,0.45l0,0
			C83.66,97.86,82.86,97.48,82.36,96.77z M33.12,91.05c-0.94-1.05-0.85-2.67,0.22-3.61l0,0c1.05-0.94,2.67-0.84,3.61,0.21l0,0
			c0.94,1.05,0.85,2.67-0.21,3.62l0,0c-0.49,0.43-1.1,0.65-1.7,0.65l0,0C34.33,91.92,33.63,91.62,33.12,91.05z M95.19,84.12
			c-1.25-0.67-1.74-2.21-1.07-3.46l0,0c0.66-1.25,2.2-1.73,3.45-1.07l0,0c1.25,0.66,1.73,2.21,1.07,3.45l0,0
			c-0.46,0.88-1.35,1.38-2.26,1.38l0,0C95.98,84.41,95.57,84.32,95.19,84.12z M24.17,74.08c-0.34-1.38,0.5-2.77,1.87-3.1l0,0
			c1.38-0.34,2.76,0.49,3.11,1.87l0,0c0.33,1.37-0.5,2.76-1.88,3.1l0,0c-0.21,0.05-0.41,0.07-0.62,0.07l0,0
			C25.5,76.02,24.46,75.24,24.17,74.08z M98.1,64.4h0.01c0-0.01,0-0.02,0-0.04l0,0c0-0.03-0.01-0.06-0.01-0.09l0,0
			c0-1.42,1.14-2.57,2.56-2.58l0,0c1.42,0,2.57,1.14,2.57,2.56l0,0c0,0.03,0,0.05,0,0.08l0,0c0,0.02,0,0.05,0,0.07l0,0
			c0,1.42-1.14,2.57-2.56,2.57l0,0C99.25,66.97,98.1,65.82,98.1,64.4z M26.01,57.98c-1.38-0.33-2.22-1.72-1.88-3.1l0,0
			c0,0,0,0-0.01,0l0,0c0.34-1.37,1.72-2.21,3.1-1.88l0,0c1.38,0.33,2.21,1.72,1.89,3.1l0,0c-0.29,1.17-1.34,1.95-2.49,1.95l0,0
			C26.42,58.05,26.21,58.03,26.01,57.98z M94.05,48.02c-0.66-1.25-0.19-2.8,1.06-3.46l0,0c1.25-0.66,2.8-0.19,3.46,1.06l0,0
			c0.67,1.25,0.19,2.81-1.06,3.46l0,0c-0.38,0.2-0.79,0.3-1.2,0.3l0,0C95.4,49.39,94.52,48.89,94.05,48.02z M33.24,41.48
			c-1.06-0.93-1.16-2.56-0.22-3.61l0,0c0.93-1.06,2.55-1.17,3.61-0.23l0,0c1.06,0.94,1.16,2.56,0.23,3.62l0,0
			c-0.51,0.57-1.22,0.87-1.93,0.87l0,0C34.34,42.13,33.73,41.91,33.24,41.48z M82.89,35.54c-1.17-0.8-1.46-2.4-0.66-3.57l0,0
			c0.8-1.17,2.39-1.46,3.56-0.66l0,0l0,0l0,0c1.17,0.79,1.46,2.39,0.67,3.56l0,0c-0.5,0.72-1.3,1.12-2.12,1.12l0,0
			C83.84,35.99,83.34,35.84,82.89,35.54z M47.31,30.23c-0.51-1.31,0.16-2.8,1.47-3.31l0,0c1.32-0.5,2.81,0.16,3.31,1.48l0,0
			c0.51,1.31-0.16,2.8-1.47,3.31l0,0c-0.3,0.12-0.62,0.17-0.92,0.17l0,0C48.66,31.87,47.69,31.25,47.31,30.23z M67.23,29.64
			c-1.41-0.16-2.41-1.43-2.25-2.84l0,0c0.17-1.41,1.44-2.41,2.85-2.24l0,0c1.4,0.17,2.41,1.44,2.24,2.84l0,0
			c-0.16,1.3-1.26,2.26-2.55,2.26l0,0C67.43,29.66,67.33,29.66,67.23,29.64z"/>
	</g>
	<g id="XMLID_2_">
		<path id="XMLID_3_" class="st0" d="M64.75,94.86c-0.14-1.14,0.67-2.17,1.8-2.31l0,0c1.14-0.14,2.18,0.67,2.32,1.82l0,0
			c0.14,1.13-0.68,2.17-1.82,2.31l0,0c-0.08,0.01-0.17,0.01-0.25,0.01l0,0C65.77,96.68,64.88,95.91,64.75,94.86z M51.62,94.82
			L51.62,94.82L51.62,94.82c-1.07-0.41-1.61-1.61-1.2-2.67l0,0c0.41-1.07,1.6-1.62,2.67-1.21l0,0c1.07,0.41,1.61,1.61,1.21,2.67l0,0
			c-0.31,0.83-1.11,1.35-1.94,1.35l0,0C52.11,94.95,51.86,94.91,51.62,94.82z M78.71,90.62c-0.66-0.95-0.42-2.23,0.52-2.89l0,0
			c0.94-0.65,2.23-0.42,2.89,0.52l0,0c0.65,0.95,0.42,2.24-0.52,2.89l0,0c-0.37,0.25-0.77,0.37-1.19,0.37l0,0
			C79.75,91.51,79.11,91.21,78.71,90.62z M38.82,85.99c-0.76-0.86-0.69-2.16,0.17-2.92l0,0c0.86-0.76,2.17-0.69,2.93,0.17l0,0
			c0.76,0.86,0.69,2.17-0.17,2.93l0,0c-0.4,0.34-0.89,0.52-1.38,0.52l0,0C39.8,86.69,39.22,86.46,38.82,85.99z M89.1,80.38
			c-1.01-0.53-1.41-1.78-0.87-2.81l0,0c0.53-1.01,1.78-1.4,2.8-0.87l0,0c1.01,0.53,1.41,1.78,0.88,2.8l0,0
			c-0.38,0.71-1.1,1.12-1.85,1.12l0,0C89.74,80.62,89.41,80.53,89.1,80.38z M31.56,72.24c-0.28-1.12,0.4-2.24,1.51-2.51l0,0
			c1.11-0.27,2.23,0.41,2.51,1.51l0,0c0.27,1.12-0.41,2.24-1.52,2.51l0,0c-0.17,0.04-0.33,0.06-0.49,0.06l0,0
			C32.64,73.81,31.79,73.19,31.56,72.24z M91.47,64.4c0-0.02,0-0.04,0-0.06l0,0c0-0.01,0-0.03,0-0.05l0,0
			c-0.01-1.15,0.92-2.08,2.07-2.08l0,0c1.15-0.01,2.08,0.92,2.09,2.07l0,0l0,0l0,0c0,0.02-0.01,0.04-0.01,0.06l0,0
			c0,0.02,0.01,0.04,0.01,0.06l0,0c0,1.15-0.94,2.08-2.08,2.08l0,0C92.4,66.48,91.47,65.55,91.47,64.4z M33.06,59.2
			c-1.12-0.27-1.79-1.4-1.52-2.5l0,0c0.27-1.12,1.39-1.79,2.5-1.53l0,0c1.12,0.28,1.79,1.4,1.52,2.51l0,0
			c-0.23,0.95-1.07,1.59-2.01,1.59l0,0C33.39,59.26,33.22,59.24,33.06,59.2z M88.18,51.13c-0.54-1.01-0.16-2.26,0.86-2.8l0,0
			c1.01-0.54,2.26-0.16,2.81,0.86l0,0C92.38,50.2,92,51.46,90.99,52l0,0c-0.31,0.17-0.65,0.24-0.98,0.24l0,0
			C89.27,52.24,88.55,51.84,88.18,51.13z M38.92,45.83c-0.87-0.76-0.95-2.07-0.19-2.92l0,0l0,0l0,0c0.76-0.87,2.07-0.95,2.93-0.19
			l0,0c0.86,0.76,0.94,2.07,0.18,2.93l0,0c-0.41,0.46-0.98,0.7-1.55,0.7l0,0C39.8,46.36,39.31,46.19,38.92,45.83z M79.14,41.01
			L79.14,41.01c-0.94-0.65-1.18-1.94-0.53-2.89l0,0c0.65-0.94,1.94-1.18,2.88-0.53l0,0c0.95,0.65,1.19,1.94,0.54,2.88l0,0
			c-0.41,0.59-1.05,0.91-1.71,0.91l0,0C79.91,41.38,79.5,41.25,79.14,41.01z M50.3,36.72c-0.41-1.07,0.14-2.27,1.2-2.68l0,0
			c1.07-0.41,2.27,0.13,2.68,1.2l0,0c0.41,1.06-0.13,2.26-1.2,2.68l0,0c-0.24,0.09-0.49,0.14-0.74,0.14l0,0
			C51.41,38.05,50.62,37.54,50.3,36.72z M66.45,36.25c-1.14-0.14-1.95-1.17-1.83-2.31l0,0c0.14-1.14,1.17-1.95,2.31-1.81l0,0
			c1.14,0.12,1.95,1.16,1.82,2.31l0,0c-0.11,1.05-1.01,1.83-2.06,1.83l0,0C66.61,36.26,66.54,36.26,66.45,36.25z"/>
	</g>
</g>
</svg>
