<svg width="300" height="263" viewBox="0 0 300 263" fill="none" xmlns="http://www.w3.org/2000/svg">
<path d="M4.06182 125.643L142.103 3.07986C146.525 -1.02662 153.475 -1.02662 157.897 3.07986L295.938 125.643C304.151 132.908 299.097 146.491 288.041 146.491H251.714V246.942L186.642 181.554C191.381 168.287 188.538 152.809 178.114 142.069C167.374 131.329 151.895 128.486 138.628 133.54L155.686 150.597C162.635 157.547 163.583 168.919 157.265 176.5C150 185.345 137.049 185.661 129.152 177.763L111.778 160.39C107.04 173.657 109.883 189.135 120.307 199.875C131.047 210.615 146.525 213.458 159.792 208.404L213.808 262.42H57.1303C52.392 262.42 48.2855 258.63 48.2855 253.575V146.175H11.9589C0.902987 146.491 -4.15115 132.908 4.06182 125.643Z" fill="#00273D"/>
</svg>
