<?xml version="1.0" encoding="utf-8"?>
<!-- Generator: Adobe Illustrator 27.8.1, SVG Export Plug-In . SVG Version: 6.00 Build 0)  -->
<svg version="1.1" id="Capa_1" xmlns="http://www.w3.org/2000/svg" xmlns:xlink="http://www.w3.org/1999/xlink" x="0px" y="0px"
	 viewBox="0 0 371.4 139.25" style="enable-background:new 0 0 371.4 139.25;" xml:space="preserve">
<style type="text/css">
	.st0{fill:#D1D700;}
	.st1{fill:none;stroke:#D1D700;stroke-miterlimit:10;}
	.st2{fill:#020203;}
</style>
<path d="M15.01,69.32l53.82-47.78c1.72-1.6,4.43-1.6,6.16,0l53.82,47.78c3.2,2.83,1.23,8.13-3.08,8.13h-14.16v39.16L86.19,91.11
	c1.85-5.17,0.74-11.21-3.33-15.39c-4.19-4.19-10.22-5.3-15.39-3.33l6.65,6.65c2.71,2.71,3.08,7.14,0.62,10.1
	c-2.83,3.45-7.88,3.57-10.96,0.49L57,82.86c-1.85,5.17-0.74,11.21,3.33,15.39c4.19,4.19,10.22,5.3,15.39,3.33l21.06,21.06H35.7
	c-1.85,0-3.45-1.48-3.45-3.45V77.32H18.08C13.77,77.44,11.8,72.15,15.01,69.32z"/>
<g>
	<path d="M228.61,101.34L230,118.9c-1.85,1.43-4.25,2.53-7.2,3.29c-2.95,0.76-5.65,1.14-8.09,1.14c-5.64,0-10.21-1.01-13.71-3.03
		c-3.5-2.02-6.05-4.76-7.64-8.21c-1.6-3.45-2.4-7.33-2.4-11.62V74.68h-20.22v47.64h-26.66V74.68h-7.96V59.01h7.96v-3.66
		c0-4.63,1.14-8.61,3.41-11.94c2.28-3.33,5.43-5.89,9.48-7.71c4.04-1.81,8.72-2.72,14.03-2.72c2.78,0,5.58,0.23,8.4,0.7
		c2.82,0.46,5.29,1.16,7.39,2.08L185.9,51.8c-1.85-0.42-3.66-0.74-5.43-0.95c-1.77-0.21-3.5-0.32-5.18-0.32
		c-5.64,0-8.47,1.73-8.47,5.18c0,1.1,0.29,2.19,0.88,3.29h49.91v37.78c0,1.94,0.57,3.43,1.71,4.48c1.14,1.06,2.51,1.58,4.11,1.58
		C225.11,102.85,226.84,102.35,228.61,101.34z M204.34,49.53c-3.88,0-7.2-1.24-9.98-3.73c-2.78-2.48-4.17-5.54-4.17-9.16
		c0-2.53,0.67-4.74,2.02-6.63c1.35-1.9,3.12-3.39,5.31-4.49c2.19-1.09,4.46-1.64,6.82-1.64c2.61,0,4.99,0.59,7.14,1.77
		c2.15,1.18,3.87,2.74,5.18,4.68c1.3,1.94,1.96,4.04,1.96,6.32c0,2.53-0.7,4.76-2.09,6.7c-1.39,1.94-3.16,3.46-5.31,4.55
		C209.08,48.98,206.79,49.53,204.34,49.53z"/>
	<path d="M229.24,122.31l19.21-32.85L230.5,59.01h26.66l7.08,14.91l7.33-14.91h25.9l-17.69,30.45l18.95,32.85h-25.9l-8.59-16.17
		l-8.34,16.17H229.24z"/>
	<path d="M317.81,52.06c-3.88,0-7.2-1.24-9.98-3.73c-2.78-2.48-4.17-5.54-4.17-9.16c0-2.53,0.67-4.74,2.02-6.63
		c1.35-1.9,3.12-3.39,5.31-4.49c2.19-1.09,4.46-1.64,6.82-1.64c2.61,0,4.99,0.59,7.14,1.77c2.15,1.18,3.87,2.74,5.18,4.67
		c1.3,1.94,1.96,4.04,1.96,6.32c0,2.53-0.7,4.76-2.08,6.7c-1.39,1.94-3.16,3.46-5.31,4.55C322.55,51.51,320.26,52.06,317.81,52.06z
		 M328.17,123.32c-5.64,0-10.21-1.01-13.71-3.03c-3.5-2.02-6.05-4.76-7.64-8.21c-1.6-3.45-2.4-7.33-2.4-11.62V59.01h26.66v37.78
		c0,1.94,0.57,3.43,1.71,4.48c1.14,1.06,2.51,1.58,4.11,1.58c1.69,0,3.41-0.51,5.18-1.52l1.39,17.56c-1.85,1.43-4.25,2.53-7.2,3.29
		C333.31,122.95,330.62,123.32,328.17,123.32z"/>
</g>
</svg>
