<?xml version="1.0" encoding="utf-8"?>
<!-- Generator: Adobe Illustrator 27.8.1, SVG Export Plug-In . SVG Version: 6.00 Build 0)  -->
<svg version="1.1" id="Capa_1" xmlns="http://www.w3.org/2000/svg" xmlns:xlink="http://www.w3.org/1999/xlink" x="0px" y="0px"
	 viewBox="0 0 351 349" style="enable-background:new 0 0 351 349;" xml:space="preserve">
<style type="text/css">
	.st0{clip-path:url(#SVGID_00000110463885918004970280000006819187086751373223_);}
	.st1{fill:#F2F2F2;}
	.st2{fill:#D2D800;}
	.st3{fill:#A1626A;}
	.st4{fill:#302F42;}
	.st5{fill:#403E56;}
	.st6{fill:#CDCCCC;}
	.st7{fill:none;stroke:#FFFFFF;stroke-miterlimit:10;}
	.st8{fill:#FFFFFF;}
</style>
<g>
	<g>
		<defs>
			<rect id="SVGID_1_" x="49.35" y="67.29" width="262.28" height="243.87"/>
		</defs>
		<clipPath id="SVGID_00000100381006653167397710000014433689021343824043_">
			<use xlink:href="#SVGID_1_"  style="overflow:visible;"/>
		</clipPath>
		<g style="clip-path:url(#SVGID_00000100381006653167397710000014433689021343824043_);">
			<path class="st1" d="M226.15,240.18h-94.09c-7.91,0-14.34-6.42-14.34-14.3v-93.82c0-7.89,6.43-14.3,14.34-14.3h94.09
				c7.91,0,14.34,6.42,14.34,14.3v93.82C240.49,233.76,234.06,240.18,226.15,240.18z M132.06,120.04c-6.65,0-12.05,5.38-12.05,12.01
				v93.82c0,6.64,5.39,12.01,12.05,12.01h65.91c22.22,0,40.23-17.96,40.23-40.12v-65.72c0-6.64-5.39-12.01-12.05-12.01H132.06z"/>
			<path class="st1" d="M142.21,129.79c-4.45,0-8.08,3.61-8.08,8.05v12.6c0,4.44,3.62,8.05,8.08,8.05h12.64
				c4.45,0,8.08-3.61,8.08-8.05v-12.6c0-4.44-3.62-8.05-8.08-8.05H142.21z"/>
			<path class="st1" d="M142.21,165.28c-4.45,0-8.08,3.61-8.08,8.05v12.6c0,4.44,3.62,8.05,8.08,8.05h12.64
				c4.45,0,8.08-3.61,8.08-8.05v-12.6c0-4.44-3.62-8.05-8.08-8.05H142.21z"/>
			<path class="st1" d="M142.21,200.76c-4.45,0-8.08,3.61-8.08,8.05v12.6c0,4.44,3.62,8.05,8.08,8.05h12.64
				c4.45,0,8.08-3.61,8.08-8.05v-12.6c0-4.44-3.62-8.05-8.08-8.05H142.21z"/>
			<path class="st2" d="M150.59,99.04c-5.61,0-10.18,4.55-10.18,10.15v15.88c0,5.6,4.56,10.15,10.18,10.15h15.93
				c5.61,0,10.17-4.55,10.17-10.15v-15.88c0-5.6-4.56-10.15-10.17-10.15H150.59z"/>
			<path class="st2" d="M203.02,143.42c-5.61,0-10.17,4.55-10.17,10.15v15.88c0,5.6,4.56,10.15,10.17,10.15h15.93
				c5.61,0,10.17-4.55,10.17-10.15v-15.88c0-5.6-4.56-10.15-10.17-10.15H203.02z"/>
			<path class="st3" d="M180.23,303.29l-3.24-0.03l-1.43-12.74l4.78,0.04L180.23,303.29z"/>
			<path class="st4" d="M169.86,308.42c-0.01,0.79,0.63,1.45,1.43,1.46l6.43,0.05l1.13-2.28l0.41,2.29l2.43,0.02l-0.61-8.16
				l-0.84-0.06l-3.44-0.24l-1.11-0.07l-0.02,2.31l-5.17,3.5C170.1,307.5,169.87,307.94,169.86,308.42z"/>
			<path class="st3" d="M196.69,303.29l-3.23-0.03l-1.43-12.74l4.78,0.04L196.69,303.29z"/>
			<path class="st4" d="M186.32,308.42c-0.01,0.79,0.63,1.45,1.43,1.46l6.43,0.05l1.13-2.28l0.41,2.29l2.43,0.02l-0.61-8.16
				l-0.84-0.06l-3.45-0.24l-1.11-0.07l-0.02,2.31l-5.17,3.5C186.57,307.5,186.33,307.94,186.32,308.42z"/>
			<path class="st4" d="M167.53,200.32l13.12,0.41l12.42,2.75c0,0-1.24,1.51,2.9,5.64c0,0,5.52,9.64,1.66,19l-1.66,37.45
				c0,0,4.83,26.4,1.14,34.8l-4.88,0.3l-8.25-34.8l-4.02-37.48l-1.93,36.9c0,0,7.39,25.32,2.73,35.38l-5.28-0.3l-9.04-35.07
				c0,0-3.87-40.47-3.31-48.18C163.66,209.41,167.53,200.32,167.53,200.32z"/>
			<path class="st3" d="M211.57,141.15c-1.79,0.46-2.87,2.29-2.41,4.08c0.21,0.82,0.71,1.49,1.37,1.93l0,0l-0.25,6.14l4.72,2.18
				l0.38-9.45l-0.03,0c0.41-0.73,0.55-1.6,0.32-2.47C215.2,141.76,213.37,140.69,211.57,141.15z"/>
			<path class="st5" d="M185.22,163.08c-0.99-0.98-1.56-2.31-1.59-3.75c-0.03-1.94,0.94-3.69,2.6-4.7c1.91-1.16,4.3-1.04,6.09,0.3
				l14.8,11.12l2.64-16.01l5.66,1.82l-1.35,20.85c-0.09,1.46-0.92,2.74-2.21,3.44c-1.29,0.69-2.82,0.68-4.1-0.05l-21.39-12.14
				C185.95,163.7,185.56,163.41,185.22,163.08z"/>
			<path class="st3" d="M162.65,132.19c0.95,1.59,0.42,3.64-1.17,4.58c-0.73,0.43-1.56,0.55-2.33,0.41l0,0l-4.16,4.54l-4.88-1.76
				l6.41-6.98l0.02,0.02c0.22-0.8,0.74-1.52,1.52-1.98C159.65,130.08,161.71,130.61,162.65,132.19z"/>
			<path class="st5" d="M164.45,166.07l-23.76-6.4c-1.41-0.38-2.51-1.44-2.94-2.84c-0.43-1.4-0.11-2.89,0.86-3.99l13.76-15.76
				l5.31,2.69l-9.43,13.22l18.36,2.5c2.22,0.3,4,1.9,4.53,4.06c0.47,1.88-0.08,3.81-1.47,5.17c-1.03,1.01-2.38,1.55-3.77,1.55
				C165.41,166.26,164.92,166.2,164.45,166.07z"/>
			<path class="st5" d="M198.33,205.83l-33.23,1.52c-0.91-1.38-0.66-3.46,0.61-6.06c4.83-9.83,1.16-28.41-1.3-38.09
				c-0.69-2.72,1.17-5.42,3.96-5.69l3.13-0.31l2.9-8.82h10.14l4.21,4.79l7.14,4.33c-1.3,13.35-6.84,32.21,1.05,41.66
				C198.66,201.22,199.15,203.46,198.33,205.83z"/>
			<path class="st3" d="M178.17,148.58c5.46,0,9.88-4.41,9.88-9.85c0-5.44-4.42-9.85-9.88-9.85c-5.46,0-9.88,4.41-9.88,9.85
				C168.3,144.17,172.72,148.58,178.17,148.58z"/>
			<path class="st4" d="M189.35,132.42c1.37-5-13.61-9.28-16.52-5.26c-0.4-0.57-1.9-0.92-2.59-0.74c-0.69,0.18-1.26,0.61-1.83,1.04
				c-0.77,0.59-1.58,1.21-2.05,2.06c-0.48,0.85-0.55,2.01,0.09,2.75c0.51,0.59,1.41,3.7,2.17,3.86c0.53,0.11,0.99,0.2,1.37,0.26
				c0.35-0.5,1.22-1.13,1.16-1.74c0.52,0.34,0.33,0.95,0.23,1.57c-0.35,2.06-8.23,18-3.72,13.31c0.45,0.26,1,0.51,1.64,0.73
				c1.08-1.63,1.97-3.54,2.55-5.55l0,0.04c0.2,1.74,1.48,3.17,3.17,3.66c6.78,1.96,12.26-0.91,14.14-6.09
				c-0.69-1.4-0.99-1.25-0.93-1.29c0.86-0.58,2.05-0.2,2.42,0.77c0.11,0.29,0.21,0.53,0.29,0.71
				C191.94,138.99,193.11,139.5,189.35,132.42z"/>
			<path class="st4" d="M184.68,128.79l-0.69-3.53c-0.06-0.3-0.11-0.62,0.02-0.89c0.17-0.35,0.61-0.49,1-0.44
				c0.39,0.06,0.67,0.41,1.06,0.47c1.33,0.24,3.1-1.08,3.57,2.24c0.2,1.39,2.42,1.53,3.16,2.72c0.74,1.19,0.83,2.9-0.18,3.88
				c-0.81,0.78-2.1,0.87-3.15,0.47c-1.05-0.4-1.89-1.2-2.62-2.04c-0.74-0.84-1.4-1.76-2.25-2.49"/>
			<path class="st2" d="M189.88,134.16c-2.7-0.38-4.55-1.36-5.48-2.91c-1.22-2.04-0.4-4.28-0.37-4.38l0.57,0.21
				c-0.01,0.02-0.75,2.07,0.32,3.86c0.83,1.39,2.53,2.27,5.03,2.62L189.88,134.16z"/>
			<path class="st2" d="M202.57,96.04c-7.95,0-14.41-6.45-14.41-14.37s6.47-14.37,14.41-14.37c7.95,0,14.41,6.45,14.41,14.37
				S210.52,96.04,202.57,96.04z M202.57,73.04c-4.77,0-8.65,3.87-8.65,8.62c0,4.76,3.88,8.62,8.65,8.62s8.65-3.87,8.65-8.62
				C211.22,76.91,207.34,73.04,202.57,73.04z"/>
			<path class="st2" d="M224.75,105.81c-0.71,0-1.41-0.26-1.97-0.78l-13.53-12.64c-1.16-1.09-1.22-2.9-0.13-4.06
				c1.09-1.16,2.91-1.22,4.07-0.13l13.53,12.64c1.16,1.09,1.22,2.9,0.13,4.06C226.28,105.5,225.51,105.81,224.75,105.81z"/>
			<path class="st1" d="M285.89,302.96c0.98,0.06,1.52-1.15,0.78-1.86l-0.07-0.29c0.01-0.02,0.02-0.05,0.03-0.07
				c0.99-2.36,4.35-2.34,5.33,0.02c0.87,2.1,1.98,4.19,2.26,6.41c0.12,0.98,0.07,1.97-0.15,2.93c2.04-4.45,3.12-9.31,3.12-14.2
				c0-1.23-0.07-2.46-0.2-3.68c-0.11-1-0.27-2-0.47-2.99c-1.09-5.34-3.46-10.42-6.88-14.66c-1.64-0.89-3.01-2.29-3.84-3.97
				c-0.3-0.61-0.53-1.26-0.64-1.92c0.19,0.03,0.7-2.81,0.56-2.99c0.26-0.39,0.73-0.59,1.01-0.97c1.41-1.91,3.36-1.58,4.38,1.02
				c2.17,1.09,2.19,2.91,0.86,4.65c-0.85,1.11-0.97,2.61-1.71,3.8c0.08,0.1,0.16,0.19,0.23,0.29c1.4,1.8,2.62,3.73,3.64,5.76
				c-0.29-2.26,0.14-4.97,0.87-6.72c0.83-1.99,2.38-3.68,3.75-5.4c1.64-2.07,5.02-1.17,5.31,1.46c0,0.03,0.01,0.05,0.01,0.08
				c-0.2,0.11-0.4,0.24-0.6,0.36c-1.11,0.73-0.73,2.45,0.59,2.65l0.03,0c-0.07,0.73-0.2,1.45-0.38,2.17
				c1.76,6.77-2.03,9.24-7.45,9.35c-0.12,0.06-0.24,0.12-0.36,0.18c0.55,1.54,0.99,3.12,1.31,4.72c0.29,1.41,0.49,2.84,0.61,4.28
				c0.14,1.81,0.13,3.63-0.03,5.44l0.01-0.06c0.39-1.99,1.47-3.85,3.05-5.14c2.35-1.92,5.66-2.63,8.19-4.18
				c1.22-0.74,2.78,0.22,2.57,1.63l-0.01,0.07c-0.38,0.15-0.74,0.33-1.1,0.53c-0.2,0.12-0.4,0.24-0.6,0.36
				c-1.11,0.73-0.73,2.45,0.59,2.65l0.03,0c0.02,0,0.04,0.01,0.06,0.01c-0.65,1.53-1.55,2.95-2.67,4.18
				c-1.1,5.91-5.81,6.47-10.86,4.75h0c-0.55,2.4-1.36,4.74-2.39,6.97h-8.55c-0.03-0.1-0.06-0.19-0.09-0.29
				c0.79,0.05,1.59,0,2.37-0.14c-0.63-0.78-1.27-1.56-1.9-2.34c-0.01-0.01-0.03-0.03-0.04-0.05c-0.32-0.4-0.65-0.79-0.97-1.19l0,0
				C285.45,305.36,285.6,304.14,285.89,302.96z"/>
			<path class="st6" d="M49.35,310.6c0,0.31,0.25,0.56,0.56,0.56H311c0.31,0,0.56-0.25,0.56-0.56c0-0.31-0.25-0.56-0.56-0.56H49.92
				C49.61,310.04,49.35,310.29,49.35,310.6z"/>
		</g>
	</g>
</g>
<g>
	<circle class="st2" cx="71.2" cy="82.86" r="49.02"/>
	<circle class="st7" cx="71.2" cy="82.86" r="46.21"/>
	<g>
		<path class="st8" d="M66.63,106.18l-0.14-0.22l-0.29-0.58l-0.14-1.37v-2.09l-0.07-0.86v-2.45l0.14-1.08l0.07-6.55l0.29-4.1v-1.01
			l0.43-6.7v-1.15l0.22-2.38h-0.14l-0.94,1.22l-1.01,1.01l-1.37,0.79l-0.29,0.29l-1.01,0.5l-0.58,0.07l-0.94,0.5l-2.3,0.5
			l-1.73-0.22l-0.14-0.14h-0.65l-2.16-1.01l-0.14-0.22l-0.72-0.36l-0.14-0.29v-0.65l0.36-0.43l1.08-0.79l7.13-8.06l0.07-0.07
			l1.37-1.66l0.29-0.14l0.43-0.65l2.59-3.02v-0.07l2.16-2.88l1.15-1.94l0.58-0.58l0.58-0.29h1.15l0.86,0.58l0.14,0.29l0.5,0.14
			l0.5,0.43l0.86,0.36l0.58,0.65l0.36,0.14l0.22,0.29l0.72,0.14l0.86,0.58l0.29,0.29l0.22,0.14l0.58,0.29l0.14,0.43l0.07,0.14
			l0.22,1.22l-0.72,5.98v2.02l-0.07,0.36v0.58h0.07v0.22l-0.22,0.29l-0.07,0.58l-0.22,0.43l0.29,0.22l-0.14,0.94L77.79,75v0.29
			l-0.29,0.07v1.22l-0.07,0.58l0.22,0.07l-0.14,0.36v0.29h-0.14v1.22l-0.43,0.65l0.14,0.22v0.79l-0.22,0.5H77v0.29l-0.22,0.65
			l0.07,0.29l-0.14,1.08l-0.22,0.29h0.36v1.08l-0.29,0.36v0.72h0.29v0.36l-0.36,0.65v0.79l0.22,0.29h-0.29l0.07,0.72h0.14l0.14-0.29
			l0.07,0.36l-0.07,0.65l-0.29,0.29l0.22,0.22l-0.22,1.01v0.14l-0.07,1.66l-0.14,0.22v0.5l0.14,0.22v0.43l-0.22,0.36l0.07,0.65v1.01
			l-0.07,0.22l0.07,0.29v0.14l0.14,0.22l-0.29,0.22l-0.07,3.31l-0.36,0.43h0.22l0.29,0.72v1.37l-0.43,0.14l-0.22-0.36l-0.07,0.07
			l0.07,1.15l0.22,0.07l0.07,0.07h0.14v-0.36l-0.22-0.22l0.29-0.29l0.22,1.01l-0.07,0.14v0.14l-0.22,0.22l-0.14,0.72h-0.07
			l-0.22,0.07l0.07-0.29l0.14-0.14v-0.43l0.07-0.14v-0.14h-0.36v0.58l-0.43,0.79l-0.14,0.5l-0.14-0.22l0.07-0.5l0.07-0.07l0.22-0.5
			h-0.36l0.07-0.29l-0.07-0.14v-0.72h-0.43v1.15l-0.14,0.5l-0.14-0.22l-0.14-0.07l-0.07,0.22l-0.22-0.22l0.14-0.43h0.14v-1.51h-0.14
			l-0.43,0.79l-0.14,0.22l0.22,0.14l-0.22,0.65l-0.14-0.29v-1.3l-0.43-0.07l-0.07-0.14l-0.22,0.22l0.22,0.72v0.72l0.22,0.43v0.79
			l-0.29,0.36l-0.14-0.14l0.14-0.22l-0.43-0.14l0.14-0.5v-0.72h-0.43l-0.14-0.58l-0.07,0.14l-0.14,0.43l-0.14-0.22l0.22-0.5h0.36
			v-0.65l0.07-0.14l-0.14-0.14l-0.22,0.29h-0.14l0.14-0.43v-0.43h-0.36v0.36l-0.14,0.07l-0.14,0.14h-0.07v-0.65h-0.14l-0.14,0.5
			v0.29l-0.14,0.36l-0.07,0.43l-0.36,0.36l-0.07,0.72l-0.22,0.36l-0.07,0.14l-0.22,0.58l-0.14-0.07v-0.36l0.29-0.29l0.07-0.43
			l0.07-0.14v-0.5h-0.07l-0.14,0.5l-0.22-0.14l-0.29-0.07l-0.14,1.01l-0.29-0.65h-0.29L68,105.97l0.14,0.07h0.22v-0.29h0.14v0.86
			l-0.22,0.29h-0.14l0.07-0.29h-0.07L68,106.76l-0.22,0.14l-0.14-0.29l-0.5,0.14L66.63,106.18z M66.13,105.9l-0.07,0.14l-0.22-0.43
			h0.29V105.9z M67.21,105.46v-0.14h-0.72l-0.07,0.14l0.36,0.22L67.21,105.46z M67.21,106.25v-0.07l-0.07-0.14l-0.22,0.14v0.07
			H67.21z M69.01,106.62l0.14,0.22v0.22l-0.36-0.07l0.14-0.79L69.01,106.62z M69.15,105.68l-0.07,0.07v-0.29l0.07,0.07V105.68z
			 M70.16,104.96h0.14l0.07,0.14l-0.07,0.43l-0.22,0.29l0.14,0.36l-0.29,0.22l-0.14,0.14l-0.22,0.14v-0.07l0.29-0.5L70.16,104.96z
			 M70.02,106.98h-0.14v-0.29l0.22-0.14L70.02,106.98z M70.67,106.54v-0.22h0.14L70.67,106.54z M71.03,103.95l-0.22,0.14v-0.5h0.22
			V103.95z M71.1,104.96l-0.22,0.29v-0.43h0.22V104.96z M71.53,107.05l-0.36-0.07l0.22-0.43L71.53,107.05z M73.76,105.97l-0.14,0.36
			l-0.07-0.07v-0.29H73.76z M75.99,102.94v-0.22h-0.14v0.22H75.99z M76.07,105.97l-0.07,0.43h-0.14v-0.65h0.43L76.07,105.97z"/>
	</g>
</g>
</svg>
