<?xml version="1.0" encoding="utf-8"?>
<!-- Generator: Adobe Illustrator 27.8.1, SVG Export Plug-In . SVG Version: 6.00 Build 0)  -->
<svg version="1.1" id="Capa_1" xmlns="http://www.w3.org/2000/svg" xmlns:xlink="http://www.w3.org/1999/xlink" x="0px" y="0px"
	 viewBox="0 0 351 349" style="enable-background:new 0 0 351 349;" xml:space="preserve">
<style type="text/css">
	.st0{clip-path:url(#SVGID_00000031909168164240913400000000332438992122723772_);}
	.st1{fill:#403E56;}
	.st2{fill:#FFFFFF;}
	.st3{fill:#CCCCCB;}
	.st4{fill:#D2D800;}
	.st5{fill:#F1F1F1;}
	.st6{fill:#F6B6B8;}
	.st7{fill:#302F42;}
	.st8{opacity:0.1;fill:#020203;enable-background:new    ;}
	.st9{clip-path:url(#SVGID_00000055698785816873964920000013607317433396999347_);}
	.st10{fill:#A1626A;}
	.st11{fill:#CBCACA;}
	.st12{fill:#F0F0F0;}
	.st13{fill:#F2F2F2;}
	.st14{fill:#E7E6E6;}
	.st15{fill:none;stroke:#FFFFFF;stroke-miterlimit:10;}
	.st16{clip-path:url(#SVGID_00000132786734243179891920000005192117453266229424_);}
	.st17{fill:#CDCCCC;}
	.st18{clip-path:url(#SVGID_00000174601938777559416370000004429524376493709964_);}
	.st19{clip-path:url(#SVGID_00000113312350752101420680000000417932779940419757_);}
	.st20{fill:#F6B6B9;}
</style>
<g>
	<g>
		<defs>
			<rect id="SVGID_1_" x="35.28" y="96.1" width="280.44" height="212.91"/>
		</defs>
		<clipPath id="SVGID_00000132088518182319570260000011571516127335654291_">
			<use xlink:href="#SVGID_1_"  style="overflow:visible;"/>
		</clipPath>
		<g style="clip-path:url(#SVGID_00000132088518182319570260000011571516127335654291_);">
			<path class="st1" d="M203.5,160.16h1.02v105.55c0,4.29,1.71,8.41,4.75,11.44c3.04,3.04,7.17,4.74,11.47,4.74h59.38
				c2.13,0,4.24-0.42,6.21-1.23c1.97-0.81,3.76-2.01,5.26-3.51c1.51-1.5,2.7-3.29,3.52-5.25c0.82-1.96,1.23-4.07,1.23-6.19V112.29
				c0-4.29-1.71-8.41-4.75-11.45c-3.04-3.04-7.17-4.74-11.47-4.74h-59.38c-2.13,0-4.24,0.42-6.21,1.23s-3.76,2.01-5.26,3.51
				c-1.51,1.5-2.7,3.29-3.52,5.25c-0.82,1.96-1.23,4.07-1.23,6.19v27.97h-1.02V160.16z"/>
			<path class="st2" d="M215.46,101.23c-1.47,0.61-2.81,1.5-3.93,2.62c-1.12,1.12-2.02,2.45-2.63,3.92
				c-0.61,1.47-0.92,3.04-0.92,4.63v153.2c0,1.59,0.31,3.16,0.92,4.63c0.61,1.47,1.5,2.8,2.63,3.92c1.12,1.12,2.46,2.01,3.93,2.62
				c1.47,0.61,3.04,0.92,4.64,0.92h59.66c1.59,0,3.17-0.31,4.64-0.92c1.47-0.61,2.81-1.5,3.93-2.62c1.12-1.12,2.02-2.45,2.63-3.92
				c0.61-1.47,0.92-3.04,0.92-4.63V112.4c0-1.59-0.31-3.16-0.92-4.63c-0.61-1.47-1.5-2.8-2.63-3.92c-1.12-1.12-2.46-2.01-3.93-2.62
				c-1.47-0.61-3.05-0.92-4.64-0.92h-7.24c0.36,0.87,0.49,1.82,0.4,2.75c-0.1,0.94-0.42,1.84-0.95,2.62
				c-0.53,0.78-1.24,1.42-2.07,1.86c-0.83,0.44-1.76,0.67-2.71,0.67h-34.02c-0.94,0-1.87-0.23-2.71-0.67
				c-0.83-0.44-1.54-1.08-2.07-1.86c-0.53-0.78-0.85-1.68-0.95-2.62c-0.1-0.94,0.04-1.88,0.4-2.75h-7.75
				C218.5,100.31,216.93,100.63,215.46,101.23z"/>
			<path class="st3" d="M184.23,281.82c-0.06-0.06-0.1-0.15-0.1-0.24c0-0.09,0.04-0.18,0.1-0.24c0.07-0.06,0.15-0.1,0.24-0.1h130.91
				c0.09,0,0.18,0.04,0.24,0.1c0.06,0.06,0.1,0.15,0.1,0.24c0,0.09-0.04,0.18-0.1,0.24c-0.06,0.06-0.15,0.1-0.24,0.1H184.47
				C184.38,281.92,184.29,281.89,184.23,281.82z"/>
			<path class="st4" d="M278.94,185.66c0-15.99-12.99-28.95-29.01-28.95c-16.02,0-29.01,12.96-29.01,28.95s12.99,28.95,29.01,28.95
				C265.95,214.62,278.94,201.65,278.94,185.66z"/>
			<path class="st2" d="M252.8,196.7c-0.47,0-0.93-0.1-1.34-0.31c-0.42-0.2-0.78-0.5-1.07-0.87l-12.28-15.97
				c-0.49-0.64-0.7-1.44-0.6-2.23c0.11-0.79,0.52-1.52,1.16-2l0.07,0.09l-0.06-0.09l0,0c0.32-0.24,0.68-0.42,1.06-0.52
				s0.79-0.13,1.18-0.08c0.39,0.05,0.77,0.18,1.12,0.38c0.34,0.2,0.65,0.46,0.89,0.78l10.44,13.59l4.42-3.38
				c0.32-0.24,0.68-0.42,1.06-0.52c0.38-0.1,0.79-0.13,1.18-0.08c0.39,0.05,0.77,0.18,1.12,0.38s0.65,0.46,0.89,0.78
				c0.24,0.32,0.42,0.67,0.52,1.06c0.1,0.38,0.13,0.78,0.08,1.18c-0.05,0.39-0.18,0.77-0.38,1.12c-0.2,0.34-0.46,0.65-0.78,0.89
				l-6.82,5.2l-0.03,0.02C254.09,196.5,253.45,196.71,252.8,196.7L252.8,196.7z"/>
			<path class="st5" d="M75.62,299.12c-2.93,3.96-7.23,6.65-11.46,9.18c-0.04,0.02-0.08,0.04-0.11,0.07
				c-0.12,0.07-0.24,0.15-0.37,0.22l0.35-0.23l0.11-0.07c-0.24-0.11-0.49-0.22-0.74-0.33c-0.05-0.03-0.11-0.05-0.17-0.08
				c-0.01,0-0.02-0.01-0.03-0.01c-1.2-0.53-2.4-1.08-3.61-1.64c-8.63-4.03-17.09-9.06-21.05-17.51c-4.51-9.61-1.69-21.46,4.75-29.91
				c4-5.25,9.76-9.67,16.36-10.02c3.55-0.14,7.02,1.07,9.72,3.38c0.07,0.06,0.14,0.12,0.21,0.18c2.23,2,3.71,4.69,3.72,7.7
				c0.02,5.42-4.22,9.76-7.93,13.71c-3.71,3.96-7.4,9.11-5.98,14.34c0.31-1.69,1.06-3.26,2.17-4.56c1.12-1.3,2.56-2.28,4.19-2.84
				c1.62-0.56,3.37-0.68,5.05-0.34c1.68,0.34,3.25,1.11,4.53,2.25c0.21,0.18,0.42,0.37,0.61,0.57c0.47,0.48,0.89,1.01,1.24,1.58
				C79.88,289.12,78.65,295.01,75.62,299.12z"/>
			<path class="st2" d="M56.73,263.19c3.21-3.75,6.88-7.1,10.91-9.95c0.49-0.34,0.98-0.67,1.47-1c0.04-0.03,0.08-0.05,0.13-0.06
				c0.05-0.01,0.09-0.01,0.14,0c0.09,0.03,0.16,0.09,0.21,0.18c0.06,0.09,0.08,0.2,0.05,0.31c-0.02,0.11-0.09,0.2-0.18,0.26
				c-4.01,2.67-7.67,5.81-10.92,9.37c-3.23,3.46-5.97,7.34-8.14,11.54c-1.97,3.93-3.07,8.25-2.55,12.65
				c0.53,4.03,2.04,7.86,4.4,11.17c2.74,3.91,6.38,7.1,10.33,9.76c0.21,0.14,0.42,0.28,0.63,0.42c-1.02-4.1-0.86-8.4,0.48-12.41
				c1.5-4.41,4.39-8.23,8.23-10.88c1.07-0.75,2.21-1.39,3.4-1.94c0.21,0.18,0.42,0.37,0.61,0.57c-3.09,1.36-5.81,3.43-7.94,6.04
				c-2.12,2.64-3.58,5.75-4.25,9.07c-0.67,3.32-0.53,6.75,0.4,10.01c-0.04,0.02-0.08,0.04-0.11,0.07c-0.12,0.07-0.24,0.15-0.37,0.22
				l0.35-0.23l0.11-0.07c-0.24-0.11-0.49-0.22-0.74-0.33c-0.05-0.03-0.11-0.05-0.17-0.08c-0.01,0-0.02-0.01-0.03-0.01
				c-1.2-0.53-2.4-1.08-3.61-1.64c-2.59-1.94-4.92-4.2-6.93-6.73c-2.68-3.33-4.51-7.24-5.35-11.42c-0.39-2.03-0.48-4.12-0.25-6.18
				c0.29-2.31,0.91-4.56,1.85-6.7C50.8,270.82,53.62,266.8,56.73,263.19z"/>
			<path class="st5" d="M141.49,103.4c0-3.4-2.76-6.15-6.16-6.15c-3.4,0-6.16,2.75-6.16,6.15c0,3.4,2.76,6.15,6.16,6.15
				C138.73,109.55,141.49,106.79,141.49,103.4z"/>
			<path class="st5" d="M62.46,188.08c0-2.07-1.68-3.75-3.76-3.75c-2.08,0-3.76,1.68-3.76,3.75c0,2.07,1.68,3.75,3.76,3.75
				C60.78,191.83,62.46,190.15,62.46,188.08z"/>
			<path class="st5" d="M172.41,198.36c0-2.07-1.68-3.75-3.76-3.75c-2.07,0-3.76,1.68-3.76,3.75c0,2.07,1.68,3.75,3.76,3.75
				C170.73,202.11,172.41,200.43,172.41,198.36z"/>
			<path class="st3" d="M166.77,308.91c0.07-0.06,0.1-0.15,0.1-0.24c0-0.09-0.04-0.18-0.1-0.24c-0.06-0.07-0.15-0.1-0.24-0.1H35.62
				c-0.09,0-0.18,0.04-0.24,0.1c-0.07,0.06-0.1,0.15-0.1,0.24c0,0.09,0.04,0.18,0.1,0.24c0.06,0.06,0.15,0.1,0.24,0.1h130.91
				C166.62,309.01,166.71,308.97,166.77,308.91z"/>
			<path class="st6" d="M50.82,131.27c0.4,0.61,0.92,1.14,1.54,1.53c0.62,0.39,1.32,0.64,2.04,0.73c0.73,0.09,1.46,0.02,2.16-0.2
				l10.68,14.2l3.12-8.69l-10.62-12.15c-0.45-1.14-1.31-2.08-2.41-2.64c-1.1-0.56-2.36-0.69-3.56-0.37
				c-1.19,0.31-2.23,1.05-2.91,2.08c-0.68,1.02-0.96,2.26-0.79,3.48C50.17,129.96,50.42,130.65,50.82,131.27z"/>
			<path class="st1" d="M107.82,168.74L63.6,131.42l-4.76,7.55l35.26,37.55L107.82,168.74z"/>
			<path class="st7" d="M114.34,141.36c0-6.82-5.54-12.34-12.37-12.34c-6.83,0-12.37,5.53-12.37,12.34
				c0,6.82,5.54,12.34,12.37,12.34C108.8,153.7,114.34,148.17,114.34,141.36z"/>
			<path class="st7" d="M100.58,134.38c0.11,1.43-1.53,2.49-2.96,2.36c-1.43-0.13-2.65-1.04-3.8-1.9c-1.15-0.86-2.42-1.73-3.86-1.74
				c-1.9-0.02-3.52,1.53-4.2,3.29s-0.63,3.72-0.56,5.61c0.13,3.71,0.26,7.42,0.39,11.12c0.09,2.49,0.05,5.31-1.75,7.04
				c-1.7,1.64-4.41,1.68-6.7,1.09c-2.29-0.58-4.45-1.68-6.79-2c2.02,0.14,4.05-0.24,5.9-1.08c1.85-0.84,3.45-2.13,4.67-3.75
				c1.22-1.62,2.01-3.52,2.31-5.52c0.3-2,0.09-4.05-0.61-5.95c-0.68-1.86-1.81-3.53-2.65-5.33c-0.84-1.8-1.41-3.85-0.86-5.76
				c0.67-2.33,2.92-3.98,5.31-4.46c2.38-0.48,4.87,0.04,7.15,0.89c3.55,1.32,6.77,3.4,9.44,6.09L100.58,134.38z"/>
			<path class="st6" d="M147.03,223.23c-0.56-0.47-1.01-1.06-1.32-1.72c-0.31-0.66-0.46-1.39-0.46-2.12c0-0.73,0.17-1.45,0.48-2.11
				l-12.71-12.42l9.04-1.95l10.69,12.1c1.08,0.6,1.9,1.57,2.31,2.73c0.41,1.16,0.38,2.43-0.09,3.57c-0.47,1.14-1.34,2.06-2.44,2.61
				c-1.11,0.54-2.37,0.66-3.56,0.33C148.24,224.04,147.59,223.7,147.03,223.23z"/>
			<path class="st1" d="M117.24,161.93l31.3,48.63l-8.12,3.72l-26.63-33.36L117.24,161.93z"/>
			<path class="st6" d="M135.05,303.14h5.58l0.76-21.59l-6.35,0.1L135.05,303.14z"/>
			<path class="st7" d="M133.62,308.54h18v-0.23c0-1.85-0.74-3.63-2.05-4.94c-1.31-1.31-3.1-2.05-4.96-2.05l0,0l-11,0V308.54z"/>
			<path class="st6" d="M81.39,294.01l4.7,3.01l13.87-16.65l-6.93-4.44L81.39,294.01z"/>
			<path class="st7" d="M77.26,297.79l15.15,9.71l0.12-0.19c1-1.56,1.35-3.46,0.95-5.27c-0.4-1.81-1.5-3.39-3.06-4.39v0l-9.25-5.93
				L77.26,297.79z"/>
			<path class="st1" d="M85.73,234.84c0,0,15.34,7.25,28.33,0.35c13-6.9,30.78-8.01,30.78-8.01s-10.67-42.65-21.01-55.82
				c0,0-7.98-13.79-12.93-13.1c-4.95,0.69-20.36,51.75-20.36,51.75L85.73,234.84z"/>
			<path class="st8" d="M85.73,234.84c0,0,15.34,7.25,28.33,0.35c13-6.9,30.78-8.01,30.78-8.01s-17.88-34.43-23.04-55.68
				c0,0-5.95-13.93-10.9-13.24c-4.95,0.69-20.36,51.75-20.36,51.75L85.73,234.84z"/>
			<path class="st7" d="M124.09,191.17l12.68,22.94l6.68,81.5l-9.62,0.69l-12.81-58.78l-8.15,26.55l-20.62,26.74l-7.21-5.14
				l15.12-28.11l3.03-37.17v-25.66L124.09,191.17z"/>
			<path class="st4" d="M110.82,158.26c0,0-0.01,0.21-10.31,0.56l-5.15,5.49l7.56,33.73l21.65-5.83l-5.5-12.34
				c0,0,4.47-5.14-0.34-9.94C118.72,169.92,112.63,160.02,110.82,158.26z"/>
			<path class="st1" d="M94.36,160.89c-1.79,1.31-3.04,3.23-3.53,5.39c-0.49,2.16-0.18,4.43,0.86,6.38
				c2.48,4.72,5.15,12.04,3.77,20.07c-2.49,14.54-10.47,25.58-14.91,29.13c-1.55,1.24-1.6,3.03-1.37,4.32
				c0.63,3.61,4.14,7.7,6.56,8.52c0.16,0.05,0.33,0.08,0.51,0.08c3.94,0,13.62-12.51,24.76-36.96c6.93-15.23,1.9-27.43-3.54-34.99
				c-0.71-0.99-1.62-1.83-2.66-2.47c-1.04-0.64-2.2-1.06-3.41-1.25c-1.21-0.19-2.44-0.14-3.63,0.15c-1.19,0.29-2.3,0.81-3.29,1.54
				L94.36,160.89z"/>
			<path class="st6" d="M113.69,148.87c2.41-4.4,0.79-9.92-3.62-12.33c-4.41-2.41-9.94-0.79-12.36,3.61
				c-2.41,4.4-0.79,9.92,3.62,12.33C105.75,154.89,111.28,153.28,113.69,148.87z"/>
			<path class="st7" d="M118.51,143.64c0-2.6-1.04-5.09-2.88-6.93c-1.84-1.84-4.34-2.87-6.94-2.87h-1.85c-2.6,0-5.1,1.04-6.94,2.87
				c-1.84,1.84-2.88,4.33-2.88,6.93v0.18h3.92l1.34-3.73l0.27,3.73h2.02l0.67-1.88l0.14,1.88h13.15V143.64z"/>
			<path class="st7" d="M103.72,135.45l0.26-0.26h-10.6v13.6l5.61,1.82C96.01,151.99,100.07,139.09,103.72,135.45z"/>
		</g>
	</g>
</g>
<g>
	<circle class="st4" cx="71.2" cy="82.86" r="49.02"/>
	<circle class="st15" cx="71.2" cy="82.86" r="46.21"/>
</g>
<g>
	<path class="st2" d="M80.02,58.7v-0.62c0.46-0.29,0.85-0.02,1.18,0.81l-0.62,11.33c-0.12,2.24-0.21,4.25-0.25,6.04
		c-0.04,1.78-0.04,3.38,0,4.79c0.08,0.08,0.37,0.12,0.87,0.12c-0.25-0.12-0.45-0.07-0.59,0.16c-0.15,0.23-0.3,0.36-0.47,0.4
		c0.17,0.21,0.48,0.39,0.93,0.56c0.66,0.21,1.02,0.33,1.06,0.37c-0.17,0.17-0.23,0.39-0.19,0.68c0.08,0.46,0.1,0.71,0.06,0.75
		l0.5,0.31c-0.04,0.04-0.06,0.17-0.06,0.37l0.06,0.19l-0.37,0.19c0.29,0.17,0.44,0.31,0.44,0.44c0,0.08-0.08,0.21-0.25,0.37
		c-0.17,0.17-0.27,0.31-0.31,0.44c-0.17,0-0.29,0.04-0.37,0.12c-0.04,0.04,0.04,0.21,0.25,0.5c0.12,0,0.39,0.04,0.81,0.12
		c-0.08,0.17-0.28,0.33-0.59,0.5c-0.31,0.17-0.47,0.31-0.47,0.44c0,0.12,0.04,0.23,0.12,0.31l0.37,0.37
		c-0.5,0.21-0.81,0.62-0.93,1.24c0.25,7.55,0.31,12.35,0.19,14.38c-0.29,0.04-0.44,0.23-0.44,0.56v0.81
		c-0.12-0.04-0.24-0.17-0.34-0.37c-0.1-0.21-0.26-0.31-0.47-0.31c-0.21,0.21-0.31,0.62-0.31,1.24c0.08,0.58-0.08,0.87-0.5,0.87
		c-0.04,0-0.23-0.04-0.56-0.12c0-0.33-0.12-0.5-0.37-0.5c-0.08,0-0.24,0.03-0.47,0.09c-0.23,0.06-0.38,0.09-0.47,0.09
		c-0.17,0-0.27-0.02-0.31-0.06v0.68h-0.62c0.04-0.04-0.04-0.23-0.25-0.56c-0.08,0.04-0.31,0.17-0.68,0.37h0.12v0.56H75.6
		c0.04-0.17-0.04-0.35-0.25-0.56c0.04,0-0.15,0.15-0.56,0.44l-0.93-2.68c-0.12,0.25-0.17,0.61-0.12,1.09c0.04,0.48,0,0.82-0.12,1.03
		c-0.29-0.17-0.6-0.34-0.93-0.53c-0.33-0.19-0.56-0.45-0.68-0.78c-0.17-0.79-0.25-1.83-0.25-3.11v-0.96c0-0.39,0.02-0.86,0.06-1.4
		c0.04-0.54,0.06-1.01,0.06-1.4v-1.03c0-1.24-0.08-2.26-0.25-3.05c0,0.08-0.02,0.12-0.06,0.12l-0.19-0.81
		c0.04-0.87-0.02-1.99-0.19-3.36c-0.95-0.04-2.32,0.06-4.11,0.31l-4.05,0.56l-7.35,0.68l1.06-0.5l-2.61-0.06
		c0.29-0.17,0.33-0.39,0.12-0.69l5.85-0.81c-0.29-0.29-1.12-0.29-2.49,0l-3.73-0.25l0.25-0.31c-0.25-0.04-0.39-0.19-0.44-0.44
		l-0.12-0.75c0.08,0,0.27-0.15,0.56-0.44c-0.54-0.12-0.73-0.52-0.56-1.18c0.21-0.75,0.17-1.27-0.12-1.56
		c-0.29-1.91-0.5-3.76-0.62-5.54c-0.12-1.78-0.19-3.51-0.19-5.17c0-1.2,0.03-2.46,0.09-3.77s0.18-2.63,0.34-3.95
		c-0.17-1.37-0.28-2.35-0.34-2.96c-0.06-0.6-0.09-0.8-0.09-0.59c0-0.79,0.15-1.45,0.44-1.99l-0.12-0.93
		c0.12,0.04,0.22,0.16,0.28,0.34c0.06,0.19,0.12,0.39,0.19,0.62c0.06,0.23,0.12,0.44,0.19,0.62c0.06,0.19,0.16,0.3,0.28,0.34
		c-0.25,0.71-0.31,1.74-0.19,3.11c0.12,1.83,0.19,2.9,0.19,3.24c-0.08,2.7-0.16,4.71-0.22,6.04c-0.06,1.33-0.09,1.97-0.09,1.93
		c0,2.53,0.23,4.77,0.68,6.72h0.12c-0.21-2.86-0.33-5.36-0.37-7.5c-0.04-2.14,0-3.95,0.12-5.45c0.29-0.95,0.31-2.57,0.06-4.86
		c-0.21-2.24-0.08-3.9,0.37-4.98l-0.31-0.68l0.5,0.5c0.12-0.17,0.19-0.29,0.19-0.37c0-0.04-0.06-0.17-0.19-0.37
		c0.04,0.17,0.27,0.29,0.68,0.37l0.25-0.68c0.25,0,0.66,0.19,1.25,0.56l0.19-0.19c0.08-0.08,0.12-0.15,0.12-0.19l-0.19-0.19
		c0.17-0.25,0.42-0.37,0.75-0.37c0.17,0,0.43,0.05,0.78,0.16c0.35,0.1,0.61,0.13,0.78,0.09l-0.06,0.25
		c-0.17,0.21-0.15,0.35,0.06,0.44c0.25,0.12,0.39,0.09,0.44-0.09c0.04-0.19,0.06-0.34,0.06-0.47v-0.62c0.04,0.08,0.19,0.25,0.44,0.5
		c0.08-0.08,0.12-0.21,0.12-0.37c0.08,0.08,0.15,0.12,0.19,0.12c0.08,0,0.17-0.04,0.25-0.12s0.17-0.12,0.25-0.12
		c0.08,0,0.17,0.04,0.25,0.12c0.25,0.37,0.31,0.89,0.19,1.56c-0.04,0.29-0.07,0.53-0.09,0.72c-0.02,0.19-0.03,0.34-0.03,0.47
		c-0.04,0.17-0.06,0.31-0.06,0.44c0.08,0.58,0.16,1.19,0.22,1.84c0.06,0.64,0.09,1.32,0.09,2.02c0,0.5-0.02,1.12-0.06,1.87
		c-0.04,0.75-0.1,1.62-0.19,2.61c-0.08,1-0.15,1.87-0.19,2.61c-0.04,0.75-0.06,1.37-0.06,1.87c0,1.83,0.19,3.44,0.56,4.86h0.25
		c-0.29,0.37-0.25,1.16,0.12,2.37l0.87,0.25c0.87-0.33,2.3-0.6,4.3-0.81c2.08-0.21,3.46-0.41,4.17-0.62
		c-0.04-0.71-0.02-1.37,0.06-1.99c0.08-0.62,0.21-1.22,0.37-1.81c-0.17-0.62-0.19-1.54-0.06-2.74c0.12-1.78,0.19-2.72,0.19-2.8
		v-3.98l-0.37,0.37c0.08-0.91,0.16-1.73,0.22-2.46c0.06-0.73,0.07-1.38,0.03-1.96c0.08,0,0.17,0.04,0.25,0.12
		c0.42-1.54,0.52-2.68,0.31-3.42h0.25c-0.04,0.04,0,0.1,0.12,0.19l0.19-0.12c0.08,0.08,0.17,0.56,0.25,1.43
		c0.04,0.79,0.21,1.35,0.5,1.68c0.04-0.04,0.17-0.95,0.37-2.74c0.12-1.12,0.58-1.68,1.37-1.68c0.08,0,0.17,0.09,0.25,0.28
		c0.08,0.19,0.15,0.28,0.19,0.28l0.25-0.19v-0.37l0.5,0.37c0.25,0.04,0.4-0.08,0.47-0.37c0.06-0.29,0.13-0.44,0.22-0.44
		c0.12,0,0.25,0.06,0.37,0.19c-0.04,0.29,0.06,0.64,0.31,1.06l0.25-0.93c0.12,0.04,0.39,0.04,0.81,0l0.12-0.93
		c0.04,0.29,0.23,0.68,0.56,1.18C79.93,59.1,80.02,58.95,80.02,58.7z M64.14,89.95h-1.56c-0.62,0-1.18,0.1-1.68,0.31
		c0.21,0.04,0.46,0.05,0.75,0.03c0.29-0.02,0.6-0.05,0.93-0.09c0.79-0.12,1.35-0.19,1.68-0.19C64.48,89.97,64.43,89.95,64.14,89.95z
		 M72.98,77.07v-0.44H72.8L72.98,77.07z M73.11,59.7h-0.12v-0.25h0.12V59.7z M73.36,70.66l0.12-1.37L73.36,70.66z M73.51,66.73
		c-0.02,0.58-0.03,1.08-0.03,1.49l0.12-3.49C73.57,65.49,73.53,66.15,73.51,66.73z M73.48,68.73h0.19V68.6h-0.19V68.73z"/>
</g>
</svg>
