<?xml version="1.0" encoding="utf-8"?>
<!-- Generator: Adobe Illustrator 27.8.1, SVG Export Plug-In . SVG Version: 6.00 Build 0)  -->
<svg version="1.1" id="Capa_1" xmlns="http://www.w3.org/2000/svg" xmlns:xlink="http://www.w3.org/1999/xlink" x="0px" y="0px"
	 viewBox="0 0 351 349" style="enable-background:new 0 0 351 349;" xml:space="preserve">
<style type="text/css">
	.st0{clip-path:url(#SVGID_00000068653925653427255670000004609086721677951386_);}
	.st1{fill:#A1626A;}
	.st2{fill:#302F42;}
	.st3{fill:#403E56;}
	.st4{fill:#CBCACA;}
	.st5{fill:#F0F0F0;}
	.st6{fill:#FFFFFF;}
	.st7{fill:#D2D800;}
	.st8{fill:#F2F2F2;}
	.st9{fill:#E7E6E6;}
	.st10{clip-path:url(#SVGID_00000011004006025432311430000013562139404960575919_);}
	.st11{fill:#CDCCCC;}
	.st12{fill:none;stroke:#FFFFFF;stroke-miterlimit:10;}
	.st13{clip-path:url(#SVGID_00000067233509689529406230000014638900540149953161_);}
	.st14{clip-path:url(#SVGID_00000083785251258325893130000017116502205706916268_);}
	.st15{clip-path:url(#SVGID_00000018955377269151001630000004180449989240358057_);}
	.st16{fill:#F6B6B9;}
	.st17{clip-path:url(#SVGID_00000160154537447702131420000001300119136303808942_);}
	.st18{fill:#CCCCCB;}
	.st19{fill:#F1F1F1;}
	.st20{fill:#F6B6B8;}
	.st21{opacity:0.1;fill:#020203;enable-background:new    ;}
</style>
<g>
	<g>
		<defs>
			<rect id="SVGID_1_" x="65.84" y="92.69" width="234.76" height="218.47"/>
		</defs>
		<clipPath id="SVGID_00000018212376253729582180000001348398685270855057_">
			<use xlink:href="#SVGID_1_"  style="overflow:visible;"/>
		</clipPath>
		<g style="clip-path:url(#SVGID_00000018212376253729582180000001348398685270855057_);">
			<path class="st1" d="M85.05,302.39l4.47,1.18l6.65-16.73l-6.6-1.74L85.05,302.39z"/>
			<path class="st2" d="M83.66,307.02l13.74,3.62l0.05-0.17c0.37-1.42,0.17-2.94-0.57-4.21c-0.74-1.27-1.95-2.19-3.37-2.57h0
				l-2.01-2.57l-5.18,0.68l-1.2-0.32L83.66,307.02z"/>
			<path class="st1" d="M107.95,305.74l4.62,0l2.2-17.88h-6.82L107.95,305.74z"/>
			<path class="st2" d="M107.79,310.57H122v-0.18c0-1.47-0.58-2.88-1.62-3.92c-1.04-1.04-2.44-1.62-3.91-1.62h0l-2.6-1.98
				l-4.84,1.98h-1.24L107.79,310.57z"/>
			<path class="st2" d="M96.4,220.19c-1.12,1.4-0.56,6.16-0.56,6.16s-1.95,15.39-1.12,16.79s-0.56,2.52-1.4,4.48
				c-0.84,1.96-1.67,6.72-1.67,6.72c-4.74,3.92-4.46,21.83-4.46,21.83l-1.67,15.95c0.56,1.68,8.37,1.96,9.49,1.68s12-39.74,12-39.74
				s-0.56,38.06-0.56,39.74c0,1.68,7.53,0.84,9.21,0.84c1.67,0,12.28-68.57,12.28-68.57v-3.92l-1.4-1.96
				C126.53,220.19,97.51,218.79,96.4,220.19z"/>
			<path class="st1" d="M108.68,168.97c4.78,0,8.65-3.88,8.65-8.68c0-4.79-3.87-8.68-8.65-8.68c-4.78,0-8.65,3.88-8.65,8.68
				C100.03,165.09,103.9,168.97,108.68,168.97z"/>
			<path class="st3" d="M97.05,226.38l-0.05-0.07c-2.52-3.54,1.27-12.04,1.84-13.27c-0.68-0.22-1.26-0.67-1.65-1.27
				c-0.39-0.6-0.55-1.32-0.47-2.03l0.25-2.1l0.26-2.06l-1.84-1.85l-0.01-0.05l-1.06-9.29l-1.54-6.17c-0.58-2.33-0.53-4.78,0.14-7.09
				s1.95-4.39,3.69-6.05l3.56-0.57l4.33-4.18h6.97l2.39,2.29c4.7,3.87,5.82,2.19,11.12,9.46l-3.8,10.03l2.12,14.8l0,2.68l1.11,1.23
				c0.4,0.44,0.69,0.97,0.84,1.55c0.16,0.58,0.18,1.18,0.06,1.77l-0.15,0.73c0.56,0.24,1.06,0.62,1.45,1.09
				c0.39,0.47,0.66,1.03,0.79,1.63l0.39,1.82c0.33,0.44,2.52,3.37,2.52,4.17c0,0.12-0.09,0.24-0.28,0.37
				c-1.49,1.01-9.75,3.08-13.4,1.62c-3.89-1.56-19.36,0.78-19.52,0.8L97.05,226.38z"/>
			<path class="st1" d="M92.66,191.19l7.19-1.41c2.66,3.98,4.09,14.88,4.09,14.88l7.95,16.54c0.49,0.3,0.89,0.72,1.16,1.22
				c0.27,0.5,0.41,1.07,0.39,1.65c-0.02,0.57-0.18,1.13-0.49,1.62c-0.3,0.49-0.73,0.89-1.23,1.15s-1.07,0.4-1.64,0.37
				c-0.57-0.02-1.13-0.2-1.61-0.5c-0.48-0.31-0.87-0.74-1.14-1.25c-0.26-0.51-0.39-1.08-0.36-1.65l-10.37-19.6L92.66,191.19z"/>
			<path class="st3" d="M92.62,192.9l-0.2-10.72l3.38-4.54c0.67-0.89,1.57-1.57,2.61-1.98c1.04-0.4,2.16-0.51,3.25-0.3
				c1.48,0.29,2.79,1.13,3.67,2.35c0.88,1.22,1.27,2.74,1.08,4.23c-0.57,4.54-1.88,10.22-4.83,11.51l-0.03,0.01l3.06,10.73
				l-11.34,1.59L92.62,192.9z"/>
			<path class="st1" d="M135.34,191.95c0,0-8.63-6.77-13.31-7.74l-4.14,6.06l11.21,6.89l21.82,6.33c0.38,0.43,0.87,0.74,1.41,0.92
				c0.54,0.18,1.12,0.2,1.68,0.08c0.56-0.12,1.07-0.39,1.49-0.78c0.42-0.39,0.73-0.88,0.9-1.42c0.17-0.55,0.19-1.13,0.07-1.69
				c-0.13-0.56-0.4-1.07-0.79-1.49c-0.39-0.42-0.88-0.73-1.43-0.89c-0.55-0.17-1.13-0.19-1.68-0.05L135.34,191.95z"/>
			<path class="st3" d="M120.15,193.31l-9-5.8l-1.88-5.35c-0.36-1.05-0.43-2.18-0.19-3.27c0.24-1.09,0.78-2.08,1.56-2.88
				c1.06-1.07,2.49-1.69,3.99-1.75c1.5-0.05,2.97,0.47,4.11,1.46c3.44,3.01,7.88,4.01,7.3,7.19l1.66,0.24l8.47,6.45l-5,10.34
				L120.15,193.31z"/>
			<path class="st2" d="M98.86,154.6c0.97-1.51,2.79-2.51,4.56-2.23c0.16-1.13,0.64-2.2,1.36-3.08c0.73-0.88,1.68-1.55,2.75-1.92
				c1.08-0.38,2.23-0.45,3.35-0.21s2.14,0.78,2.97,1.56c0.27-0.19,0.59-0.31,0.92-0.34c0.33-0.03,0.67,0.02,0.97,0.15
				c0.61,0.28,1.14,0.7,1.54,1.24c1.01,1.27,1.67,2.79,1.89,4.4c0.22,1.61,0,3.25-0.63,4.75c0.22-0.79-0.57-1.53-1.37-1.7
				c-0.79-0.18-1.63-0.01-2.43-0.12c-1.03-0.15-1.96-0.75-3-0.88c-0.88-0.06-1.76,0.06-2.59,0.33c-0.83,0.28-1.71,0.4-2.59,0.35
				c-0.87-0.1-1.99,3.21-1.98,5.54c0,0.44-0.09,1.01-0.52,1.1c-0.53,0.12-0.84-0.62-1.34-0.82c-0.23-0.07-0.48-0.04-0.7,0.07
				c-0.21,0.11-0.37,0.31-0.45,0.54c-0.06,0.23-0.07,0.48-0.02,0.72c0.05,0.24,0.16,0.46,0.31,0.65c0.31,0.37,0.68,0.69,1.09,0.95
				l-0.21,0.17c-0.35,0.46-1.06,0.48-1.56,0.19c-0.48-0.32-0.86-0.76-1.12-1.28c-0.92-1.54-1.73-3.18-2.06-4.94
				C97.69,158.02,97.89,156.1,98.86,154.6z"/>
			<path class="st4" d="M300.26,105.22H84.2c-0.09,0-0.18-0.04-0.24-0.1c-0.06-0.07-0.1-0.15-0.1-0.24c0-0.09,0.04-0.18,0.1-0.24
				c0.06-0.06,0.15-0.1,0.24-0.1h216.06c0.09,0,0.18,0.04,0.24,0.1c0.06,0.07,0.1,0.15,0.1,0.24c0,0.09-0.04,0.18-0.1,0.24
				C300.44,105.18,300.35,105.22,300.26,105.22z"/>
			<path class="st3" d="M91.84,100.35c2.06,0,3.73-1.71,3.73-3.83c0-2.11-1.67-3.83-3.73-3.83c-2.06,0-3.73,1.71-3.73,3.83
				C88.11,98.64,89.78,100.35,91.84,100.35z"/>
			<path class="st3" d="M104.73,100.35c2.06,0,3.73-1.71,3.73-3.83c0-2.11-1.67-3.83-3.73-3.83S101,94.41,101,96.52
				C101,98.64,102.67,100.35,104.73,100.35z"/>
			<path class="st3" d="M117.63,100.35c2.06,0,3.73-1.71,3.73-3.83c0-2.11-1.67-3.83-3.73-3.83s-3.73,1.71-3.73,3.83
				C113.9,98.64,115.57,100.35,117.63,100.35z"/>
			<path class="st3" d="M292.53,93.64h-9.16c-0.18,0-0.35,0.08-0.48,0.21c-0.13,0.13-0.2,0.3-0.2,0.49c0,0.18,0.07,0.36,0.2,0.49
				c0.13,0.13,0.3,0.2,0.48,0.21h9.16c0.18,0,0.35-0.08,0.48-0.21c0.13-0.13,0.2-0.3,0.2-0.49c0-0.18-0.07-0.36-0.2-0.49
				C292.89,93.72,292.71,93.65,292.53,93.64z"/>
			<path class="st3" d="M292.53,96.26h-9.16c-0.18,0-0.35,0.08-0.48,0.21c-0.13,0.13-0.2,0.31-0.2,0.49c0,0.18,0.07,0.36,0.2,0.49
				c0.13,0.13,0.3,0.2,0.48,0.21h9.16c0.18,0,0.35-0.08,0.48-0.21c0.13-0.13,0.2-0.3,0.2-0.49c0-0.18-0.07-0.36-0.2-0.49
				C292.89,96.33,292.71,96.26,292.53,96.26z"/>
			<path class="st3" d="M292.53,98.86h-9.16c-0.18,0-0.35,0.08-0.48,0.21c-0.13,0.13-0.2,0.31-0.2,0.49s0.07,0.36,0.2,0.49
				c0.13,0.13,0.3,0.2,0.48,0.21h9.16c0.18,0,0.35-0.08,0.48-0.21c0.13-0.13,0.2-0.3,0.2-0.49s-0.07-0.36-0.2-0.49
				C292.89,98.94,292.71,98.87,292.53,98.86z"/>
			<path class="st5" d="M280.89,119.05H103.57c-0.98,0-1.92,0.39-2.62,1.09c-0.69,0.7-1.09,1.64-1.09,2.63v0.6
				c0,0.98,0.39,1.93,1.09,2.63c0.69,0.7,1.64,1.09,2.62,1.09h177.33c0.98,0,1.92-0.39,2.62-1.09c0.69-0.7,1.08-1.64,1.09-2.63v-0.6
				c0-0.98-0.39-1.93-1.09-2.63C282.82,119.44,281.88,119.05,280.89,119.05z"/>
			<path class="st6" d="M124.97,124.55h-16.88c-0.38,0-0.74-0.15-1.01-0.42c-0.27-0.27-0.42-0.63-0.42-1.01
				c0-0.38,0.15-0.74,0.42-1.01c0.27-0.27,0.63-0.42,1.01-0.42h16.88C126.8,121.66,126.82,124.57,124.97,124.55z"/>
			<path class="st6" d="M175.46,124.55h-16.88c-0.38,0-0.74-0.15-1.01-0.42c-0.27-0.27-0.42-0.63-0.42-1.01
				c0-0.38,0.15-0.74,0.42-1.01c0.27-0.27,0.63-0.42,1.01-0.42h16.88C177.3,121.66,177.32,124.57,175.46,124.55z"/>
			<path class="st6" d="M225.96,124.55h-16.88c-0.38,0-0.74-0.15-1.01-0.42c-0.27-0.27-0.42-0.63-0.42-1.01
				c0-0.38,0.15-0.74,0.42-1.01c0.27-0.27,0.63-0.42,1.01-0.42h16.88C227.79,121.66,227.81,124.57,225.96,124.55z"/>
			<path class="st7" d="M273.83,124.7h-16.88c-0.38,0-0.74-0.15-1.01-0.42c-0.27-0.27-0.42-0.63-0.42-1.01
				c0-0.38,0.15-0.74,0.42-1.01c0.27-0.27,0.63-0.42,1.01-0.42h16.88C275.67,121.81,275.69,124.73,273.83,124.7z"/>
			<path class="st6" d="M247.5,119.05h-0.62v8.03h0.62V119.05z"/>
			<path class="st7" d="M158.35,197.2c-0.03,0-0.05,0-0.08,0c-0.3-0.01-0.59-0.09-0.84-0.24c-0.26-0.15-0.48-0.35-0.64-0.6
				c-1.2-1.81-2.68-3.41-4.38-4.76c-1.03-0.82-2.1-1.59-3.14-2.33c-2.68-1.91-5.2-3.71-6.61-6.2c-3.05-5.42,0.54-12.98,5.68-16.37
				c5.76-3.8,13.35-4.4,20.68-4.47c0.76-0.01,1.53-0.01,2.29-0.01c13.22,0.01,26.4,1.21,39.4,3.61c4.32,0.8,8.85,1.78,12.48,4.16
				c3.61,2.36,5.81,6.09,5.6,9.48c-0.31,4.96-5.55,8.67-10.33,9.63c-4.55,0.92-9.28,0.3-14.28-0.36c-1.1-0.15-2.25-0.3-3.38-0.43
				c-12.27-1.42-35.33,2.96-36.31,3.15l-0.97,0.19l-3.75,4.85c-0.17,0.22-0.39,0.4-0.64,0.52
				C158.9,197.14,158.62,197.2,158.35,197.2z"/>
			<path class="st6" d="M213,173.01h-51.88c-0.3,0-0.59-0.12-0.8-0.33c-0.21-0.21-0.33-0.5-0.33-0.8c0-0.3,0.12-0.59,0.33-0.8
				c0.21-0.21,0.5-0.33,0.8-0.33H213c0.3,0,0.59,0.12,0.8,0.33c0.21,0.21,0.33,0.5,0.33,0.8c0,0.3-0.12,0.59-0.33,0.8
				C213.59,172.89,213.3,173.01,213,173.01z"/>
			<path class="st6" d="M213,179.96h-51.88c-0.15,0-0.3-0.03-0.43-0.09c-0.14-0.06-0.26-0.14-0.37-0.25
				c-0.1-0.11-0.19-0.23-0.25-0.37c-0.06-0.14-0.09-0.28-0.09-0.43c0-0.15,0.03-0.3,0.09-0.43c0.06-0.14,0.14-0.26,0.24-0.37
				c0.1-0.11,0.23-0.19,0.37-0.25c0.14-0.06,0.28-0.09,0.43-0.09H213c0.3,0,0.59,0.12,0.8,0.33c0.21,0.21,0.33,0.5,0.33,0.8
				c0,0.3-0.12,0.59-0.33,0.8C213.59,179.84,213.3,179.96,213,179.96z"/>
			<path class="st6" d="M167.17,186.91h-6.05c-0.3,0-0.59-0.12-0.8-0.33c-0.21-0.21-0.33-0.5-0.33-0.8c0-0.3,0.12-0.59,0.33-0.8
				s0.5-0.33,0.8-0.33h6.05c0.3,0,0.59,0.12,0.8,0.33c0.21,0.21,0.33,0.5,0.33,0.8c0,0.3-0.12,0.59-0.33,0.8
				C167.76,186.79,167.47,186.91,167.17,186.91z"/>
			<path class="st8" d="M250.99,233.39l-2.99-3.86l-0.77-0.15c-0.78-0.15-19.14-3.64-28.92-2.51c-0.9,0.1-1.81,0.22-2.69,0.34
				c-3.99,0.53-7.75,1.02-11.37,0.29c-3.8-0.77-7.98-3.72-8.23-7.67c-0.17-2.71,1.58-5.67,4.46-7.55c2.9-1.89,6.5-2.67,9.94-3.31
				c10.35-1.91,20.86-2.87,31.38-2.88c0.61,0,1.21,0,1.82,0.01c5.84,0.06,11.88,0.54,16.47,3.56c4.09,2.7,6.96,8.72,4.53,13.04
				c-1.12,1.98-3.13,3.42-5.26,4.94c-0.83,0.59-1.68,1.2-2.5,1.86c-1.35,1.07-2.53,2.35-3.49,3.79c-0.13,0.2-0.3,0.37-0.51,0.48
				s-0.44,0.18-0.67,0.19c-0.02,0-0.04,0-0.06,0c-0.22,0-0.44-0.05-0.64-0.15C251.29,233.71,251.12,233.57,250.99,233.39z"/>
			<path class="st6" d="M208.59,214.68h41.32c0.24,0,0.47-0.1,0.63-0.27c0.17-0.17,0.26-0.4,0.26-0.64c0-0.24-0.09-0.47-0.26-0.64
				c-0.17-0.17-0.4-0.26-0.63-0.27h-41.32c-0.24,0-0.47,0.1-0.63,0.27c-0.17,0.17-0.26,0.4-0.26,0.64c0,0.24,0.09,0.47,0.26,0.64
				C208.13,214.59,208.36,214.68,208.59,214.68z"/>
			<path class="st6" d="M208.59,220.22h41.32c0.12,0,0.24-0.02,0.34-0.07c0.11-0.05,0.21-0.11,0.29-0.2
				c0.08-0.08,0.15-0.18,0.2-0.29c0.05-0.11,0.07-0.23,0.07-0.35c0-0.12-0.02-0.24-0.07-0.34c-0.05-0.11-0.11-0.21-0.2-0.29
				c-0.08-0.08-0.18-0.15-0.29-0.2c-0.11-0.05-0.23-0.07-0.34-0.07h-41.32c-0.24,0-0.47,0.1-0.63,0.27
				c-0.17,0.17-0.26,0.4-0.26,0.64c0,0.24,0.09,0.47,0.26,0.64C208.13,220.12,208.36,220.22,208.59,220.22z"/>
			<path class="st6" d="M245.1,225.75h4.81c0.24,0,0.47-0.1,0.64-0.26c0.17-0.17,0.26-0.4,0.26-0.64c0-0.24-0.09-0.47-0.26-0.64
				c-0.17-0.17-0.4-0.26-0.64-0.26h-4.81c-0.24,0-0.47,0.09-0.64,0.26c-0.17,0.17-0.26,0.4-0.26,0.64c0,0.24,0.09,0.47,0.26,0.64
				C244.63,225.66,244.86,225.75,245.1,225.75z"/>
			<path class="st6" d="M158.99,205.1c3.03,0,5.49-2.46,5.49-5.5s-2.46-5.5-5.49-5.5c-3.03,0-5.49,2.46-5.49,5.5
				S155.96,205.1,158.99,205.1z"/>
			<path class="st3" d="M158.99,205.16c-1.1,0-2.17-0.33-3.09-0.94c-0.91-0.61-1.63-1.48-2.05-2.5c-0.42-1.02-0.53-2.14-0.32-3.22
				c0.21-1.08,0.74-2.07,1.52-2.85c0.78-0.78,1.77-1.31,2.84-1.52c1.08-0.21,2.19-0.1,3.21,0.32c1.01,0.42,1.88,1.14,2.49,2.05
				c0.61,0.92,0.94,1.99,0.94,3.09c0,1.48-0.59,2.89-1.63,3.94C161.87,204.57,160.46,205.16,158.99,205.16z"/>
			<path class="st6" d="M158.58,201.79c-0.01,0-0.02,0-0.04,0c-0.1,0-0.2-0.03-0.3-0.08s-0.17-0.11-0.24-0.2l-0.92-1.18
				c-0.06-0.07-0.1-0.16-0.13-0.25c-0.03-0.09-0.03-0.19-0.02-0.28c0.01-0.09,0.04-0.18,0.09-0.27c0.05-0.08,0.11-0.15,0.18-0.21
				l0.03-0.03c0.07-0.06,0.16-0.1,0.25-0.13c0.09-0.02,0.19-0.03,0.28-0.02s0.18,0.04,0.27,0.09c0.08,0.05,0.15,0.11,0.21,0.18
				c0.05,0.06,0.1,0.11,0.17,0.14c0.07,0.03,0.14,0.05,0.22,0.06c0.08,0,0.15-0.01,0.22-0.04c0.07-0.03,0.13-0.07,0.18-0.13
				l1.86-1.97c0.13-0.14,0.31-0.22,0.5-0.22c0.19,0,0.38,0.07,0.51,0.2l0.03,0.03c0.07,0.07,0.12,0.14,0.16,0.23
				c0.04,0.09,0.06,0.18,0.06,0.27c0,0.09-0.01,0.19-0.05,0.28c-0.03,0.09-0.08,0.17-0.15,0.24l-2.89,3.06
				c-0.07,0.07-0.15,0.13-0.24,0.17C158.77,201.77,158.67,201.79,158.58,201.79z"/>
			<path class="st6" d="M252.46,241.59c3.03,0,5.49-2.46,5.49-5.5c0-3.04-2.46-5.5-5.49-5.5s-5.49,2.46-5.49,5.5
				C246.98,239.13,249.43,241.59,252.46,241.59z"/>
			<path class="st9" d="M252.46,241.66c-1.1,0-2.17-0.33-3.09-0.94s-1.63-1.48-2.05-2.5c-0.42-1.02-0.53-2.14-0.32-3.22
				c0.21-1.08,0.74-2.07,1.52-2.85c0.78-0.78,1.77-1.31,2.84-1.52c1.08-0.22,2.19-0.11,3.21,0.32c1.01,0.42,1.88,1.14,2.49,2.05
				c0.61,0.92,0.94,1.99,0.94,3.09c0,1.48-0.59,2.89-1.63,3.94C255.35,241.07,253.94,241.66,252.46,241.66z"/>
			<path class="st6" d="M252.05,238.29c-0.01,0-0.02,0-0.03,0c-0.1,0-0.2-0.03-0.3-0.08c-0.09-0.05-0.17-0.11-0.24-0.2l-0.92-1.18
				c-0.06-0.07-0.1-0.16-0.13-0.25c-0.02-0.09-0.03-0.19-0.02-0.28c0.01-0.09,0.04-0.18,0.09-0.27c0.05-0.08,0.11-0.15,0.18-0.21
				l0.03-0.03c0.07-0.06,0.16-0.1,0.25-0.13c0.09-0.03,0.19-0.03,0.28-0.02c0.09,0.01,0.18,0.04,0.27,0.09
				c0.08,0.05,0.15,0.11,0.21,0.18c0.05,0.06,0.11,0.11,0.17,0.14c0.07,0.03,0.14,0.05,0.22,0.06c0.07,0,0.15-0.01,0.22-0.04
				c0.07-0.03,0.13-0.07,0.18-0.13l1.86-1.97c0.13-0.14,0.31-0.22,0.5-0.22c0.19,0,0.37,0.07,0.51,0.2l0.03,0.03
				c0.07,0.06,0.12,0.14,0.16,0.23c0.04,0.09,0.06,0.18,0.06,0.27c0,0.09-0.01,0.19-0.05,0.28c-0.03,0.09-0.08,0.17-0.15,0.24
				l-2.89,3.06c-0.07,0.07-0.15,0.13-0.24,0.17C252.25,238.27,252.15,238.29,252.05,238.29z"/>
			<path class="st5" d="M151.06,305.17l-2.63-4.25l-0.53,2.43c-0.09,0.43-0.18,0.86-0.27,1.29c-0.75-0.64-1.54-1.23-2.32-1.8
				c-2.39-1.74-4.78-3.48-7.17-5.23l0.75,4.35c0.46,2.68,0.94,5.41,2.08,7.87c0.13,0.28,0.26,0.55,0.41,0.82h11.12
				c0.09-0.25,0.15-0.51,0.18-0.77c0-0.02,0-0.03,0-0.05C152.86,308.16,151.94,306.59,151.06,305.17z"/>
			<path class="st4" d="M160.47,311.06l-94.22,0.11c-0.11,0-0.21-0.04-0.29-0.12c-0.08-0.08-0.12-0.18-0.12-0.29
				s0.04-0.21,0.12-0.29c0.08-0.08,0.18-0.12,0.29-0.12l94.22-0.11c0.05,0,0.11,0.01,0.16,0.03c0.05,0.02,0.09,0.05,0.13,0.09
				c0.04,0.04,0.07,0.08,0.09,0.13s0.03,0.1,0.03,0.16s-0.01,0.11-0.03,0.16c-0.02,0.05-0.05,0.09-0.09,0.13
				c-0.04,0.04-0.08,0.07-0.13,0.09C160.58,311.05,160.52,311.06,160.47,311.06z"/>
		</g>
	</g>
</g>
<g>
	<circle class="st7" cx="71.2" cy="82.86" r="49.02"/>
	<circle class="st12" cx="71.2" cy="82.86" r="46.21"/>
</g>
<g>
	<path class="st6" d="M83.22,102.87l-0.29,0.43v0.43l-0.36,0.58v0.43l0.22,0.29l-0.22,0.29l-0.29-0.14H82l-0.07-0.22l-0.36,0.14
		h-0.14l-0.29,0.22l-0.22-0.43l-0.22,0.22h-0.79l-0.22-0.5H79.4l-0.14,0.29l-0.07-0.07l-0.14-0.29h-0.79l-0.29,0.14h-1.22l0.14-0.29
		l0.43-0.14v-0.29l-0.29,0.14l-0.72,0.14l-0.43,0.29l-0.58,0.14l-1.73-0.07l-0.36,0.07h-0.58l-3.17,0.29l-0.79,0.14l-1.8,0.14h-0.29
		L65,105.46l-2.81-0.29l-0.5-0.22l-0.79-0.22l-1.22-1.01l-1.44-1.44l-0.07-0.29l-0.43-0.36l-0.36-0.79l-0.36-0.58l-0.58-1.58
		l0.14-0.65l0.72-0.72l0.94-3.96l1.22-2.45l1.58-2.74l1.87-2.59l1.87-2.16l1.44-1.3l4.9-5.54l3.1-4.32l0.94-2.16l0.22-1.87
		l-0.58-1.66l-0.65-1.08L72.92,65h-1.58l-0.86,0.29L69.47,66l-0.65,0.29l-0.94,1.01l-0.65,1.22l-0.43,0.36l-0.22,0.43l-0.36,0.43
		l-0.29,0.86l-0.22,1.08l-0.36,0.5l-0.86,4.75l-0.79,0.43l-0.86,0.72l-1.01,0.36h-0.86l-0.14,0.07l-2.02,0.36l-1.58-0.29l-0.22-0.14
		l-0.65-0.22l-0.86-0.79l-0.36-0.22h-0.36l-0.65-0.29l-0.65-0.72L53.27,75l0.14-0.22v-0.36l0.36-1.58l1.15-3.67l1.44-2.66l0.79-1.3
		l1.73-2.09l0.29-0.22l0.43-0.58l1.01-1.01l0.29-0.14l1.15-0.94l0.58-0.07l0.43-0.29l0.72-0.29l3.02-0.36h0.65l0.5-0.58l0.65-0.14
		h1.01l0.94,0.36h2.74l0.29,0.14l1.01,0.22l0.58,0.29h0.5l0.22,0.14l0.36,0.14l0.29,0.29l1.3,0.36l0.29,0.29l0.65,0.14l0.79,0.72
		l0.58,0.36l0.43,0.5l-0.22,0.36l0.58,0.58h0.14l0.14-0.22h0.14l0.36,0.36l0.07,0.36h0.29l0.36,0.65l0.22,0.07l0.29,0.43l0.36,0.14
		l1.51,2.02l0.22,1.22l0.22,0.29v0.65l0.36,0.86v1.73l-0.36,1.3l-1.08,2.38l-0.36,0.36l-0.36,0.94l-0.58,0.5l-0.79,1.51l-0.36,0.22
		l-0.14,0.22l-0.43,0.22l-0.14,0.65l-0.79,1.15l-0.72,0.36l-0.72,0.79l-0.36,0.22l-0.22,0.79l-0.5,0.22v0.5l-0.14,0.22h-0.29
		l-0.14,0.43l-0.65,0.36l-0.07-0.36h-0.22l-0.43,0.36v0.22l0.14,0.14l-0.65,0.36v0.07l-0.29,0.65l-0.29,0.29v-0.29l-0.22-0.07
		l-0.07,0.58l-0.14,0.22h-0.58l-0.14,0.43l-0.29,0.29v0.43l-0.14,0.07l-0.14-0.07h-0.14l-0.29,0.29v0.5l-0.36-0.14v0.29l0.14,0.07
		l-0.29,0.36l-0.14-0.29h-0.22v0.65l-0.43,0.29v0.07l0.14,0.14l-0.79,0.79l-0.65,0.22l-1.01,0.94l-0.07,0.29l-0.29,0.14v0.65
		l-0.22,0.29l-0.14,0.58v0.14l-0.14-0.29l-0.14,0.07l-0.07,0.72l-0.29,0.22l-0.07-0.14h-0.22v0.14l-0.14,0.36l3.89,0.07l0.65,0.36
		h2.81l0.65,0.22l0.22-0.22l-0.29-0.29l0.58-0.22l4.97,0.86h0.36l0.29,0.43l0.07,0.29h0.07l0.22-0.36l0.22,0.22v0.29h0.29l0.14,0.43
		l0.07,0.14l-0.07,0.14H82v0.43h0.07l0.14-0.14l0.29-0.22l0.43,1.08l-0.14,0.14l-0.29-0.72l-0.29,0.58l-0.29,0.29v0.29l-0.58,0.14
		l-0.14,0.22v0.22l0.36,0.22l0.86-0.43l-0.22-0.43l0.22-0.36l0.36,0.43h0.29v0.36l0.5,0.72l0.36,1.15l-0.29,0.29h-0.43v-0.43
		l0.14-0.14l0.07,0.14v-0.43l-0.36-0.79h-0.86l-0.72,0.72l-0.07,1.01h0.14v-0.43h0.36l0.65-0.43v0.14h0.07l0.22-0.29h0.14
		l-0.07,0.36l-0.5,0.29h-0.36l-0.22,0.86l-0.29,0.29l-0.36-0.14v0.29l0.36,0.36l0.58-0.07l0.07,0.14h0.36v-0.22l0.36-0.5l-0.22-0.36
		l0.22-0.29L83.22,102.87z M71.12,90.92l-0.22-0.22l-0.5,0.43v0.29L71.12,90.92z M73.21,96.1h0.07l-0.07,0.14V96.1z M75.23,86.81
		l0.36-0.29l-0.14,0.22L75.23,86.81z M75.59,96.39l0.29,0.22h0.43l0.79,0.22l0.43-0.14l-0.58-0.29h-0.5l-0.43-0.14L75.59,96.39z
		 M75.95,85.95v-0.14l0.14-0.07v0.07L75.95,85.95z M81.78,98.19H82v-0.14h-0.22V98.19z M82.21,102.73h0.36l-0.29,0.22h-0.07V102.73z
		 M82.86,104.31h0.14v0.29h-0.29L82.86,104.31z M83.87,104.38l-0.43,0.36l-0.14-0.07l0.22-0.5h0.14l0.07,0.14h0.14V104.38z
		 M84.09,104.6l0.07,0.07h-0.29L84.09,104.6z"/>
</g>
</svg>
