<?xml version="1.0" encoding="utf-8"?>
<!-- Generator: Adobe Illustrator 27.8.1, SVG Export Plug-In . SVG Version: 6.00 Build 0)  -->
<svg version="1.1" id="Capa_1" xmlns="http://www.w3.org/2000/svg" xmlns:xlink="http://www.w3.org/1999/xlink" x="0px" y="0px"
	 viewBox="0 0 351 349" style="enable-background:new 0 0 351 349;" xml:space="preserve">
<style type="text/css">
	.st0{clip-path:url(#SVGID_00000055693909758227786730000002883694244887998106_);}
	.st1{fill:#403E56;}
	.st2{fill:#FFFFFF;}
	.st3{fill:#CCCCCB;}
	.st4{fill:#D2D800;}
	.st5{fill:#F1F1F1;}
	.st6{fill:#F6B6B8;}
	.st7{fill:#302F42;}
	.st8{opacity:0.1;fill:#020203;enable-background:new    ;}
	.st9{clip-path:url(#SVGID_00000092446910650109994850000006443918809871753131_);}
	.st10{fill:#A1626A;}
	.st11{fill:#CBCACA;}
	.st12{fill:#F0F0F0;}
	.st13{fill:#F2F2F2;}
	.st14{fill:#E7E6E6;}
	.st15{fill:none;stroke:#FFFFFF;stroke-miterlimit:10;}
	.st16{clip-path:url(#SVGID_00000096043521123621306850000001944286825663600557_);}
	.st17{fill:#CDCCCC;}
	.st18{clip-path:url(#SVGID_00000031182254498294905680000008921056294004865156_);}
	.st19{clip-path:url(#SVGID_00000165952975438639150150000014579817919379319228_);}
	.st20{fill:#F6B6B9;}
</style>
<g>
	<circle class="st4" cx="71.2" cy="82.86" r="49.02"/>
	<circle class="st15" cx="71.2" cy="82.86" r="46.21"/>
</g>
<g>
	<path class="st2" d="M67.06,104.92v-0.29h-0.22l-0.14,0.29h-0.14l0.22-0.29l-0.43-0.43l-0.22-0.43h-0.29v0.58l-0.22,0.22
		l-0.14-0.22l-0.43,0.29l-0.14,0.58h-0.14v-0.14l-0.14-0.36l0.14-0.07l-0.65-0.07l-0.5,0.29h-0.43l-0.07-0.29h-0.65l-0.86-0.5
		l-0.5-0.5l-0.43-0.22l-0.22-0.36l-0.07-0.07l-0.14-0.36l-1.01-0.58L59,101.83h-0.22l-1.66-1.94l-1.73-2.59l-0.29-0.79l-0.43-0.58
		l-0.43-0.79l-0.07-0.07v-0.58l0.58-0.86l0.94-0.29h1.37l1.15,0.65l2.23,2.23l1.15,0.65l2.02,0.72l1.22,0.29l0.07,0.14l0.29-0.22
		l0.14,0.29l0.79,0.29h1.08l1.3-0.14h0.65v-0.29h-1.37l0.07-0.22l2.59,0.07L71.67,97l2.59-2.59l0.72-1.87v-2.52l-0.94-1.37
		l-0.94-0.79l-1.15-0.65l-0.29-0.07l-1.22-0.65l-2.74-0.29l-1.87-0.5l-0.58-0.22l-0.72-0.58l-0.72-0.22l-0.22-0.22l-0.79-0.22v-0.14
		l0.5-0.22v-0.36l-0.22-0.14l-0.36-0.14l-0.14-0.22l-0.29-0.07l-0.36-0.22l-0.65-0.22l-1.08-1.01l-0.07-0.22l-0.72-1.08v-0.79
		l0.29-0.72l1.44-1.37l1.37-0.58l1.73-0.29l4.54-1.66l1.66-1.01l3.31-2.88l1.08-1.51l0.29-0.94V67.7l-0.65-0.58l-1.37-0.22h-2.52
		l-0.29,0.14l-1.66,0.22l-0.43,0.22l-1.44,0.36l-0.58,0.58l-0.43,0.14l-2.02,1.22l-1.01,1.01l-0.29,0.07l-0.43,0.65l-0.94,0.14
		l-0.43,0.29l-1.08-0.07l-0.5,0.14h-2.88l-1.58-0.43l-1.51-1.15l-1.22-1.58l-0.14-0.65v-0.72l0.72-0.79v-0.22l1.15-1.37l2.16-2.09
		l3.02-2.09l1.08-0.58l1.15-0.36l0.14-0.22l0.65-0.07l0.07-0.14l1.3-0.43l0.22-0.14h0.22l1.44-0.22l0.43-0.36l3.38-0.29l3.96,0.36
		l3.89,1.73l2.59,2.23l0.79,1.44l0.14,0.22l0.58,1.08v0.58l0.5,0.22l0.36,1.22l0.14,0.22l0.14,0.65l0.29,0.29l-0.07,0.5l0.29,0.72
		l0.22,2.59l-0.29,0.72l-0.14,0.65l-0.22,0.29l-0.43,1.3l-0.58,1.01l-1.15,1.08l-1.01,1.15l-0.43,0.22l-0.86,0.86l-0.22-0.22
		l-0.43,0.58l-0.72,0.5l-0.5,0.22l-0.14,0.29l-0.43,0.22l1.44,1.15l3.17,3.31l0.07,0.29l0.29,0.43l0.07,0.29l0.5,0.65l0.14,0.36
		v0.29l0.14,0.72l0.22-0.36l0.22,0.36l-0.22,0.36l0.22,0.07h0.14l0.14-0.07h0.14v0.07l-0.36,0.36l0.22,0.29l-0.43,0.14v0.36
		l0.14,0.22l-0.22,0.29h0.36l0.29-0.29h0.36l-0.43,0.58l-0.58,0.29v0.58l-0.22,0.29l0.22,0.14l0.65-0.36l0.43-0.65l0.14,0.14v0.86
		l-0.58,0.65v0.14l0.36-0.14l-0.22,0.36l-0.36,0.14l-0.22,0.14l-0.22-0.29l-0.22,0.22l0.14,0.14l0.22,0.07l-0.22,0.22l0.22,0.14
		v0.22l-0.43,0.5l0.22,0.14h0.5l0.14-0.79l0.14-0.07l0.22-0.43l0.22,0.07l0.29,0.14l-0.14,0.36l0.14,0.43l-0.65,1.66l-0.22,0.07
		l-0.14,0.5l-0.43,0.14v0.58h0.29l0.36-0.5l0.22,0.22l-0.14,0.07v0.22l0.29-0.07l0.22,0.07l-0.79,0.36v0.14h0.5l-0.43,0.22h-0.36
		l-0.14,0.22l-0.58,0.14v0.86l-0.86,0.07v0.22h0.5l0.5,0.14l-0.14,0.07h-0.58l-0.5,0.43l-0.29,0.65l-0.65,0.72l-0.07,0.14
		l-0.36,0.29v-0.07l-1.8,1.15l-0.22,0.5h-0.22l-0.5,0.29l-0.58,0.5v0.29l-0.14,0.07l-0.14-0.14l-0.29-0.07l-1.01,0.72h-0.29
		l0.5-0.22l0.07-0.58l-0.22-0.29l-0.79,0.5h-0.29v-0.22l-1.01,0.5l-0.5,0.5l0.29-0.5v-0.29l0.29-0.14v-0.14h-0.43v-0.22l-0.58,0.22
		l-0.5,0.43l-0.14-0.29l-0.36-0.07l-0.43,0.22l0.22,0.29l-0.65,0.29v-0.22l0.29-0.14v-0.29h-0.14l-0.14,0.14l-0.58-0.22v-0.22h0.22
		l0.07,0.07l0.14-0.07v-0.29l-0.14-0.07l-0.07-0.29h-0.29l-0.22,0.07l-0.14-0.14h-0.07l-0.07,0.86l-0.14,0.58v0.58h-0.14v-0.29
		l-0.29-0.14L67.06,104.92z M64.83,105.79l-0.36-0.22l0.36,0.07V105.79z M65.63,104.85l0.14-0.07v0.07H65.63z M66.2,97.94l0.22-0.07
		l-0.07,0.07H66.2z M66.35,105.36h-0.07l0.07-0.14h0.14L66.35,105.36z M67.06,104.35v-0.14h-0.22v0.29L67.06,104.35z M67.71,97.87
		l-0.58,0.22l-0.07-0.14l0.07-0.07H67.71z M67.71,104.49H67.5l0.22-0.36V104.49z M67.71,105.21l0.29-0.29v0.22L67.71,105.21z
		 M71.75,105.86l0.22-0.43v0.22L71.75,105.86z M77.72,102.19l0.43-0.22v-0.36h-0.29l-0.36,0.43l-0.43,0.07v0.07H77.72z M80.96,99.45
		v-0.14h0.07L80.96,99.45z M81.75,98.95l-0.22,0.22l-0.36-0.22l0.58-0.07V98.95z M81.97,89.8l-0.14-0.14h0.29L81.97,89.8z
		 M82.62,93.19l-0.14,0.14v-0.14l0.22-0.14L82.62,93.19z"/>
</g>
<g>
	<g>
		<defs>
			<rect id="SVGID_00000009567465798868451600000007123603157725111950_" x="41.72" y="86.81" width="282.82" height="222.14"/>
		</defs>
		<clipPath id="SVGID_00000133492130340778928500000007636770654337069747_">
			<use xlink:href="#SVGID_00000009567465798868451600000007123603157725111950_"  style="overflow:visible;"/>
		</clipPath>
		<g style="clip-path:url(#SVGID_00000133492130340778928500000007636770654337069747_);">
			<path class="st1" d="M185.35,160.04h1.17V280.7c0,2.43,0.48,4.84,1.41,7.08c0.93,2.25,2.3,4.28,4.02,6
				c1.72,1.72,3.77,3.08,6.02,4.01c2.25,0.93,4.66,1.41,7.1,1.41h67.89c2.44,0,4.85-0.48,7.1-1.41s4.29-2.29,6.02-4.01
				c1.72-1.72,3.09-3.76,4.02-6c0.93-2.24,1.41-4.65,1.41-7.08V105.32c0-2.43-0.48-4.84-1.41-7.08c-0.93-2.24-2.3-4.28-4.02-6
				c-1.72-1.72-3.77-3.08-6.02-4.01c-2.25-0.93-4.66-1.41-7.1-1.41h-67.89c-4.92,0-9.64,1.95-13.11,5.42
				c-3.48,3.47-5.43,8.18-5.43,13.08v31.97h-1.17V160.04z"/>
			<path class="st2" d="M199.16,93.12c-1.68,0.69-3.21,1.71-4.49,3s-2.31,2.81-3,4.48c-0.7,1.68-1.05,3.47-1.05,5.29v175.12
				c0,3.67,1.46,7.18,4.06,9.77c2.6,2.59,6.12,4.05,9.79,4.05h68.22c1.82,0,3.62-0.36,5.3-1.05c1.68-0.7,3.21-1.71,4.49-3
				c1.29-1.28,2.31-2.81,3-4.48c0.7-1.68,1.05-3.47,1.05-5.29V105.88c0-3.66-1.46-7.18-4.06-9.77c-2.6-2.59-6.12-4.05-9.79-4.05
				h-8.28c0.41,1,0.56,2.08,0.45,3.15c-0.11,1.07-0.48,2.1-1.08,2.99c-0.6,0.89-1.41,1.63-2.37,2.13c-0.95,0.51-2.01,0.77-3.09,0.77
				h-38.89c-1.08,0-2.14-0.26-3.09-0.77c-0.95-0.51-1.77-1.24-2.37-2.13c-0.6-0.89-0.97-1.92-1.08-2.99
				c-0.11-1.07,0.05-2.15,0.45-3.15h-8.86C202.64,92.06,200.84,92.42,199.16,93.12z M205.95,172.41c0-0.95,0.38-1.86,1.05-2.53
				c0.67-0.67,1.58-1.05,2.53-1.05h17.34c0.95,0,1.86,0.38,2.53,1.05c0.67,0.67,1.05,1.58,1.05,2.53v0.89
				c0,0.95-0.38,1.86-1.05,2.53c-0.67,0.67-1.58,1.05-2.53,1.05h-17.34c-0.95,0-1.86-0.38-2.53-1.05c-0.67-0.67-1.05-1.58-1.05-2.53
				V172.41z M204.01,156.6c0-0.95,0.38-1.86,1.05-2.53c0.67-0.67,1.58-1.05,2.53-1.05h62.18c0.95,0,1.86,0.38,2.53,1.05
				c0.67,0.67,1.05,1.58,1.05,2.53v0.89c0,0.95-0.38,1.86-1.05,2.53c-0.67,0.67-1.58,1.05-2.53,1.05h-62.18
				c-0.95,0-1.86-0.38-2.53-1.05c-0.67-0.67-1.05-1.58-1.05-2.53V156.6z M204.01,140.8c0-0.95,0.38-1.86,1.05-2.53
				c0.67-0.67,1.58-1.05,2.53-1.05h62.18c0.95,0,1.86,0.38,2.53,1.05c0.67,0.67,1.05,1.58,1.05,2.53v0.89
				c0,0.95-0.38,1.86-1.05,2.53c-0.67,0.67-1.58,1.05-2.53,1.05h-62.18c-0.95,0-1.86-0.38-2.53-1.05c-0.67-0.67-1.05-1.58-1.05-2.53
				V140.8z M204.01,124.99c0-0.95,0.38-1.86,1.05-2.53c0.67-0.67,1.58-1.05,2.53-1.05h62.18c0.95,0,1.86,0.38,2.53,1.05
				c0.67,0.67,1.05,1.58,1.05,2.53v0.89c0,0.95-0.38,1.86-1.05,2.53c-0.67,0.67-1.58,1.05-2.53,1.05h-62.18
				c-0.95,0-1.86-0.38-2.53-1.05c-0.67-0.67-1.05-1.58-1.05-2.53V124.99z"/>
			<path class="st2" d="M270.52,157.2c0-1.15-0.94-2.09-2.09-2.09c-1.16,0-2.09,0.93-2.09,2.09c0,1.15,0.94,2.09,2.09,2.09
				C269.59,159.29,270.52,158.35,270.52,157.2z"/>
			<path class="st2" d="M263.65,157.2c0-1.15-0.94-2.09-2.09-2.09c-1.16,0-2.09,0.93-2.09,2.09c0,1.15,0.94,2.09,2.09,2.09
				C262.71,159.29,263.65,158.35,263.65,157.2z"/>
			<path class="st2" d="M256.77,157.2c0-1.15-0.94-2.09-2.09-2.09c-1.16,0-2.09,0.93-2.09,2.09c0,1.15,0.94,2.09,2.09,2.09
				C255.83,159.29,256.77,158.35,256.77,157.2z"/>
			<path class="st2" d="M249.9,157.2c0-1.15-0.94-2.09-2.09-2.09c-1.16,0-2.09,0.93-2.09,2.09c0,1.15,0.94,2.09,2.09,2.09
				C248.96,159.29,249.9,158.35,249.9,157.2z"/>
			<path class="st2" d="M227.47,173.01c0-1.15-0.94-2.09-2.09-2.09c-1.16,0-2.09,0.93-2.09,2.09c0,1.15,0.94,2.09,2.09,2.09
				C226.54,175.09,227.47,174.16,227.47,173.01z"/>
			<path class="st2" d="M220.6,173.01c0-1.15-0.94-2.09-2.09-2.09c-1.16,0-2.09,0.93-2.09,2.09c0,1.15,0.94,2.09,2.09,2.09
				C219.66,175.09,220.6,174.16,220.6,173.01z"/>
			<path class="st2" d="M213.72,173.01c0-1.15-0.94-2.09-2.09-2.09c-1.16,0-2.09,0.93-2.09,2.09c0,1.15,0.94,2.09,2.09,2.09
				C212.79,175.09,213.72,174.16,213.72,173.01z"/>
			<path class="st4" d="M199.08,201.89c-1.18,1.18-1.84,2.77-1.84,4.43v34.47c0,1.66,0.66,3.26,1.84,4.43
				c1.18,1.18,2.78,1.84,4.44,1.84h70.92c1.67,0,3.26-0.66,4.44-1.84c1.18-1.17,1.84-2.77,1.84-4.43v-34.47
				c0-1.66-0.66-3.26-1.84-4.43c-1.18-1.18-2.78-1.84-4.44-1.84h-70.92C201.86,200.06,200.26,200.72,199.08,201.89z M276.55,204.4
				l-0.11,0.34c-0.04,0.14-1.1,3.33-3.85,4.98c-1.42,0.8-3.04,1.21-4.67,1.17c-0.52,0-1.03-0.03-1.54-0.11l-0.36-0.06l0.11-0.34
				c0.04-0.14,1.1-3.33,3.85-4.98c2.75-1.65,6.07-1.09,6.21-1.06L276.55,204.4z M258.34,235.32c-0.65-0.65-1.02-1.53-1.02-2.45
				c0-0.92,0.37-1.8,1.02-2.45c0.65-0.65,1.54-1.02,2.46-1.02h12.65c0.92,0,1.81,0.37,2.46,1.02c0.65,0.65,1.02,1.53,1.02,2.45
				c0,0.92-0.37,1.8-1.02,2.45c-0.65,0.65-1.54,1.02-2.46,1.02H260.8C259.88,236.34,259,235.97,258.34,235.32z M203.25,230.03
				c0-1,0.4-1.96,1.11-2.67c0.71-0.71,1.68-1.11,2.68-1.11h9.49c1.01,0,1.97,0.4,2.68,1.11c0.71,0.71,1.11,1.67,1.11,2.67v5.68
				c0,1-0.4,1.96-1.11,2.67c-0.71,0.71-1.67,1.11-2.68,1.11h-9.49c-1.01,0-1.97-0.4-2.68-1.11c-0.71-0.71-1.11-1.67-1.11-2.67
				V230.03z"/>
			<path class="st1" d="M212.75,234.84c-0.19,0.19-0.3,0.45-0.3,0.72c0,0.27,0.11,0.53,0.3,0.72c0.19,0.19,0.45,0.3,0.73,0.3h3.81
				c0.27,0,0.53-0.11,0.73-0.3c0.19-0.19,0.3-0.45,0.3-0.72c0-0.27-0.11-0.53-0.3-0.72s-0.45-0.3-0.73-0.3h-3.81
				C213.2,234.54,212.94,234.64,212.75,234.84z"/>
			<path class="st1" d="M205.71,234.84c-0.19,0.19-0.3,0.45-0.3,0.72c0,0.27,0.11,0.53,0.3,0.72c0.19,0.19,0.45,0.3,0.73,0.3h3.81
				c0.27,0,0.53-0.11,0.73-0.3c0.19-0.19,0.3-0.45,0.3-0.72c0-0.27-0.11-0.53-0.3-0.72s-0.45-0.3-0.73-0.3h-3.81
				C206.16,234.54,205.9,234.64,205.71,234.84z"/>
			<path class="st1" d="M212.75,231.94c-0.19,0.19-0.3,0.45-0.3,0.72s0.11,0.53,0.3,0.72c0.19,0.19,0.45,0.3,0.73,0.3h3.81
				c0.27,0,0.53-0.11,0.73-0.3s0.3-0.45,0.3-0.72s-0.11-0.53-0.3-0.72c-0.19-0.19-0.45-0.3-0.73-0.3h-3.81
				C213.2,231.64,212.94,231.75,212.75,231.94z"/>
			<path class="st1" d="M205.71,231.94c-0.19,0.19-0.3,0.45-0.3,0.72s0.11,0.53,0.3,0.72c0.19,0.19,0.45,0.3,0.73,0.3h3.81
				c0.27,0,0.53-0.11,0.73-0.3c0.19-0.19,0.3-0.45,0.3-0.72s-0.11-0.53-0.3-0.72c-0.19-0.19-0.45-0.3-0.73-0.3h-3.81
				C206.16,231.64,205.9,231.75,205.71,231.94z"/>
			<path class="st1" d="M212.75,229.11c-0.19,0.19-0.3,0.45-0.3,0.72c0,0.27,0.11,0.53,0.3,0.72c0.19,0.19,0.45,0.3,0.73,0.3h3.81
				c0.27,0,0.53-0.11,0.73-0.3s0.3-0.45,0.3-0.72c0-0.27-0.11-0.53-0.3-0.72s-0.45-0.3-0.73-0.3h-3.81
				C213.2,228.81,212.94,228.92,212.75,229.11z"/>
			<path class="st1" d="M205.71,229.11c-0.19,0.19-0.3,0.45-0.3,0.72c0,0.27,0.11,0.53,0.3,0.72c0.19,0.19,0.45,0.3,0.73,0.3h3.81
				c0.27,0,0.53-0.11,0.73-0.3c0.19-0.19,0.3-0.45,0.3-0.72c0-0.27-0.11-0.53-0.3-0.72c-0.19-0.19-0.45-0.3-0.73-0.3h-3.81
				C206.16,228.81,205.9,228.92,205.71,229.11z"/>
			<path class="st20" d="M108.79,289.22h5.98l-1.93,15.59h-4.05L108.79,289.22z"/>
			<path class="st7" d="M119.21,305.09c0.92,0.92,1.44,2.17,1.44,3.47h-12.73v-4.91h7.81C117.04,303.65,118.29,304.17,119.21,305.09
				z"/>
			<path class="st20" d="M88.64,289.22h5.98l-1.93,15.59h-4.05V289.22z"/>
			<path class="st7" d="M99.06,305.09c0.92,0.92,1.44,2.17,1.44,3.47H87.77v-4.91h7.81C96.89,303.65,98.14,304.17,99.06,305.09z"/>
			<path class="st20" d="M127.05,250.53c-0.85,0.22-1.74,0.12-2.52-0.27c-0.78-0.4-1.38-1.06-1.7-1.87
				c-0.32-0.81-0.33-1.71-0.03-2.53l-15.72-36.18l6.77-3.69l13.77,37.86c0.47,0.21,0.9,0.52,1.24,0.91
				c0.34,0.39,0.59,0.85,0.73,1.35c0.14,0.5,0.17,1.02,0.09,1.53c-0.08,0.51-0.28,1-0.57,1.43
				C128.63,249.79,127.89,250.31,127.05,250.53z"/>
			<path class="st20" d="M88.21,256.59c-0.86-0.17-1.62-0.65-2.14-1.35c-0.53-0.7-0.78-1.56-0.71-2.43
				c0.07-0.87,0.46-1.68,1.09-2.28l1.77-39.39l7.71-0.35l-4.27,40.05c0.33,0.4,0.57,0.86,0.71,1.36c0.13,0.5,0.16,1.02,0.07,1.53
				c-0.09,0.51-0.29,0.99-0.59,1.42c-0.3,0.42-0.69,0.78-1.14,1.03C89.96,256.62,89.07,256.77,88.21,256.59z"/>
			<path class="st20" d="M111.12,190.88c0-4.47-3.63-8.09-8.11-8.09c-4.48,0-8.11,3.62-8.11,8.09c0,4.47,3.63,8.09,8.11,8.09
				C107.49,198.98,111.12,195.35,111.12,190.88z"/>
			<path class="st17" d="M88.24,213.69c-0.11-1.44,0.11-2.88,0.65-4.22c0.54-1.34,1.39-2.53,2.47-3.49
				c7.37-6.39,16.1-3.76,20.65-1.62c0.87,0.41,1.56,1.13,1.93,2.02c0.37,0.89,0.4,1.88,0.08,2.79c-3.18,9.23,1.13,37.43,1.18,37.72
				l0.03,0.19H90.76L88.24,213.69z"/>
			<path class="st17" d="M107.42,210.44c-0.3-1.18-0.12-2.44,0.5-3.49s1.64-1.81,2.82-2.12c1.19-0.3,2.44-0.13,3.5,0.49
				c1.06,0.62,1.82,1.63,2.13,2.81l5.16,12.2l-11.01,2.23L107.42,210.44z"/>
			<path class="st17" d="M85.48,224.13l2.49-14.15c0.5-2.87,2.96-4.84,5.47-4.4c2.51,0.44,4.15,3.13,3.64,5.98l-0.66,15.14
				L85.48,224.13z"/>
			<path class="st7" d="M115.03,246.91c2.85,12.29,1.12,30.97-0.66,52.73l-5.95,0.33l-5.29-40.21l-9.58,39.55l-5.29,0.66
				c-1.06-20.74-0.63-39.75,3.3-54.71L115.03,246.91z"/>
			<path class="st7" d="M94.26,192.19c-0.81-2.69-0.65-5.78,0.96-8.08c1.33-1.89,3.46-3.05,5.62-3.89c1.9-0.74,3.91-1.28,5.94-1.16
				c2.03,0.13,4.09,1.01,5.26,2.67c0.96,1.36,1.05,3.6-0.41,4.4c-1.31,0.72-3.41,0.07-4.11,1.39c-0.54,1,0.29,2.41-0.41,3.3
				c-1.14,1.46-3.97-0.87-5.18,0.74c-0.15,0.21-0.25,0.45-0.28,0.71c-0.13,1.03,0.43,1.91,0.53,2.89c0.02,0.17,0.02,0.34,0,0.51
				c-0.2,2.2-3.01,3.06-4.52,1.45C96.43,195.82,94.75,193.83,94.26,192.19z"/>
			<path class="st1" d="M41.81,308.85c-0.06-0.06-0.1-0.15-0.1-0.23c0-0.09,0.03-0.17,0.1-0.23c0.06-0.06,0.15-0.1,0.23-0.1h125.87
				c0.09,0,0.17,0.04,0.23,0.1c0.06,0.06,0.1,0.15,0.1,0.23c0,0.09-0.04,0.17-0.1,0.23s-0.15,0.1-0.23,0.1H42.05
				C41.96,308.95,41.88,308.92,41.81,308.85z"/>
		</g>
	</g>
</g>
</svg>
