<?xml version="1.0" encoding="utf-8"?>
<!-- Generator: Adobe Illustrator 27.8.1, SVG Export Plug-In . SVG Version: 6.00 Build 0)  -->
<svg version="1.1" id="Capa_1" xmlns="http://www.w3.org/2000/svg" xmlns:xlink="http://www.w3.org/1999/xlink" x="0px" y="0px"
	 viewBox="0 0 500 163.15" style="enable-background:new 0 0 500 163.15;" xml:space="preserve">
<style type="text/css">
	.st0{fill:#D1D700;}
</style>
<g>
	<g>
		<g>
			<path class="st0" d="M289.26,92.27c-0.14,0.65-0.55,1.19-0.91,1.21c0,0,0,0-0.23,0.13c-1.29,0.72-2.69,1.25-4.11,1.78
				c-0.47,0.18-0.47,0.18-0.47,0.18c-0.47,0.28-1.37,0.74-2.01,1.02c-0.64,0.28-2.2,0.96-2.77,1.18c-0.58,0.23-1.85,1.15-2.15,1.2
				c-0.3,0.06-1.43,0.87-2.4,1.19s-3.21,1.77-3.49,1.77c-0.28,0-1.07,0.48-1.31,0.69c-0.23,0.22-1.17,0.79-1.46,0.9
				c-0.29,0.12-1.42,0.62-1.85,0.89c-0.43,0.27-2.08,1.31-2.8,1.62c-0.72,0.31-2.96,1.21-3.3,1.52c0,0,0,0-0.22,0.07
				c-0.85,0.27-0.85,0.27-0.85,0.27c-0.76,0.51-2.33,1.44-3.49,2.05c0,0,0,0-1.06,0.59c-0.49,0.27-0.98,0.58-1.52,0.77
				c-1.07,0.37-1.07,0.37-1.07,0.37c-1.06,0.71-2.14,1.23-2.41,1.15s-1.01,0.65-1.23,0.88c-0.22,0.23-1.22,0.71-1.57,0.76
				c-0.35,0.04-1.67,0.38-2.49,0.39c0,0,0,0-0.03,0.89c-0.01,0.19-0.78,0.41-1.24,0.51c-0.13,0.03-0.13,0.03-0.13,0.03
				c-0.29-0.04-0.97,0.37-1.5,0.92c-0.53,0.54-3.06,1.41-3.54,1.7c-0.49,0.28-1.47,1.35-1.55,1.18s-0.37-0.25-0.53,0.1
				c-0.16,0.35-1.34,0.66-1.32,0.79c0.02,0.12-0.17,0.35-0.46,0.24c0,0,0,0-0.28-0.07c-0.09-0.02-0.27,0.02-0.33,0.08
				c-0.31,0.32-0.54,0.87-0.91,0.93c-0.56,0.1-0.56,0.1-0.56,0.1c-0.47,0.23-1.36,0.69-1.97,1.01c-0.61,0.33-3.2,1.77-4.35,2.56
				c0,0,0,0-1.1,0.67c-0.24,0.14-0.49,0.3-0.77,0.35c-0.37,0.07-0.81-0.03-1.15,0.09c-0.19,0.07-0.18,0.46-0.37,0.62
				c-0.22,0.19-0.22,0.19-0.22,0.19c-0.32,0.16-0.69,0.45-0.83,0.64c0,0,0,0-0.14,0.01c-0.54,0.03-0.54,0.03-0.54,0.03
				c-0.33,0.33-0.75,0.81-0.95,1.07c-0.2,0.26-1.43-0.06-1.83,0.08c0,0,0,0-0.05,0.19c-0.16,0.67-0.16,0.67-0.16,0.67
				c-0.68,0.18-1.39,0.48-1.56,0.66c-0.18,0.18-1.1,0.42-1.6,0.49c0,0,0,0-0.18,0.56c-0.18,0.56-0.18,0.56-0.18,0.56
				c-0.7,0.36-1.33,0.65-1.39,0.64s-0.37-0.16-0.56-0.25c-0.19-0.09-0.85,0.57-1.09,0.8c-0.24,0.24-1.69,1.03-2.55,1.43
				c0,0,0,0-0.68,0.52c-0.7,0.53-0.7,0.53-0.7,0.53c-1,0.37-2.12,0.94-2.5,1.27c-0.37,0.33-1.91,0.62-1.99,0.76
				c-0.08,0.14-1.42,1.03-2.68,1.74c0,0,0,0-1.14,0.3c-0.35,0.09-0.89,0.02-1.07,0.2c-0.57,0.56-0.57,0.56-0.57,0.56
				c-0.74,0.49-1.75,0.63-2.24,0.33c0,0,0,0-0.26,0.75c-0.11,0.33-0.11,0.33-0.11,0.33c-0.48,0.27-1.09,0.56-1.35,0.65
				c-0.26,0.09-1.75,0.51-2.71,0.79c-0.96,0.27-3.64,1.77-4.19,2.06c0,0,0,0-0.55,0.16c-2.16,0.61-2.16,0.61-2.16,0.61
				c-2.26,0.88-4.78,1.76-5.59,1.96c-0.81,0.2-2.99,0.79-3.08,0.72c-0.09-0.07-0.55-0.11-0.83-0.08c-0.27,0.03-1.15-0.02-1.19-0.19
				c-0.04-0.17-0.52-0.69-0.9-0.53c-0.39,0.16-1.33,0.28-1.29-0.07c0.03-0.35-1.27,0.12-1.73-0.06s-1.8-0.4-1.94-0.1
				c0,0,0,0-0.24,0.04c-1.35,0.23-1.35,0.23-1.35,0.23c-1.52,0.07-2.83,0.11-2.89,0.08c-0.07-0.02-0.43-0.32-0.69-0.57
				c-0.27-0.25-2.09-0.32-3.22-1.04c0,0,0,0-0.08-0.86c-0.01-0.13,0.53-1.89,0.6-2c0.13-0.22,0.13-0.22,0.13-0.22
				c0.12-0.24,0.28-0.74,0.36-1.1c0.08-0.36,0.07-1.5-0.18-1.75c-0.25-0.25-1.26-0.1-1.26-0.64c0-0.54-0.48-2.03-1.07-2.24
				c-0.59-0.22-1.61-1.67-2.39-1.84c0,0,0,0,0.44-0.91c0.22-0.45,0.22-0.45,0.22-0.45c-0.1-0.6-0.36-1.74-0.58-2.52
				c-0.22-0.79-1.77-4-2.44-5.63c0,0,0,0-0.72-1.44c-0.07-0.14-0.07-0.14-0.07-0.14c0.14-0.22,0.33-0.92,0.43-1.55
				c0.1-0.63-0.44-2.3-0.45-2.37s0.12-0.35,0.27-0.61s0.22-1.16-0.17-1.3c-0.39-0.13-1.36,1.08-2.05,1.46s-3.67,2.07-5.16,2.87
				c-1.49,0.8-5.51,3.27-5.88,3.41c-0.37,0.14-2.15,1.02-3.23,1.54c-1.07,0.52-4.05,2.4-4.63,2.66c-0.58,0.26-2.43,1.44-3.04,1.68
				c-0.61,0.24-2.47,1.04-2.78,1.2c-0.31,0.17-1.64,0.85-2.27,1.14c-0.63,0.29-2.99,1.11-3.69,1.37s-2.86,1.11-3.28,1.28
				c-0.41,0.17-2.47-0.38-2.64-0.44c-0.16-0.06-0.64,0.14-0.4,0.22s0.67,0.5,0.36,0.74c0,0,0,0-0.12,0.02
				C111.7,139,111.7,139,111.7,139c-1,0.1-1.94,0.16-2.09,0.14c-0.15-0.02-1.11-0.27-1.83-0.47c-0.72-0.2-2.69-0.79-2.6-1.56
				c0,0,0,0-0.93-0.51c-0.57-0.31-0.57-0.31-0.57-0.31c-0.42-0.68-0.59-1.17-0.37-1.1s0.95,0.13,0.97-0.09
				c0.02-0.22-0.09-0.79-0.29-0.77c0,0,0,0-0.07,0.05c-0.48,0.35-0.48,0.35-0.48,0.35c-0.53-0.18-1.56-0.86-2.27-1.52
				c0,0,0,0-0.5-0.68c-0.19-0.25-0.19-0.25-0.19-0.25c0.14-0.44,0.02-0.88-0.26-0.96c-0.28-0.09,0.15-0.73,0.15-0.8
				c0-0.07-0.63-0.46-1.37-0.85c0,0,0,0,0.1-0.77c0.07-0.48-0.1-0.86-0.58-1.17c-0.35-0.23-0.35-0.23-0.35-0.23
				c-0.46-0.4-0.44-0.81,0.06-0.91c0.5-0.1,1.63-0.77,1.83-1.05c0.2-0.27,1.03-0.78,1.56-0.69c0,0,0,0,0.28-0.13
				c0.47-0.22,0.78-0.64,1.21-0.92c0.28-0.19,0.28-0.19,0.28-0.19c0.38-0.13,1.42-0.36,2.32-0.51c0,0,0,0,0.06-1.22
				c0.01-0.25,0.01-0.25,0.01-0.25c-0.01-0.24,0.24-0.32,0.54-0.17s1.14-0.28,1.04-0.95c0,0,0,0,1.16,0.01
				c0.19,0,0.45-0.34,0.56-0.56c0.06-0.11,0.06-0.11,0.06-0.11c-0.16-0.19-0.36-0.3-0.45-0.23c-0.09,0.07-0.53-0.01-0.38-0.6
				c0,0,0,0,0.18-0.36c0.09-0.17,0.26-0.38,0.68-0.14c0.3,0.17,0.3,0.17,0.3,0.17c0.5-0.05,1.58-0.5,2.39-0.99c0,0,0,0-0.03-0.83
				c-0.01-0.16-0.01-0.16-0.01-0.16c0.01-0.18,0.14-0.43,0.31-0.54c0.16-0.11,0.68-0.25,0.71,0c0,0,0,0,0.1,0.25
				c0.06,0.14,0.26,0.32,0.42,0.33c0.17,0.01,0.48-0.14,0.5-0.25c0.1-0.57,0.1-0.57,0.1-0.57c0.44-0.47,0.83-0.96,0.87-1.09
				c0,0,0,0,0-0.12c0-0.57,0-0.57,0-0.57c0.62-0.3,1.28-0.61,1.45-0.69c0.18-0.08,0.85-0.18,1.1-0.19c0.24-0.01,0.15-0.53,0.01-0.62
				c-0.15-0.09-0.71-0.81-0.29-1.1c0.42-0.29,2.03-0.2,2.17-0.52s1.49-0.88,1.82-1.2c0,0,0,0,0.38-0.22
				c0.48-0.27,0.56-0.53,0.06-0.85c-0.03-0.02,0.2-0.45,0.4-0.52c0.54-0.18,0.54-0.18,0.54-0.18c0.7-0.13,1.32-0.06,1.37,0.16
				s0.43,0.28,0.72-0.36c0,0,0,0-0.59-0.61c-0.3-0.31-0.3-0.31-0.3-0.31c0.48,0.03,1.51-0.28,2.31-0.68c0,0,0,0,0.26-0.67
				c0.06-0.16,0.06-0.16,0.06-0.16c-0.43-0.29-0.59-0.64-0.37-0.76c0.22-0.12,0.7-0.65,0.35-0.77c0,0,0,0-0.12,0.06
				c-0.76,0.41-0.76,0.41-0.76,0.41c-0.81,0.47-1.68,1.11-1.94,1.43c-0.26,0.32-1.36,0.71-1.42,0.58c-0.06-0.13-0.42-0.4-0.61-0.16
				c-0.19,0.24-0.72,0.76-0.81,0.7c-0.09-0.06-0.06,0.18,0.27,0.68s-1.62,0.89-1.54,0.7c0.08-0.19,0.24-0.79,0.13-0.77
				c-0.12,0.02-1.39,0.67-2.73,1.39c-1.34,0.72-5.92,3.35-7.24,4.18c0,0,0,0-1.28,0.66c-1.14,0.59-1.14,0.59-1.14,0.59
				c-1.17,0.73-2.93,1.73-3.92,2.23c0,0,0,0-0.72,0.7c-0.73,0.7-0.73,0.7-0.73,0.7c-1.05,0.6-2.36,1.31-2.92,1.56
				c-0.55,0.26-2.3,1.38-3,1.68s-3.53,2.04-5.01,2.89c0,0,0,0-1.32,0.77c-0.63,0.37-0.63,0.37-0.63,0.37
				c-0.67,0.14-1.68,0.78-2.25,1.43c0,0,0,0-0.49-0.01c-1.51-0.04-1.51-0.04-1.51-0.04c-1.05,0.76-2.52,1.6-3.27,1.87
				c-0.75,0.27-2.87,1.72-3.54,1.87c-0.66,0.14-2.13,1.7-2.68,2.07c-0.54,0.37-2.66,0.76-2.96,0.91c0,0,0,0-0.14,0.21
				c-0.52,0.78-0.52,0.78-0.52,0.78c-1,0.37-2.34,0.85-2.98,1.07c-0.64,0.22-2.5,1.35-2.97,1.61c0,0,0,0-0.45,0.21
				c-0.25,0.12-0.57,0.15-0.8,0.29c-0.74,0.44-1.38,1.13-2.19,1.3c-0.82,0.18-0.82,0.18-0.82,0.18c-0.78,0.32-2.12,0.84-2.98,1.15
				s-3.44,0.01-3.63,0.15s-1.04,0.43-1.42,0.27s-1.79-0.66-2.31-0.9c-0.51-0.25-2.6,0.9-3.82,1.16c0,0,0,0-1.19,0.05
				c-0.99,0.04-0.99,0.04-0.99,0.04c-0.92-0.27-2.02-1.01-2.44-1.64c0,0,0,0,0.12-0.44c0.21-0.77,0.21-0.77,0.21-0.77
				c0.23-0.85,0.44-1.86,0.46-2.25c0.02-0.39-1.3-0.89-1.43-0.97c-0.13-0.08-0.74-0.34-1.02-0.49s-0.45-1.16-0.44-1.51
				s-0.12-1.27-0.27-1.35c0,0,0,0-0.05,0.01c-0.48,0.09-0.48,0.09-0.48,0.09c-0.52,0.12-0.83-0.06-0.68-0.4c0,0,0,0-0.46-0.38
				c-0.48-0.4-0.48-0.4-0.48-0.4c-0.22-0.67-0.89-2.39-1.49-3.83c0,0,0,0-0.62-1.28c-0.22-0.44-0.22-0.44-0.22-0.44
				c-0.44-0.41-1.03-1.05-1.32-1.42c-0.29-0.37-1.05-1.8-1.17-2.33c0,0,0,0-0.16-0.47c-0.14-0.41-0.56-0.69-0.48-1.22
				c0.06-0.37,0.06-0.37,0.06-0.37c-0.35-0.46-0.71-0.94-0.8-1.08c0,0,0,0,0.04-0.09c0.23-0.49,0.23-0.49,0.23-0.49
				c0.03-0.57,0.03-1.3,0-1.62c-0.03-0.32,0.55-1.78,0.89-2.9c0,0,0,0,0.97-0.77c0.18-0.14-0.07-0.62,0.11-0.78
				c0.27-0.26,0.27-0.26,0.27-0.26c0.47-0.17,0.78-0.37,0.7-0.45s-0.05-0.3,0.27-0.32c0.31-0.03,0.58-1.1,0.79-1.51
				c0.21-0.41,0.5-1.12,0.28-1.45c0,0,0,0,0.45-0.23c0.27-0.14,0.27-0.14,0.27-0.14c0.06-0.23,0.22-0.5,0.36-0.6c0,0,0,0,0.14-0.08
				c0.49-0.3,0.49-0.3,0.49-0.3c-0.29-0.4-0.09-0.86,0.45-1.03c0.54-0.17,1.04-1.54,1.21-1.93c0.16-0.39,1.31-1.05,1.7-1.19
				c0,0,0,0-0.48-0.39c-0.09-0.07,0.05-0.49,0.1-0.49c1.04-0.05,1.04-0.05,1.04-0.05c0.14-0.68,0.56-1.63,0.92-2.1
				s1.07-1.9,1.26-1.83c0.19,0.07,0.94-0.06,1.32-0.41c0.38-0.35,1.31-1.5,1.1-1.62c-0.22-0.13-1.03-0.46-1.12-0.33
				s-0.63,0.26-0.84-0.22c0,0,0,0-0.25-0.1c-0.32-0.13-0.32-0.13-0.32-0.13c-0.47,0.05-1.21,0.15-1.65,0.22
				c-0.44,0.07-2.01-0.55-2.76-0.6c-0.75-0.05-3.05,0.52-3.42,0.62c-0.38,0.1-1.37-1.09-0.56-2.1c0,0,0,0-1.02-1.13
				c-0.22-0.24-0.22-0.24-0.22-0.24c0.1-0.48-0.01-0.89-0.25-0.92s-0.85-0.13-0.9-0.19c-0.05-0.06-0.09-0.42-0.1-0.67
				c-0.01-0.25,0.03-1.13,0.07-1.41c0.03-0.28-0.86-0.9-0.85-1.28c0,0,0,0-0.22-0.15c-0.31-0.21-0.84-0.19-1.26-0.31
				c-0.34-0.1-0.34-0.1-0.34-0.1c-0.41-0.2-0.72-0.92-0.69-1.59s-1.33-2.23-1.37-2.35c0,0,0,0,0.05-0.06
				c0.97-1.05,0.97-1.05,0.97-1.05c-1.04-0.5-2.37-1.33-2.95-1.85c0,0,0,0-0.08-0.62C26.5,77.6,26.5,77.6,26.5,77.6
				c0.04-0.87-0.06-1.54-0.22-1.48c-0.16,0.06-0.54-0.08-0.58-0.4c0,0,0,0,0.12-0.05c0.39-0.17,1.52-0.15,0.05-0.46
				c-0.07-0.01-0.16-0.07-0.17-0.12c-0.16-1.12-0.28-2.25,0.51-3.26c0.17-0.21,0.58-0.29,0.82-0.47c0.29-0.22,0.81-0.65,0.75-0.72
				c-0.69-0.82,0.52-0.27,0.6-0.57c0.11-0.4,0.27-0.85,0.59-1.15c0.59-0.54,1.29-1.01,2-1.46c0.43-0.27,0.43-0.27,0.43-0.27
				c0.24-0.4,1.09-1.43,1.87-2.29c0,0,0,0,1.43,0.21c0.12,0.02,0.12,0.02,0.12,0.02c0.18-0.18,0.52-0.56,0.76-0.84
				s1.14-0.72,1.27-1.02s1.5-0.29,1.94-0.55c0.44-0.25,1.12-1.1,1.58-0.71c0,0,0,0,0.46-0.59c0.03-0.04,0.03-0.04,0.03-0.04
				c-0.34-0.27-0.31-0.5,0.06-0.5s1.17-0.28,1.08-0.63c0,0,0,0,0.1-0.19c0.28-0.51,0.28-0.51,0.28-0.51
				c0.62,0.03,1.16-0.13,1.19-0.36c0.03-0.23,0.69-0.74,1.13-0.97c0.44-0.22,2.02-0.53,2.52-0.66c0.5-0.13,1.44-0.99,1.68-1.05
				c0.24-0.06,1.02-0.14,1.01-0.49c0,0,0,0,0.03-0.24c0.01-0.11,0.01-0.11,0.01-0.11c0.09-0.12,0.88-0.26,1.75-0.32c0,0,0,0,0-0.08
				c0-0.81,0-0.81,0-0.81c0.78-0.13,1.9-0.54,2.49-0.92c0,0,0,0,0.57-0.3c0.35-0.19,0.35-0.19,0.35-0.19
				c0.47,0.01,1.19-0.16,1.59-0.38c0,0,0,0,0.39-0.17c0.45-0.2,0.93-0.37,1.37-0.59c0.39-0.19,0.71-0.46,1.11-0.63
				c0.25-0.11,0.58-0.1,0.88-0.14c0.88-0.11,1.68-0.26,2.06-1.08c0.15-0.33,0.61-0.61,1-0.81c0.16-0.08,0.4,0.52,0.84,0.08
				c0.36-0.35,0.36-0.35,0.36-0.35c0.51-0.3,1.28-0.32,1.72-0.05c0,0,0,0,0.35-0.51c0.1-0.15,0.22-0.29,0.33-0.43
				c0.07-0.1,0.07-0.1,0.07-0.1c0.07-0.12,0.45-0.23,0.84-0.25s1.38-0.61,1.69-0.54s0.99-0.53,1.31-0.44c0,0,0,0,0.3-0.17
				c0.11-0.07,0.36-0.03,0.41-0.1c0.96-1.31,0.96-1.31,0.96-1.31c1.77-0.69,3.4-1.36,3.62-1.49c0.22-0.13,1.24-0.35,1.82-0.56
				c0.58-0.2,1.9-1.1,2.15-0.96s1.15,0.43,1.58-0.03c0,0,0,0,0.53-0.18c0.52-0.18,0.52-0.18,0.52-0.18c0.76,0.08,1.29,0,1.17-0.18
				s0.02-0.73,0.65-0.74c0,0,0,0,0.29-0.19c0.4-0.26,0.4-0.26,0.4-0.26c0.26,0.16,1.01,0,1.67-0.37c0,0,0,0,0.61-0.32
				c0.19-0.1,0.19-0.1,0.19-0.1c0.34,0.06,0.49,0.22,0.34,0.37c0,0,0,0-0.1,0.15c-0.01,0.02,0.2,0.21,0.29,0.2
				c0.21-0.02,0.21-0.02,0.21-0.02c0.21-0.08,0.51-0.6,0.67-1.14c0,0,0,0,0.72-0.21c1.24-0.37,2.69-0.39,3.63-1.32
				c0.06-0.06,0.31-0.02,0.46-0.01c0.54,0.06,0.54,0.06,0.54,0.06c0.59,0.07,1.26,0.02,1.5-0.12c0.24-0.14,1.37-0.51,1.97-0.68
				c0.6-0.17,2.06-0.77,2.28-0.63s0.9,0.47,0.92,0.31c0.03-0.16,0.67-0.35,1.24-0.38c0.58-0.03,2.4-0.6,2.89-0.74
				s1.71,0.53,1.86,0.51c0.15-0.02,1.24,0.52,2.06,1.03s4.3-0.32,5.36-0.57c0,0,0,0,1.11,0.25c0.85,0.19,0.85,0.19,0.85,0.19
				c1.08-0.21,2.19-0.42,2.47-0.45s1.29,0.3,1.57,0.18s1.05-0.19,1.05,0.15s1.26-0.07,1.47-0.12c0,0,0,0,0.12,0.06
				c0.79,0.37,0.79,0.37,0.79,0.37c0.74,0.52,1.64,1.2,1.99,1.51c0.35,0.31,1.54,0.81,1.43,0.92c-0.11,0.11-0.05,0.74,0.32,1.24
				c0,0,0,0,0.31,0.47c0.65,0.99,0.65,0.99,0.65,0.99c1.19,0.82,1.95,1.65,1.71,1.85c-0.25,0.2-0.63,0.94-0.26,1.16
				c0,0,0,0,0.37,0.09c0.09,0.02,0.09,0.02,0.09,0.02c0.27-0.37,0.83-0.41,1.25-0.1c0,0,0,0,0.32,0.32
				c0.11,0.11,0.04,0.34,0.06,0.52c0.04,0.37-1.23-0.18-0.61,0.54c0.41,0.47,0.02,0.65-0.25,0.96c-0.24,0.29-0.24,0.29-0.24,0.29
				c-0.18,0.46-0.05,1.02,0.3,1.26s0.5,1.38,0.6,1.52c0.09,0.14,1.06,1.46,1.91,2.62c0,0,0,0-0.2,1.32
				c-0.11,0.72-0.05,1.39,0.84,1.86c0.28,0.15,0.28,0.15,0.28,0.15c0.15,0.34,0.38,0.84,0.5,1.12c0.12,0.28,1.47,0.67,1.94,0.8
				c0,0,0,0,0.07,0.21c0.22,0.64,0.54,0.65,1.12,0.32c0.07-0.04,0.29,0.04,0.4,0.11c0.19,0.12,0.19,0.12,0.19,0.12
				c0.24,0.21,0.28,0.44,0.09,0.52c-0.19,0.08-0.51,0.59-0.3,0.96c0,0,0,0,0.12,0.24c0.13,0.28,0.13,0.28,0.13,0.28
				c0.12,0.31,0.26,0.67,0.3,0.8c0.04,0.13-0.45,1.26-0.97,2.45c0,0,0,0-1.18,0.83c-0.6,0.42-0.6,0.42-0.6,0.42
				c-0.27,0.83-0.64,1.73-0.81,2.01c-0.17,0.28-1.5,1.28-1.98,1.89c0,0,0,0-0.59,0.16c-1,0.27,0.08,0.52-0.12,0.71
				c-0.27,0.24-0.54,0.47-0.84,0.69c-0.75,0.53-0.75,0.53-0.75,0.53c-0.83,0.58-1.72,1.32-1.98,1.64c-0.26,0.32-1.34,1.1-1.23,1.42
				c0.11,0.32-1.46,0.84-2.03,1.25c0,0,0,0-0.48,0.42c-0.54,0.47-0.54,0.47-0.54,0.47c-0.82,0.65-1.12,1.13-0.67,1.07
				c0.45-0.06,2.31-0.91,3.74-1.55c0,0,0,0,1.41-0.38c0.78-0.21,0.78-0.21,0.78-0.21c-0.05-0.59-0.05-1.18-0.01-1.3
				c0,0,0,0,0.08-0.02c0.14-0.04,0.4-0.06,0.45,0c0.16,0.2,0.16,0.2,0.16,0.2c0.16,0.35,0.52,0.37,0.81,0.05c0,0,0,0,0.23-0.25
				c0.12-0.13,0.27-0.39,0.37-0.37c1.17,0.13,1.17,0.13,1.17,0.13c0.59-0.72,1.26-1.57,1.51-1.89s2.03-0.51,2.68-0.89
				c0,0,0,0,0.76-0.1c0.34-0.05,0.68-0.25,0.95-0.45c0.06-0.04,0.06-0.04,0.06-0.04c-0.17-0.27-0.14-0.48,0.07-0.47
				c0.21,0.01,1-0.1,1.15-0.27c0.15-0.16,0.78-0.95,0.96-1.31c0,0,0,0,0.74,0.16c0.36,0.08,1.04-0.48,1.4-0.86
				c0.31-0.33,0.31-0.33,0.31-0.33c0.41-0.24,0.84-0.46,0.94-0.49c0.1-0.03,0.56-0.06,0.94-0.13c0.37-0.07,1.58-0.67,2-1.06
				c0,0,0,0,0.28-0.42c0.29-0.44,0.77,0.75,0.89-0.08c0.13-0.88,0.63,0.05,0.79-0.13c0.36-0.37,0.36-0.37,0.36-0.37
				c0.27,0.23,0.55,0.16,0.61-0.16c0,0,0,0,0.18-0.23c0.12-0.16,0.12-0.16,0.12-0.16c0.31-0.08,1.02-0.18,1.58-0.23
				c0.56-0.05,1.91-1.04,2.27-1.42c0,0,0,0,0.39-0.3c0.08-0.06,0.08-0.06,0.08-0.06c0.37,0.15,0.7,0.11,0.74-0.08
				s0.33-0.86,0.48-0.62c0.15,0.24,0.7,0.5,1.03,0.3c0.33-0.2,0.91-0.6,1.01-0.99c0,0,0,0,0.69,0.05c0.47,0.04,0.47,0.04,0.47,0.04
				c0.52-0.24,1.15-0.74,1.4-1.1c0,0,0,0,0.56-0.15c0.28-0.07,0.41-0.29,0.7-0.01c0.11,0.11,0.11,0.11,0.11,0.11
				c0.28,0.01,0.86-0.29,1.28-0.68c0,0,0,0,0.68-0.14c0.61-0.13,0.61-0.13,0.61-0.13c0.57-0.44,1.68-1.04,2.47-1.33
				c0.78-0.29,3.58-0.86,4.38-1c0,0,0,0,0.58-0.51c0.62-0.55,0.62-0.55,0.62-0.55c0.98-0.18,1.92-0.02,2.09,0.34
				c0.17,0.36,0.65,1.3,0.71,1.28c0.06-0.01,0.18-0.23,0.12-0.44c-0.06-0.21-0.29-1.02-0.33-1.34c0,0,0,0,1.06-0.59
				c0.87-0.49,2.27-0.21,2.71-1.26c0.02-0.04,0.37-0.07,0.46-0.01c0.78,0.56,0.67,0.95-0.38,1.46c-0.03,0.02-0.03,0.02-0.03,0.02
				c0,0.06,0.84,0,1.87-0.14c0,0,0,0,0.46-0.15c0.47-0.16,1.04-0.26,1.54-0.2c0.82,0.1,0.82,0.1,0.82,0.1
				c0.16-0.53,0.4-0.81,0.54-0.63c0.13,0.19,0.68,0.71,0.76,0.52s0.16-1.13,0.17-1.88c0,0,0,0,1.4-1.04
				c0.23-0.17,0.23-0.17,0.23-0.17c0.24-0.2,0.54-0.07,0.67,0.3c0.13,0.37,1.28,1.04,1.92,0.71c0.65-0.33,2.76-0.6,2.76-0.84
				s-0.16-0.97-0.36-0.63s-1.32,0.27-1.41,0.1c0,0,0,0,0.02-0.17c0.03-0.26-0.29-0.95,0.65-0.39c0.15,0.09,0.15,0.09,0.15,0.09
				c0.76-0.51,1.46-0.65,1.55-0.31c0,0,0,0,0.02,0.22c0.03,0.25,0.03,0.25,0.03,0.25c-0.01,0.32,0.16,0.58,0.38,0.58
				c0.22,0,0.93-0.34,1.08-0.75s0.9-1.57,1.19-1.27s1.39,0.83,1.79,0.49c0,0,0,0,0.38-0.17c0.5-0.23,0.5-0.23,0.5-0.23
				c0.61-0.17,1.49-0.35,1.95-0.42c0,0,0,0,0.45,0.09c0.62,0.12,1.22-0.02,1.71-0.38c0.19-0.14,0.38-0.29,0.57-0.43
				c0,0,1.38-0.89,1.38-0.89c0.27-0.09,0.27-0.09,0.27-0.09c0.3-0.1,1.24-0.37,2.09-0.6c0.85-0.23,3.26-0.82,3.92-0.9
				c0.66-0.08,2.69-0.15,3.01-0.08s0.39,0.92-0.13,1.11c-0.52,0.19-0.82,1.47-0.56,1.29c0.26-0.18,1.21-0.2,1.69,0.25
				c0,0,0,0,0.49,0.31c0.45,0.28,0.45,0.28,0.45,0.28c0.64,0.16,1.6,0.62,2.15,1.02c0,0,0,0-0.89,0.5c-0.18,0.1-0.18,0.1-0.18,0.1
				c0.08,0.69,0.33,1.03,0.54,0.76c0.21-0.27,0.76-0.66,0.67-0.19c-0.08,0.48-0.68,1.26-0.24,1.32c0.44,0.06,1.84-0.13,2.35-0.23
				c0.51-0.1,0.86-1.22,1.08-1.04s0.92,0.26,1.28-0.05s1.7-0.85,2.03-0.87c0.33-0.02,0.95-0.63,1.31-0.55c0,0,0,0,0.33,0.05
				c0.21,0.03,0.21,0.03,0.21,0.03c0.24-0.01,0.37-0.13,0.3-0.26c-0.08-0.14,0.34-0.48,0.9-0.75s2.37-0.97,2.7-1.11
				c0.33-0.14,0.59-1,0.65-1.07s0.43-0.12,0.64,0.03c0,0,0,0,0.17,0.16c0.1,0.09,0.1,0.09,0.1,0.09c0.08,0.15,0.5-0.26,0.93-0.89
				c0,0,0,0,0.43-0.55c0.1-0.13,0.38-0.26,0.54-0.23c0.89,0.12,0.89,0.12,0.89,0.12c0.62-0.47,1.39-1.06,1.72-1.3c0,0,0,0,0.41,0.01
				c0.56,0.02,0.56,0.02,0.56,0.02c0.51-0.2,1.06-0.43,1.22-0.52c0.16-0.09,0.21-0.68,0.6-0.94c0,0,0,0,0.41-0.09
				c0.51-0.12,1.07-0.1,1.61-0.11c0.37-0.01-0.3-1.04,0.7-0.46c0.08,0.04,0.56-0.37,0.85-0.57c0.19-0.14,0.36-0.31,0.57-0.42
				c0.44-0.22,0.92-0.38,1.35-0.61c0.38-0.2,0.38-0.2,0.38-0.2c0.44,0.01,1.16-0.26,1.59-0.61c0,0,0,0,0.39-0.32
				c0.39-0.32,0.39-0.32,0.39-0.32c0.33-0.27,0.82-0.48,1.08-0.46c0.26,0.02,0.67-0.19,0.44-0.47c0,0,0,0,0.46-0.31
				c0.54-0.36,0.78-0.03,1.19,0.14c0.2,0.08,0.2,0.08,0.2,0.08c0.41-0.23,1.09-0.68,1.52-1.01c0,0,0,0,0.6,0.48
				c0.22,0.18,0.45-0.06,0.16-0.57c-0.12-0.21-0.12-0.21-0.12-0.21c0.09-0.11,0.72-0.45,1.4-0.74c0,0,0,0,0.7-0.09
				c0.14-0.02,0.17-0.62,0.82-0.65c0.28-0.01,0.28-0.01,0.28-0.01c0.31,0,1.2-0.08,1.97-0.18s1.91-1.83,2.47-1.95
				c0.56-0.12,2.52-0.51,3.1-0.84c0.57-0.33,1.39-0.71,1.54-0.58s0.76,0.39,0.9,0.22c0,0,0,0-0.04-0.1
				c-0.08-0.21-0.08-0.21-0.08-0.21c-0.18-0.21-0.09-0.51,0.2-0.67c0.29-0.15,1.24-0.29,2.05-0.36c0,0,0,0,0.7-0.11
				c0.42-0.07,0.42-0.07,0.42-0.07c0.39-0.21,1.79,0.27,3.1,1.08c0,0,0,0,1.2,0.75c0.2,0.13,0.2,0.13,0.2,0.13
				c0.18,0.18,0.73,0.46,1.22,0.62s1.92-0.23,2.68-0.48c0,0,0,0,0.73,0.31c0.81,0.35,1.59,0.72,2.57,0.58
				c0.26-0.04,2.36,1.12,2.69,1.27c0.25,0.12,0.66,0,0.94,0.1c0.34,0.12,0.58,0.49,0.91,0.53c0.79,0.1,0.51,0.56,0.49,0.88
				c-0.01,0.21-0.01,0.21-0.01,0.21c-0.24,0.22-0.54,0.68-0.67,1.02c-0.13,0.34,1.14,1.4,0.92,1.53c-0.22,0.13-0.59,0.84-0.4,1.33
				c0.18,0.49,1.59,1.31,1.4,1.61c-0.18,0.3-0.54,1.18-0.39,1.3s0.41,0.54,0.33,0.73c-0.08,0.19-0.27,0.77-0.37,0.86
				c-0.1,0.09-0.62,0.13-0.81,0.37c0,0,0,0,0.07,0.09c0.36,0.46,0.36,0.46,0.36,0.46c0.47,0.46,0.91,0.8,0.98,0.74
				s0.51-0.18,0.49,0.06c-0.02,0.24-0.17,0.82-0.22,0.88s-0.12,0.46,0.01,0.79s0.39,1.86,0.59,2.63c0,0,0,0,0.54,0.65
				c0.29,0.35,0.29,0.35,0.29,0.35c-0.13,0.63,0.31,1.36,0.97,1.61c0,0,0,0,0.58,0.25c0.13,0.06,0.13,0.06,0.13,0.06
				c0.5,0.42,0.71,0.88,0.46,1.01s-0.38,0.62-0.34,0.99c0.04,0.37-0.84,1.79-1.09,2.56c0,0,0,0-1.2,0c-0.27,0-0.27,0-0.27,0
				c-0.36,0.4-0.23,0.96,0.29,1.25c0,0,0,0,0.41,0.2c0.19,0.09,0.19,0.07,0.41-0.44c0.09-0.2,0.29-0.51,0.46-0.53
				c1.02-0.08,1.67-1.44,2.95-0.58l2.2-1.23c0.09-0.08,0.09-0.08,0.09-0.08c0.1-0.09,0.53-0.24,0.95-0.32
				c0.43-0.08,1.44-0.67,1.61-0.84c0.16-0.16,1.69-0.21,2.22-0.62c0,0,0,0,0.46-0.36c0,0,2.03-0.39,2.03-0.39
				c0.36,0.43,0.36,0.43,0.36,0.43c0.37-0.25,1.08-0.75,1.58-1.11c0.5-0.36,2.07-1.75,2.29-2.36c0,0,0,0,0.92,0.6
				c0.55,0.36,1.42-0.2,1.96,0.4c0.07,0.08,0.07,0.08,0.07,0.08c0.37-0.1,1.08-0.53,1.57-0.95c0,0,0,0,0.73-0.24
				c2.17-0.72,2.57-1,3.55-0.56c0.89,0.39,0.89,0.39,0.89,0.39c1.01-0.05,1.74-0.27,1.61-0.49s0.14-0.99,0.8-1.37
				c0.66-0.38,3.11-1.24,3.35-1.3c0,0,0,0,0.27,0.17c0.34,0.21,0.77,0.23,0.81-0.25c0.04-0.52,0.54-0.5,0.83-0.39
				c1.18,0.46,1.18,0.46,1.18,0.46c1.24-0.23,2.26-0.7,2.26-1.05c0-0.35,1.72-0.75,2.79-0.94c0,0,0,0,0.82-0.39
				c0.5-0.24,1.11-0.32,1.69-0.42c0.48-0.09,0.48-0.09,0.48-0.09c0.4-0.36,0.85-0.5,1-0.3s0.67,0.69,0.84,0.63c0,0,0,0,0.09-0.07
				c0.46-0.36,0.46-0.36,0.46-0.36c0.48-0.41,1.29-0.51,1.8-0.22c0,0,0,0,0.33-0.69c0.05-0.1,0.71-0.04,1.07,0.01
				c0.21,0.03,0.21,0.03,0.21,0.03c0.21,0.01,0.76-0.15,1.21-0.35c0.45-0.2,2.31-0.16,3.21,0.01c0,0,0,0,0.64-0.66
				c0.23-0.24,0.39-0.3,0.7-0.04c0.13,0.11,0.13,0.11,0.13,0.11c0.36-0.07,0.94-0.25,1.29-0.4c0.35-0.15,2.05-0.2,2.72-0.44
				c0,0,0,0,0.18,0.14c0.77,0.6,0.77,0.6,0.77,0.6c0.54-0.42,1.45-0.95,2.04-1.17c0,0,0,0,0.55-0.17c0.08-0.02,0.22,0.06,0.33,0.11
				c1.09,0.53,1.17,0.59,1.61,0.2c0.56-0.5,0.56-0.5,0.56-0.5c0.54,0.25,1.19,0.51,1.45,0.59c0.25,0.08,0.84-0.63,1.04-0.87
				c0,0,0,0,0.18,0c0.63,0.02,0.33,0.46,0.41,0.73c0.03,0.12,0.03,0.12,0.03,0.12c0.05,0.1,0.89-0.18,1.85-0.63c0,0,0,0,0.9-0.37
				c1.01-0.42,0.63-0.25,1.15,0.68c0.49,0.87,0.49,0.87,0.49,0.87c-0.61-0.03-0.78,0.21-0.38,0.53c0,0,0,0,0.27-0.05
				c0.45-0.08,1.1-0.69,1.2-0.62c0.5,0.34,1.08,0.44,1.48,0.15c0.49-0.36,0.59-0.02,0.89,0.1c0.12,0.05,0.12,0.05,0.12,0.05
				c0.26-0.17,0.19-0.45-0.16-0.63c0,0,0,0,0.59-0.14c0.15-0.04,0.52,0.2,0.59,0.36c0.12,0.28,0.14,0.51,0.49,0.16
				c0.08-0.08,0.08-0.08,0.08-0.08c-0.04-0.27,0.66-0.31,1.55-0.09c0.89,0.22,2.46,1.7,2.19,1.87s-0.56,0.93-0.25,1.25
				c0.31,0.32,1.41,1.07,1.78,0.96s1.34-0.53,1.34-0.71s0.59-0.56,1.3-0.44c0,0,0,0-0.77,0.78c-0.38,0.39-0.38,0.39-0.38,0.39
				c0.54,0.5,1.16,1.02,1.38,1.16c0.22,0.14-0.6,0.94-0.78,0.8s-0.65-0.45-0.69-0.38c-0.04,0.07-0.06,0.41-0.06,0.76
				c0,0.35,1.65,0.84,2.31,1.18c0,0,0,0-0.77,0.73c-0.19,0.18-0.19,0.18-0.19,0.18c0.39,0.58,0.94,1.19,1.22,1.36
				s0.45,0.92,0.71,1.1c0.26,0.18-0.4,0.91-0.53,1.07c-0.13,0.15-0.09,0.68,0.07,0.59c0,0,0,0,0.13-0.09
				c0.18-0.13,0.18-0.13,0.18-0.13c0.25-0.21,0.62-0.19,0.82,0.04c0.2,0.23,0.41,1.02,0.12,1.33c-0.29,0.31-1.66,0.58-2.14,0.58
				c-0.48,0-1.91,0.22-1.91,0.5c0,0.27-0.22,0.98-0.5,0.89c0,0,0,0,0-0.02c0.12-0.54,0.12-0.54,0.12-0.54
				c0.06-0.63-0.13-1.14-0.41-1.14s-1,0.04-0.99,0.1c0.02,0.05,0.17,0.45,0.28,0.74c0.11,0.29-1.32,0.88-1.09,0.67
				c0,0,0,0,0.01-0.12c0.02-0.35,0.14-0.91-0.06-1.01c-0.61-0.3-0.57,0.24-0.83,0.52c-0.33,0.37-0.93,0.61-1.46,0.83
				c-0.2,0.09-0.53-0.01-0.8-0.04c-0.28-0.04-0.28-0.04-0.28-0.04c-0.28-0.07-1.21,0.2-2.07,0.59c0,0,0,0-0.71,0.42
				c-0.3,0.18-1.22,0.34-0.39,0.91c0,0,0,0,0,0c-0.12,0.12-0.79,0.37-1.49,0.55c-0.69,0.18-1.98,1.5-2.12,1.56
				c-0.15,0.06-0.96-0.1-1.73-0.27c0,0,0,0-0.29,0.69c-0.29,0.69-0.29,0.69-0.29,0.69c-0.61-0.12-1.19-0.07-1.28,0.1
				c-0.09,0.18-0.54,0.71-0.7,0.8c0,0,0,0-0.11-0.02c-1.46-0.26-2.56,0.34-3.13,1.26c-0.36,0.58-0.36,0.58-0.36,0.58
				c-0.59,0.28-1.14,0.39-1.22,0.25c-0.08-0.14-1.12-0.28-2.12-0.01c0,0,0,0-0.89,0.27c-0.17,0.05-0.17,0.05-0.17,0.05
				c-0.13,0.16-0.55,0.68-0.93,1.15s-0.8,1.67-0.71,1.32c0.08-0.35-0.39-1.17-0.77-1.01c-0.37,0.15-1.01,1.35-1.16,0.98
				c0,0,0,0-0.23-0.11c-0.38-0.17-0.71-0.07-0.77,0.39c-0.02,0.13-0.43,0.31-0.66,0.31c-1.44,0.01-1.44,0.01-1.44,0.01
				c-0.92,0.86-2.49,1.92-3.49,2.37c0,0,0,0-1.04,0.16c-0.03,0.01-0.08,0.32-0.01,0.36c0.58,0.32,0.38,0.57-0.05,0.84
				c-0.19,0.12-0.31,0.34-0.52,0.39c-0.24,0.07-0.24,0.07-0.24,0.07c-0.31-0.03-0.5-0.33-0.42-0.66c0,0,0,0,0.08,0
				c0.7-0.01,0.7-0.01,0.7-0.01c-0.1-0.42-0.42-0.66-0.7-0.55s-1.08,0.62-1.26,0.76c-0.18,0.14-0.89-0.15-1.07-0.09
				c-0.17,0.06-1.57,0.81-2.73,1.46c0,0,0,0-1.04,0.61c-0.35,0.2-0.35,0.2-0.35,0.2c-0.38-0.09-0.82-0.08-0.98,0.03
				c-0.16,0.11-0.22,0.4,0.21,0.41c0.43,0.02,1.59,0.08,1.71,0.29c0.12,0.2,0.31,0.96,0.03,1.04c0,0,0,0-0.22,0.1
				c-0.2,0.09-0.2,0.09-0.2,0.09c-0.21,0.15-0.45,0.16-0.53,0.02s-0.7-0.15-1.15,0.37c0,0,0,0-0.33,0.48
				c-0.08,0.12,0.07,0.34,0.12,0.52c0.04,0.14,0.04,0.14,0.04,0.14c0.06,0.15-0.11,0.29-0.38,0.3c0,0,0,0-0.15-0.09
				c-0.36-0.2-0.8-0.34-1.09-0.29c-0.15,0.03-0.15,0.03-0.15,0.03c-0.18-0.01-0.62-0.08-0.98-0.14c-0.36-0.06-0.89-0.96-1.58-1.07
				c0,0,0,0-0.5,0.16c-1.02,0.32-1.02,0.32-1.02,0.32c-0.67,0.84-1.42,1.18-1.68,0.75c0,0,0,0-0.18,0
				c-0.32,0.01-0.75,0.22-0.92,0.46c-0.29,0.4-0.29,0.4-0.29,0.4c-0.17,0.52-0.24,1.15-0.16,1.4c0,0,0,0,0.08,0
				c0.48-0.01,0.48-0.01,0.48-0.01c0.12,0.29,0.15,0.69,0.06,0.87c-0.08,0.18-0.58,0.66-0.8,0.44c-0.22-0.22-0.61-0.97-0.85-1.27
				c0,0,0,0-0.48-0.01c-0.24-0.01-0.24-0.01-0.24-0.01c-0.06-0.2-0.11-0.42-0.1-0.49c0.01-0.07-0.25-0.23-0.59-0.19c0,0,0,0,0,0.06
				c-0.09,1.05-0.09,1.05-0.09,1.05c-1.08,0.07-1.78,0.38-1.56,0.68c0.22,0.3,1.47,0.47,1.56,0.76c0.08,0.29,0.07,1.23-0.26,1.3
				s-1.18-1.26-1.69-1.83c0,0,0,0-0.96,0.82c-0.21,0.18-0.21,0.18-0.21,0.18c-0.4,0.12-0.59,0.26-0.41,0.32
				c0.18,0.06,0.25,0.39-0.2,0.62s0.12,1.4-0.22,1.67c0,0,0,0-0.22-0.05c-0.48-0.1-0.48-0.1-0.48-0.1c-0.6-0.34-1.04-0.44-0.97-0.24
				c0.07,0.21,0.07,0.8-0.16,0.83c-0.24,0.04-0.95,0.38-0.73,0.62c0.22,0.24,0.43,1.02-0.11,1.08c0,0,0,0-0.25-0.14
				c-0.3-0.17-0.3-0.17-0.3-0.17c-0.03-0.43-0.11-0.92-0.18-1.09c-0.07-0.17,0.1-0.99,0.56-1.41c0.46-0.42,0.18-1.76-0.15-1.58
				c-0.33,0.18-1.07,0.87-0.98,1.19c0.09,0.31,0.03,1.04-0.29,0.9c-0.32-0.14-2.12,0.96-2.51,0.87c0,0,0,0-0.34-0.12
				c-0.33-0.11-0.33-0.11-0.33-0.11c-0.4-0.06-0.92-0.03-1.15,0.07c-0.23,0.1-0.4,1.02-0.45,1.4c0,0,0,0-0.06,0
				c-1,0.02-0.66,0.65-0.83,1.07c-0.09,0.23-0.09,0.23-0.09,0.23c-0.36,0.22-0.7,0.26-0.77,0.09c-0.07-0.17-0.44-0.43-0.67-0.19
				c-0.23,0.24-1.07,0.81-1.4,0.78c-0.34-0.03-0.16,0.78-0.05,0.87s0.21,0.49,0.26,0.72s1.15,0.55,1.4,0.68s0.4,0.83-0.22,1.23
				c0,0,0,0-0.62-0.76c-0.22-0.27-0.22-0.27-0.22-0.27c-0.5-0.15-0.98-0.28-1.06-0.27c-0.08,0.01-0.8,0.16-1.4,0.33
				c0,0,0,0,0.1,0.69c0.06,0.45,0.06,0.45,0.06,0.45c-0.33-0.21-0.97-0.46-1.43-0.55c0,0,0,0-0.05,0.55
				c-0.02,0.22-0.15,0.45-0.3,0.64c-0.04,0.04-0.04,0.04-0.04,0.04c-0.31-0.11-0.6-0.35-0.64-0.54c-0.04-0.19,0.24-0.89,0.47-1.17
				c0,0,0,0,0.26-0.22c0.08-0.07,0.36,0.02,0.44-0.04c0.14-0.12,0.29-0.31,0.26-0.45c-0.02-0.12-0.28-0.28-0.45-0.3
				c-0.45-0.04-0.45-0.04-0.45-0.04c-0.58,0.02-0.97,0.23-0.86,0.48c0.11,0.25-0.66,0.58-1.13,0.55c0,0,0,0-0.43-0.05
				c-0.01,0,0.02-0.13,0-0.18c-0.33-0.74-0.33-0.74-0.33-0.74c-0.83-0.23-1.72-0.35-1.98-0.28c0,0,0,0-0.04,0.12
				c-0.05,0.14,0.05,0.39,0.2,0.49c1.06,0.8,1.06,0.8,1.06,0.8c0.35,0.72,0.8,1.42,1,1.55c0,0,0,0,0.17-0.02
				c0.15-0.01,0.34-0.2,0.4-0.34c0.1-0.24,0.1-0.24,0.1-0.24c0.08-0.49,0.7,0.13,1.4,1.37c0,0,0,0,1.02,0.68
				c0.34,0.22,0.71,0.23,0.85-0.23c0.04-0.14,0.04-0.14,0.04-0.14c0.14-0.13,0.44-0.31,0.67-0.4c0.23-0.09,0.95-0.06,1.05-0.27
				c0.1-0.21,0.68-0.44,1.08-0.05s1.15,1.37,0.79,1.32s-1.27,0.82-1.88,1.02c0,0,0,0-0.46,0.32c-0.05,0.03-0.05,0.03-0.05,0.03
				c-0.21-0.07-0.31-0.27-0.22-0.43c0.08-0.16,0.13-0.62-0.1-0.62c-0.23,0-0.62,0.47-0.54,1.05c0,0,0,0-0.18,0.44
				c-0.17,0.42-0.17,0.42-0.17,0.42c0.2,0.07,0.19,0.34-0.02,0.59c-0.22,0.25-1.16,0.52-1.71,0.18c0,0,0,0-0.42,0.04
				c-0.92,0.09-0.57-0.63-0.99-0.81c-0.61-0.25-0.63-0.26-0.4-0.45c0.44-0.34,0.71-0.87,1.62-0.4c0.37,0.19,0.37,0.19,0.37,0.19
				c0.28-0.65-0.01-1.2-0.66-1.21c-0.64-0.02-2.2,0.64-2.81,1.03c0,0,0,0-0.19,0.46c-0.16,0.37-0.16,0.37-0.16,0.37
				c0.27,0.52,0.64,1.12,0.82,1.34s-0.61,0.83-1.42,0.6c0,0,0,0-0.74-0.22c-0.03-0.01-0.03-0.01-0.03-0.01
				c-0.19-0.85-0.3-1.56-0.26-1.58c0,0,0,0-0.26,0.36c-0.41,0.57-0.29,0.57,0.35,0.76c0.27,0.08,0.56,0.39,0.87,0.25
				c0.18-0.08,0.18-0.08,0.18-0.08c0.03-0.3-0.05-0.9-0.19-1.33c-0.14-0.43,0.03-1.48-0.28-1.34c0,0,0,0-0.23,0.04
				c-0.35,0.06-0.35,0.06-0.35,0.06c-0.1,0.72-0.24,1.71-0.31,2.19c-0.08,0.48-0.02,1.27,0.6,1.47c0,0,0,0,0.45,0.19
				c0.6,0.25,0.57,0.33-0.18,0.78c-0.11,0.06-0.11,0.06-0.11,0.06c-0.05,0.14-0.14,0.44-0.2,0.66s-0.4,0.64-0.62,0.63
				c-0.22-0.02-1.09,0.24-1.46,0.62c0,0,0,0-0.61-0.04c-0.46-0.03-0.46-0.03-0.46-0.03c-0.17,0.27-0.55,0.7-0.84,0.95
				c-0.29,0.25-1.47,0.54-1.83,0.51c-0.35-0.03-0.79-0.73-0.61-0.82s0.59-0.61,0.25-0.77c0,0,0,0-0.24-0.15
				c-0.34-0.22-0.54-0.48-0.15-0.79c0.31-0.25,0.31-0.25,0.31-0.25c0.46-0.06,1.19-0.02,1.62,0.09c0.43,0.11,1.29-1.09,1.39-1.2
				c0.11-0.11,1.01-0.43,1.51-0.63c0,0,0,0-0.55-0.44c-0.16-0.13-0.34-0.25-0.54-0.34c-0.18-0.08-0.18-0.08-0.18-0.08
				c-0.25-0.05-0.32-0.2-0.15-0.33c0.17-0.14,0.62-0.68,0.45-0.76c-0.17-0.07-0.83-0.01-1.11,0.28c-0.28,0.3-0.9,1.95-1.32,2.03
				c-0.41,0.08-1.63,0.18-1.51-0.01c0.12-0.18,0.29-0.83,0.25-1.06c0,0,0,0-0.14-0.06c-0.15-0.06-0.54,0.01-0.61,0.12
				c-0.28,0.42-0.28,0.42-0.28,0.42c-0.23,0.49-0.83,0.78-1.35,0.66c0,0,0,0-0.48-0.02c-0.11-0.01-0.33,0.35-0.35,0.55
				c-0.02,0.17-0.02,0.17-0.02,0.17c0.16,0.2,0.02,0.34-0.3,0.29c0,0,0,0-0.22-0.13c-0.32-0.18-0.32-0.18-0.32-0.18
				c-0.29-0.27-0.37-0.57-0.16-0.66c0.21-0.1,0.54-0.78,0.62-1.21c0,0,0,0-0.13-0.35c-0.14-0.37-0.14-0.37-0.14-0.37
				c0.18-0.3,0.33-0.59,0.32-0.66c-0.01-0.07,0.36-0.44,0.77-0.82c0.41-0.38,2.34-1.43,2.94-1.81c0.6-0.37,2.24-1.32,2.35-1.24
				c0,0,0,0-0.02,0.09c-0.09,0.39-0.09,0.39-0.09,0.39c-0.12,0.4-0.09,0.59,0.07,0.43c0.16-0.16,0.94-0.42,1.06-0.48
				c0.11-0.07,0.84-0.17,1.38-0.08c0,0,0,0,0-0.65c0-0.71,0-0.71,0-0.71c0.52-0.64,1.06-1.24,1.19-1.34
				c0.14-0.1,0.09-0.25-0.04-0.21c-0.13,0.04-0.81,0.06-1.16,0.1c-0.36,0.04-0.79,0.96-1.13,1.11c0,0,0,0-0.08-0.06
				C289.26,92.27,289.26,92.27,289.26,92.27z M286.3,98.76c-0.22,0.07-0.86,0.14-1.42,0.15c0,0,0,0-0.39-0.03
				c-0.65-0.05-0.65-0.05-0.65-0.05c-0.28,0.41-0.43,0.87-0.32,1.03c0.1,0.16,0.68,0.39,1.01,0.13c0.32-0.26,0.9-2.1,1.01-1.64
				S286.52,98.68,286.3,98.76z M129.19,101.87c-1.95,1.05-1.96,1.34-0.12,2.13C129.11,103.34,129.14,102.74,129.19,101.87z"/>
		</g>
		<g>
			<path class="st0" d="M257.96,136.18c-0.25-0.02-0.78-0.2-1.18-0.4s-1.73-0.67-2.1-0.6c-0.37,0.07-1.11,0.72-1.29,0.79
				c-0.17,0.06-1.83,0.51-1.94,0.86c0,0,0,0,0.33,0.05c0.13,0.02,0.34-0.41,0.55-0.6c0.27-0.25,0.27-0.25,0.27-0.25
				c0.33-0.25,0.41-0.6,0.16-0.77c-0.24-0.17-1.2,0.41-1.4,0.52c-0.2,0.12,0.45,0.64,0.67,0.91s0.43,0.7-0.62,0.57
				c-1.05-0.13-2.88-1.67-2.97-1.81c-0.09-0.14-0.68-0.42-1.04-0.36c0,0,0,0,0.24-0.46c0.25-0.48,0.25-0.48,0.25-0.48
				c0.26-0.61,0.2-1.13-0.13-1.14c0,0,0,0-0.29,0.02c-0.85,0.07-0.85,0.07-0.85,0.07c-0.33-0.54-1.02-2.12-1.54-3.5
				c0,0,0,0-0.49-1.25c-0.08-0.21-0.08-0.21-0.08-0.21c-0.13-0.14,0.07-0.48,0.45-0.76s1.22-1.12,1.03-1.28s0.69-0.66,1.06-0.81
				c0,0,0,0,0.32-0.14c0.05-0.02,0.05-0.02,0.05-0.02c0.03-0.07,0.11-0.4,0.19-0.74c0.08-0.33,1.01-1.32,1.25-1.61
				s0.74-1.19,0.66-1.34c0,0,0,0,0-0.14c0-0.41,0-0.41,0-0.41c0.49,0,1.49-0.08,2.22-0.17c0,0,0,0-0.04-0.46
				c-0.02-0.23-0.02-0.23-0.02-0.23c-0.54-0.29-0.76-0.6-0.49-0.7c0.27-0.1,1.08-0.31,1.22-0.39s0.11-0.51,0.36-0.65
				c0,0,0,0,0.18,0.03c0.37,0.06,0.37,0.06,0.37,0.06c0.52,0.03,0.73-0.24,0.47-0.6s-0.74-1.24-0.46-1.11
				c0.29,0.13,1.36,0.18,1.57-0.17c0,0,0,0,0.19-0.32c0.12-0.2,0.17-0.49,0.37-0.58c0.33-0.16,0.33-0.16,0.33-0.16
				c0.39-0.14,0.66-0.36,0.59-0.49s-0.03-0.59,0.43-0.36s1.2,0.93,0.8,1.11c0,0,0,0-0.09,0.25c-0.08,0.21-0.08,0.21-0.08,0.21
				c-0.32,0.2-1,0.75-1.51,1.21c0,0,0,0,0.12,0.49c0.04,0.15,0.17,0.38,0.32,0.41c0.18,0.04,0.18,0.04,0.18,0.04
				c0.24-0.11,0.91-0.36,1.49-0.56c0,0,0,0-0.07-0.63c-0.11-0.9-0.11-0.9-0.11-0.9c-0.8,0.14-1.54,0.23-1.65,0.2
				c-0.11-0.03,1.11,0.11,1.67,0.12c0.56,0.01,1.19,0.73,1.35,0.79c0.16,0.07,0.52,0.73,0.39,1.4c0,0,0,0-1.03,0.04
				c-0.06,0-0.06,0-0.06,0c-0.05,0.37-0.32,0.85-0.61,1.06c-0.28,0.21-1.68,0.36-2.02,0.32s-1.09,0.42-1.12,0.39
				c-0.03-0.03-0.13-0.23-0.15-0.4c-0.02-0.17-0.61-0.72-1.24-0.7c0,0,0,0-0.13,0.2c-0.35,0.52,0.29,0.53,0.71,0.66
				c0.12,0.04,0.12,0.04,0.12,0.04c0.03,0.26-0.2,0.54-0.52,0.63c0,0,0,0-0.23-0.06c-1.11-0.3-1.11-0.3-1.11-0.3
				c-0.24,0.64-0.29,1.18-0.11,1.19c0.18,0.01,0.77-0.07,0.96-0.12s1.27-0.24,1.96-0.31c0,0,0,0,0.86,0.83
				c0.48,0.47,0.91,0.84,0.47,1.48c-0.16,0.22-0.16,0.22-0.16,0.22c-0.08,0.29,0.37,0.24,1.02-0.09c0,0,0,0,0.21-0.43
				c0.12-0.24-0.27-0.65-0.43-0.98c-0.16-0.33-0.16-0.33-0.16-0.33c-0.17-0.37-0.04-0.59,0.31-0.5c0.35,0.09,1.08,0.46,1,0.65
				c-0.07,0.19-0.02,0.54,0.24,0.47c0.27-0.07,0.56-0.77,0.66-1.33c0.1-0.55-0.21-1.79,0.3-1.64c0.51,0.14,2.06,0.45,1.79,0.22
				c-0.27-0.23-0.19-0.9,0.47-1.22c0,0,0,0,0.32-0.44c0.32-0.43,0.32-0.43,0.32-0.43c0.43-0.4,0.38-0.73-0.11-0.73
				c-0.49,0-2.13-0.11-2.51-0.25s-1.06-0.82-0.91-0.87s0.42-0.51,0.24-0.92c-0.17-0.42-1.43-0.9-1.18-1
				c0.25-0.1,0.96-0.27,1.01-0.13c0,0,0,0,0.11,0.12c0.11,0.13,0.29,0.31,0.44,0.31c0.16,0.01,0.47-0.16,0.48-0.26
				c0.05-0.51,0.05-0.51,0.05-0.51c-0.02-0.53,0.06-1.04,0.16-1.14c0,0,0,0,0.05,0c0.06,0,0.11,0.08,0.17,0.13
				c0.06,0.05,0.15,0.14,0.16,0.13c0.34-0.19,0.69-0.39,1.01-0.6c0.5-0.32,0.5-0.32,0.5-0.32c-0.29-0.34-0.51-0.73-0.5-0.86
				c0,0,0,0,0.07-0.02c0.13-0.05,0.37-0.08,0.45-0.02c0.14,0.12,0.21,0.3,0.29,0.46c0.2,0.43,0.2,0.43,0.2,0.43
				c0.37-0.15,0.89-0.52,1.15-0.82c0.26-0.3,0.81-1.3,0.7-1.58c0,0,0,0-0.06-0.28c0-0.02,0.52-0.2,0.58-0.14
				c0.77,0.66,0.77,0.66,0.77,0.66c0.26-0.56,0.55-1.25,0.66-1.53c0.1-0.28,0.7-1,1.1-0.92c0.4,0.08,1.5,0.09,1.55-0.14
				c0.04-0.23,0.27-0.81,0.38-0.62c0.11,0.19,0.69,0.6,1.04,0.5c0,0,0,0,0.12-0.17c0.56-0.8,0.56-0.8,0.56-0.8
				c0.89,0.21,1.66,0.49,1.72,0.61c0.05,0.12,0.56,0.46,0.93,0.3s1.39-0.83,1.53-1.07c0,0,0,0-0.06-0.04
				c-0.21-0.14-0.21-0.14-0.21-0.14c-0.3-0.08-0.68-0.04-0.83,0.08c-0.16,0.12-0.86,0.2-1.14-0.33c0,0,0,0-0.41-0.21
				c-0.4-0.2-0.4-0.2-0.4-0.2c-0.97,0.03-1.23-0.03-0.59-0.12c0.64-0.09,0.94-1.17,1.09-1.17s0.49,0.07,0.42,0.15
				c-0.06,0.08-0.05,0.38,0.17,0.5c0.23,0.12,0.99,0.66,1.21,0.89c0,0,0,0,0.27-0.36c0.12-0.16,0.12-0.16,0.12-0.16
				c0.03-0.21-0.01-0.49-0.09-0.63c-0.08-0.14,0.38-0.66,0.57-0.82c0.19-0.15-0.01-1.2,0.24-1.21c0.25-0.02,1.05,0.14,0.93,0.41
				c-0.12,0.27-0.32,0.94-0.21,0.96s0.4-0.24,0.64-0.55c0.23-0.31,1.43-1.26,1.99-1.24c0,0,0,0,0.52,0.19
				c0.4,0.14,0.68,0.29,0.98-0.03c0.08-0.08,0.07-0.31-0.01-0.37c-0.25-0.19-0.25-0.19-0.25-0.19c-0.3-0.15-0.71-0.32-0.9-0.39
				c-0.19-0.06-0.39-0.33-0.02-0.53c0,0,0,0,0.19-0.25c0.08-0.1,0.08-0.1,0.08-0.1c-0.26-0.29,0.04-0.55,0.67-0.58
				c0.63-0.03,1.98-1,2.66-0.68c0,0,0,0-0.8,0.61c-0.15,0.12-0.52,0.22-0.65,0.15c-0.36-0.2-0.36-0.2-0.36-0.2
				c-0.32,0.13-0.8,0.62-1.08,1.09c0,0,0,0,0.68,0.54c0.82,0.65,0.82,0.65,0.82,0.65c-0.12,0.64-1.08,0.78-2.14,0.31
				c0,0,0,0-0.53,1.28c-0.02,0.05-0.3,0.01-0.44,0.05c-0.94,0.24-0.94,0.24-0.94,0.24c0.47,0.52,1.08,0.75,1.36,0.53
				c0.28-0.23,1.27-0.73,1.56-0.61s0.67,0.53,0.16,0.64c-0.51,0.1-1.13,1.97-1.26,2.37c0,0,0,0,0.01,0.36
				c0,0.23,0.19,0.53,0.42,0.66c0.15,0.09,0.15,0.09,0.15,0.09c0.33-0.11,0.79-0.54,1.04-0.95c0,0,0,0,0.5-0.22
				c0.21-0.09,0.53-0.33,0.5-0.45c-0.21-0.87-0.21-0.87-0.21-0.87c-0.09-0.93-0.06-1.71,0.07-1.73c0.13-0.02,0.57,0.09,0.69,0.27
				s0.49,0.74,0.56,0.85s0.55,0.3,0.9,0.2c0,0,0,0,0.1-0.18c0.36-0.64,0.36-0.64,0.36-0.64c0.41-0.95,1.05-1.4,1.42-1
				c0.37,0.4,0.26,1.63,0.06,1.63c-0.2,0.01-1.71,1.17-1.3,1.18c0,0,0,0,0.29-0.04c0.46-0.06,0.46-0.06,0.46-0.06
				c0.6-0.13,0.96-0.01,0.79,0.27s-0.71,0.98-0.76,0.82c-0.04-0.16-0.52-0.37-1.01-0.25c0,0,0,0-0.4,0.17
				c-0.06,0.03,0.1,0.41,0.18,0.63c0.07,0.21,0.07,0.21,0.07,0.21c0.14,0.33-0.1,0.52-0.53,0.41c-0.43-0.1-1.41,0.18-1.64,0.4
				c-0.24,0.22-1.36,0.85-1.92,0.78c-0.56-0.06-2.13,0.31-2.32,0.06c-0.19-0.24-0.48-1.02-0.12-1.06c0,0,0,0,0.2-0.06
				c0.26-0.07,0.53-0.15,0.72-0.3c0.06-0.05,0.06-0.05,0.06-0.05c-0.16-0.23-0.54-0.56-0.85-0.73c-0.31-0.17-0.96-0.71-0.88-0.9
				c0.08-0.18,0.05-0.68-0.34-0.46c-0.39,0.22-0.87,1.47-0.7,1.93c0,0,0,0,0.04,0.41c0.02,0.19,0.02,0.19,0.02,0.19
				c-0.02,0.2-0.23,0.47-0.46,0.61c0,0,0,0-0.06-0.04c-0.22-0.14-0.22-0.14-0.22-0.14c-0.17-0.2-0.33-0.52-0.36-0.69
				c-0.03-0.18-0.41-0.51-0.5-0.44c-0.09,0.08-0.44,0.34-0.56,0.42c-0.12,0.08-1.42,0.33-1.49,0.51c0,0,0,0,0.05,0.21
				c0.04,0.18,0.04,0.18,0.04,0.18c-0.14,0.22-0.32,0.36-0.4,0.3s-0.51-0.04-0.51,0.34s-0.38,1.33-0.85,1.38
				c-0.47,0.06-1.75-0.7-2.15-0.93c0,0,0,0-0.43,0.38c-0.05,0.04-0.05,0.04-0.05,0.04c-0.24-0.1-0.52-0.32-0.61-0.48
				s-0.49,0.38-0.24,0.86c0,0,0,0,0.67,0.11c0.65,0.11,1.3,0.25,1.94,0.39c0.09,0.02,0.09,0.02,0.09,0.02
				c0.02,0.06-0.12,0.27-0.31,0.46c-0.19,0.2-0.95,0.41-1.59,0.38c0,0,0,0-0.28,0.14c-0.26,0.13-0.26,0.13-0.26,0.13
				c-0.12,0.35-0.64,0.86-1.14,1.13c0,0,0,0-0.59-0.18c-0.1-0.03-0.1-0.03-0.1-0.03c-0.18-0.01-0.31,0.2-0.29,0.47
				s0.43,1.09,0.85,0.91s1.97-0.64,2.18-0.47c0.21,0.17,0.83,0.49,0.97,0.38s0.47-0.62,0.31-0.8s-0.55-0.77-0.43-0.82
				c0.12-0.05,0.7-0.07,1.28-0.06c0,0,0,0,0.51-0.1c0.84-0.17,0.84-0.17,0.84-0.17c-0.32,1.43-0.62,3.12-0.67,3.75
				s0.65,0.12,1.02-0.36c0.38-0.47,2.31-0.92,2.51-0.94c0,0,0,0,0.03-0.07c0.07-0.16,0.09-0.48,0.04-0.49
				c-0.35-0.09-0.79-0.03-1.08-0.18c-0.32-0.16-0.5-0.51-0.77-0.74c-0.04-0.03-0.43,0.12-0.43,0.18c0.01,0.37,0.01,0.37,0.01,0.37
				c-0.35,0.13-0.81,0.44-1.02,0.67c0,0,0,0,0.07,0.12c0.15,0.25,0.58,0.37,0.08,0.7c-0.55,0.36-0.55,0.36-0.55,0.36
				c0.1-0.42,0.36-1.32,0.58-2c0.22-0.68,0.89-1.78,1.3-2.1c0,0,0,0,0.43-0.25c0.1-0.06,0.35,0.04,0.45-0.02
				c0.2-0.11,0.34-0.31,0.53-0.44c0.78-0.5,0.78-0.5,0.78-0.5c0.48-0.76,1.19-1.31,1.59-1.23c0.39,0.08,1.83,0.44,2.31,0.68
				c0,0,0,0-0.7,0.46c-0.18,0.12-0.18,0.12-0.18,0.12c0.16,0.49,0.25,0.9,0.21,0.91c-0.04,0-0.61-0.07-1.18-0.18c0,0,0,0,0.04,0.64
				c0.03,0.5,0.55,0.32,0.89,0.33c0.7,0,0.7,0,0.7,0c0.95-0.68,1.89-1.42,2.09-1.64c0.2-0.22,0.96-0.07,0.82,0.22
				c-0.14,0.28-0.65,2.1-0.64,2.43s0.37,0.35,0.59,0.17s0.38-1.09,0.13-1.54c0,0,0,0-0.05,0.01c-0.68,0.21-0.68,0.21-0.68,0.21
				c-0.66,0.32-1.47,0.71-1.79,0.88c-0.32,0.16-1.12,0.82-0.97,1.07c0.15,0.25,0.65,0.85,0.72,0.68c0.07-0.17,0.33-0.48,0.45-0.42
				c0.12,0.06,0.51,0.1,0.54-0.1c0.03-0.2,1.44-1.61,1.96-1.69c0.52-0.08,2.04-0.88,2.37-1.22c0.34-0.34,1.76-0.39,1.79-0.52
				c0.03-0.13,0.38-0.61,0.72-0.79c0.33-0.18,1.05-0.8,0.85-0.97c-0.2-0.17-0.84-0.51-0.9-0.33s-0.35,0.53-0.49,0.75
				s-0.26,0.86-0.5,0.84c-0.24-0.02-0.95-0.47-1.17-0.62s-0.65-0.75-0.47-1.02c0.18-0.27,1.26-0.21,1.86-0.17c0,0,0,0,0.17-0.44
				c0.15-0.4-0.12-0.93,0.79-0.88c0.22,0.01,0.22,0.01,0.22,0.01c0.25-0.08,0.67-0.1,0.94-0.04c0.27,0.06,0.98,0.52,0.73,0.81
				c0,0,0,0-0.19,0.02c-0.57,0.05-0.71,0.36-0.46,0.62c0.18,0.18,0.75,0.24,1.06,0.15c0.45-0.12,0.45-0.12,0.45-0.12
				c0.02-0.79-0.04-1.65-0.13-1.91c0,0,0,0-0.19-0.16c-0.17-0.15-0.17-0.15-0.17-0.15c-0.57-0.16-0.56-0.28,0.02-0.26
				c0.58,0.02,1.57,1.13,2.05,1.35c0,0,0,0,0.24,0.37c0.07,0.11,0.48,0.2,0.61,0.13c0.58-0.28,1.13-0.61,1.66-0.95
				c0.08-0.05,0.07-0.26,0.01-0.37c-0.05-0.09-0.25-0.23-0.33-0.21c-0.46,0.12-0.46,0.12-0.46,0.12c-0.65,0.21-1.05,0.18-0.89-0.08
				c0.16-0.26,0.65-0.64,0.85-0.42c0.2,0.22,1.13-0.54,1.46-0.77c0.32-0.24,1.7-0.71,2.25-0.65c0,0,0,0,0.52,0.07
				c0.11,0.02,0.11,0.02,0.11,0.02c0.12,0.03,0.84-0.3,1.6-0.73c0,0,0,0,0.55-0.47c0.32-0.28,0.32-0.28,0.32-0.28
				c-0.12-0.58,0.06-1.11,0.4-1.19c0.34-0.08,1.68-0.2,2.23-0.32c0.55-0.11,0.8-1.28,0.63-1.43c0,0,0,0-0.01,0.01
				c-0.86,0.59-0.86,0.59-0.86,0.59c-0.32-0.6-0.61-0.92-0.66-0.73c-0.04,0.19-0.44,0.84-0.76,0.84s-1.16,0.16-0.98,0.35
				c0.18,0.19-0.59,0.87-1.03,0.93c0,0,0,0-0.03,0.13c-0.06,0.23,0.35,0.64,0.24,0.75c-0.46,0.43-0.74-0.05-1.11-0.22
				c-0.17-0.08-0.17-0.08-0.17-0.08c-0.28,0.04-0.38-0.08-0.21-0.27s0.39-0.69,0.24-0.82c-0.15-0.13-0.4-0.91-0.23-1.44
				c0,0,0,0,0.79,0.55c0.14,0.1,0.62,0.04,0.77-0.09c0.25-0.2,0.32-0.54,0.55-0.76c0.06-0.06,0.06-0.06,0.06-0.06
				c0.32,0.11,0.66-0.04,0.74-0.34c0,0,0,0,0.13-0.26c0.45-0.91,0.45-0.91,0.45-0.91c0.86,0.47,1.65,0.87,1.77,0.9
				c0.11,0.03,0.61-0.51,0.81-1.25c0,0,0,0-0.77-0.56c-0.24-0.17-0.24-0.17-0.24-0.17c-0.06-0.37,0.24-0.42,0.68-0.13
				c0,0,0,0,0.45,0.19c0.14,0.06,0.14,0.06,0.14,0.06c0.29-0.02,0.54,0.08,0.57,0.22s0.44,0.41,0.81,0.03c0,0,0,0,0.08-0.27
				c0.24-0.86,0.24-0.86,0.24-0.86c0.41-0.37,0.99-0.68,1.29-0.68c0.31,0,1.11-0.22,1.11-0.49c0-0.27,0.13-1.04,0.53-0.9
				c0.39,0.14,1.81,0.27,2.27-0.04c0.46-0.31-0.04-1.76,0.08-1.91c0.11-0.15,0.29-0.25,0.22-0.03c-0.07,0.22,1.39-0.15,1.83-0.49
				c0.44-0.33,2.07,0.27,2.39,0.17c0,0,0,0,0.05-0.15c0.12-0.39,0.12-0.39,0.12-0.39c0.38-0.06,0.88-0.28,1.11-0.47
				c0.23-0.2,0.47-0.69,0.04-0.68c-0.43,0.01-1.14-0.13-0.71-0.23s1.04-0.79,1.21-0.55c0.17,0.25,1,0.65,1.34,0.65
				c0.34,0,1.18-0.39,0.69-0.87c-0.49-0.48-0.76-2.47,0.01-3.31c0,0,0,0,0.72-0.75c0.07-0.07,0.3-0.07,0.44-0.04
				c0.11,0.02,0.11,0.02,0.11,0.02c0.09,0.11,0.21,0.63,0.27,1.15c0,0,0,0-0.06,0.48c-0.02,0.18-0.02,0.18-0.02,0.18
				c-0.04,0.35-0.29,0.24-0.56-0.23c0,0,0,0-0.23-0.02c-0.29-0.03-0.29-0.03-0.29-0.03c-0.36,0.25-0.67,0.54-0.7,0.63
				s0.07,0.46,0.28,0.59c0.21,0.14,0.78,0.97,1.33,1.3c0,0,0,0,0.55-0.58c0.03-0.03,0.51,0.18,0.76,0.31
				c0.26,0.13,0.49,0.43,0.73,0.42c0.5-0.01,0.5-0.01,0.5-0.01c0.53-0.12,0.8-0.31,0.62-0.42c-0.19-0.11-1.06-0.38-1.42-0.47
				s-1.31-0.53-1.15-0.73c0,0,0,0,0.07-0.24c0.07-0.23,0.07-0.23,0.07-0.23c-0.03-0.3,0.12-0.47,0.33-0.37s0.85,0.07,1.03-0.02
				s0.8-0.3,0.98-0.48c0.17-0.17,0.23-0.86-0.29-0.7s-1.89,0.48-2.06,0.46c0,0,0,0,0-0.02c0.01-0.18,0.02-0.37,0.11-0.52
				c0.04-0.07,0.27-0.06,0.42-0.09c0.99-0.23,0.99-0.23,0.99-0.23c-0.19-0.47-0.28-1.1-0.19-1.4c0,0,0,0,0.22,0.1
				c0.4,0.19,0.4,0.19,0.4,0.19c0.35-0.11,0.66-0.07,0.69,0.1s0.44,1.02,0.73,1.56c0.3,0.54,1.08,2.3,1.29,2.63c0,0,0,0,0.31,0.11
				c0.3,0.1,0.74-0.03,1.1-0.1c0.06-0.01,0.11-0.23,0.08-0.34c-0.14-0.47-0.62-0.24-0.96-0.29c-0.08-0.01-0.08-0.01-0.08-0.01
				c-0.09,0-0.17-0.43-0.18-0.95s0.82-1.82,0.91-1.89s1.18-0.28,2.22-0.3c0,0,0,0,0.49-0.87c0.21-0.38,0.56-0.32,0.93-0.08
				c0.84,0.55,0.84,0.55,0.84,0.55c0.57-0.51,0.79-1.01,0.5-1.12c-0.29-0.11-1.17-0.19-1.29,0.02s-0.34-0.53-0.17-0.74
				c0,0,0,0,0.2-0.03c0.63-0.08,0.63-0.08,0.63-0.08c0.48-0.35,0.98-0.6,1.12-0.57c0,0,0,0,0.09,0.06c0.8,0.51,0.8,0.51,0.8,0.51
				c0.34-0.42,0.81-0.81,1.04-0.87c0.23-0.05,1.05-0.16,1.35-0.55s1.35-1.24,1.17-1.5c-0.17-0.26-0.56-1.14-0.62-1.32
				c-0.06-0.19,0.52-0.2,0.49-0.03c0,0,0,0,0.08,0.06c0.29,0.23,0.29,0.23,0.29,0.23c0.34,0.22,0.64,0.59,0.67,0.83
				c0.03,0.24,0.25,0.91,0.35,0.99c0.1,0.08,0.64-0.18,1-0.76c0.36-0.58,1.37-1.96,1.5-1.86c0.13,0.11,0.39,0.44,0.31,0.51
				c-0.08,0.07-0.19,0.35-0.04,0.46c0,0,0,0,0.11-0.01c0.2-0.03,0.54-0.12,0.55-0.21c0.06-0.42,0.06-0.42,0.06-0.42
				c-0.02-0.44-0.56-0.97-1.2-1.17s-1.74,1.55-1.78,1.61c-0.04,0.06-0.42,0.12-0.65-0.15c-0.22-0.26-1.18-0.55-1.17-0.74
				s-0.07-0.73-0.12-0.83c-0.05-0.1-0.05-0.36,0.11-0.35c0.16,0.01,0.95,0.59,1.48,0.85c0,0,0,0,0.42-0.62
				c0.49-0.72,0.49-0.72,0.49-0.72c1.12-0.42,1.86-0.59,1.65-0.39c-0.21,0.2-0.42,0.82,0.1,0.83c0,0,0,0,0.37-0.02
				c0.46-0.03,0.46-0.03,0.46-0.03c0.18,0.28,0.49,0.57,0.68,0.64s0.97,0.01,0.97-0.37c0-0.38,0.13-1.36,0.3-1.36
				s0.46,0.12,0.39,0.28c0,0,0,0,0,0.14c0.01,0.23,0.01,0.23,0.01,0.23c0.04,0.24-0.12,0.72-0.35,1.06c0,0,0,0,0.43,0.16
				c0.28,0.11,0.28,0.11,0.28,0.11c0.45-0.12,0.71-0.45,0.58-0.75c0,0,0,0-0.11-0.27c-0.01-0.03-0.01-0.03-0.01-0.03
				c0.05-0.06,0.15-0.14,0.23-0.2c0,0,0,0,0.05,0.01c0.48,0.1,0.48,0.1,0.48,0.1c0.53,0.12,0.97,0.01,0.98-0.23c0,0,0,0-0.07-0.21
				c-0.07-0.22-0.07-0.22-0.07-0.22c-0.03-0.33,0.1-0.49,0.3-0.35c0.19,0.14,0.95,0.37,1.14,0.13c0.18-0.24,0.22-0.75,0.21-1.02
				c0-0.27,0.96-0.52,1.53-0.55c0.57-0.03,1.08-1.38,1.27-1.52c0,0,0,0,0.17,0.01c0.15,0.01,0.35,0.19,0.41,0.33
				c0.07,0.17-0.06,0.41,0.04,0.57c0.08,0.12,0.42,0.27,0.53,0.22c0.44-0.18,0.44-0.18,0.44-0.18c0.41-0.24,0.92-0.49,1.11-0.54
				c0.2-0.06,0.64-0.26,0.46-0.33c-0.18-0.07-0.59-0.34-0.51-0.43c0.08-0.1,0.82-0.36,1.41-0.53c0.59-0.16,2.26-0.85,2.72-0.72
				c0,0,0,0,0.41,0.03c0.81,0.05,0.81,0.05,0.81,0.05c-0.12-0.47-0.13-1.09-0.01-1.38c0.12-0.29,1.15,0.04,1.36-0.1
				c0,0,0,0,0.12-0.16c0.32-0.43,0.44-1.22,1.35-0.41c0.08,0.07,0.68-0.06,0.72-0.18c0.32-0.82,0.69-1.31,1.76-0.55
				c0.09,0.07,0.09,0.07,0.09,0.07c0.38-0.19,1.38-0.8,2.24-1.35c0,0,0,0,0.78-0.5c0.12-0.08,0.59-0.52,0.58-0.57
				c-0.01-0.09-0.01-0.09-0.01-0.09c-0.01-0.1,0.14-0.42,0.34-0.71s1.27-0.47,1.17-0.17c0,0,0,0,0,0.25c0,0.18,0.08,0.39,0.21,0.54
				c0.29,0.37,0.6,0.06,0.64-0.11c0.31-1.09,0.31-1.09,0.31-1.09c1.2-0.28,3.07-1.02,4.14-1.64c0,0,0,0,1.27-0.05
				c0.12,0,0.25-0.26,0.33-0.41c0.43-0.73,0.43-0.73,0.43-0.73c0.42,0.42,0.9,0.47,1.06,0.11c0.16-0.36,2.33-0.88,3.39-1.31
				c0,0,0,0,0.38-0.41c0.23-0.25,0.45-0.5,0.72-0.72c0.08-0.06,0.08-0.06,0.08-0.06c0.29,0.03,0.47,0.21,0.39,0.4
				s0.07,0.63,0.54,0.44c0.47-0.19,1.92-0.83,2.3-1.05c0.38-0.23,1.67-0.92,2.21-0.92c0.54,0,1.73-0.65,2.44-0.1c0,0,0,0-0.95,0.77
				c-0.03,0.02-0.03,0.02-0.03,0.02c0.35,0.34,0.76,0.19,0.92-0.34s0.83-1.73,1.17-1.57c0.34,0.16,0.95,0.77,0.99,0.23
				c0,0,0,0,0.92,0.2c0.19,0.04,0.48-0.17,0.68-0.31c0.05-0.03-0.01-0.27-0.1-0.33c-0.41-0.28-0.7-0.06-0.98,0.19
				c-0.03,0.03-0.03,0.03-0.03,0.03c-0.21,0.03-0.28-0.19-0.14-0.48c0.14-0.29,0.59-0.92,0.74-0.82c0.15,0.1,0.66-0.07,0.84-0.35
				c0.18-0.29,1.64-0.72,1.95-1.28c0,0,0,0,0.91-0.02c0.26-0.01,0.26-0.01,0.26-0.01c0.34,0.55,0.73,0.93,0.86,0.85
				c0,0,0,0-0.02-0.04c-0.46-0.95,0.78-1.28,1.06-1.95c0.02-0.05,0.02-0.05,0.02-0.05c0.08-0.03,0.57-0.19,1.09-0.35
				c0,0,0,0,0.59,0.25c0.75,0.31,0.94-0.25,1.29-0.68c0.24-0.3,1.09,0.18,1.33-0.67c0.2-0.69,1.39-0.77,2.11-0.6
				c0.47,0.11,0.68,0.19,0.64,0.59c-0.03,0.31-0.03,0.31-0.03,0.31c0.01,0.48,0.36,0.66,0.77,0.39c0,0,0,0,0.06-0.19
				c0.19-0.64,0.19-0.64,0.19-0.64c-0.5-0.55-0.27-1.31,0.51-1.69c0,0,0,0,0.72-0.36c0.19-0.1,0.4-0.32,0.55-0.3
				c2,0.32,2.71-1.46,4.33-1.76c0.11-0.02,0.11-0.02,0.11-0.02c0.08-0.41,0.22-0.59,0.3-0.41c0.09,0.18,0.87,0.5,1.54,0.27
				c0.66-0.23,1.77-1.47,1.85-1.35c0,0,0,0,0.06,0.11c0.06,0.11,0.06,0.11,0.06,0.11c0.07,0.2,0.38,0.16,0.68-0.09c0,0,0,0,0.25-0.2
				c0.22-0.18,0.43-0.39,0.69-0.53c0.05-0.03,0.05-0.03,0.05-0.03c0.24,0.2,0.51,0.14,0.59-0.15c0,0,0,0,0.2-0.12
				c0.17-0.1,0.17-0.1,0.17-0.1c0.34,0.09,0.76,0.22,0.93,0.3s1.24-0.47,1.92-0.87s2.59-1.22,3.16-1.47c0,0,0,0,0.5-0.25
				c0.2-0.1,0.44-0.41,0.5-0.38c0.53,0.24,0.53,0.24,0.53,0.24c0.59-0.03,1.25-0.39,1.49-0.8c0,0,0,0,0.68,0.09
				c0.22,0.03,0.82,0.16,1.09,0.29c0.17,0.08,0.17,0.08,0.17,0.08c0.26-0.01,0.45-0.08,0.43-0.16s-0.17-0.43-0.26-0.63
				c0,0,0,0,0.69-0.01c0.27,0,0.56-0.11,0.81-0.22c0.33-0.15,0.62-0.35,0.93-0.51c0.05-0.03,0.05-0.03,0.05-0.03
				c0.13,0.03,0.18,0.2,0.11,0.39c-0.07,0.19-0.17,0.73-0.07,0.78c0.09,0.05,0.43-0.01,0.55-0.26c0,0,0,0,0.16-0.2
				c0.92-1.19,0.92-1.19,0.92-1.19c1.08,0.17,2.26,0.2,2.62,0.08c0,0,0,0,0.2,0.12c0.2,0.12,0.18,0.53,0.37,0.61
				c0.31,0.12,0.31,0.12,0.31,0.12c0.48-0.01,0.87-0.23,0.87-0.5s-0.25-1.05-0.57-1.07s-1.17-0.2-1.12-0.35c0,0,0,0,0.08-0.04
				c0.31-0.15,0.31-0.15,0.31-0.15c0.35-0.12,0.94-0.13,1.32-0.01c0.38,0.12,1.61-0.05,1.8-0.09c0,0,0,0,0.15,0.03
				c0.84,0.18,1.16,0.58,0.92,1.18c-0.04,0.11-0.3,0.18-0.31,0.28c-0.02,0.22-0.02,0.22-0.02,0.22c0.06,0.24,0.36,0.38,0.67,0.31
				c0,0,0,0,0.16-0.15c0.63-0.6,0.63-0.6,0.63-0.6c0.97,0.25,1.78,0.5,1.8,0.56c0.02,0.06,0.52-0.03,1.05-0.38c0,0,0,0,0.49-0.02
				c0.72-0.03,0.72-0.03,0.72-0.03c0.81,0.19,1.53,0.6,1.61,0.9c0.08,0.31,1.14,0.35,1.2,0.48c0.06,0.12,0.05,0.9-0.07,1.43
				c0,0,0,0,0.95-0.06c0.01,0,0.01,0,0.01,0c0.04,0.34-0.14,1.16-0.39,1.82c0,0,0,0,0.53,0.7c0.26,0.35,1.13,1.04,0.08,1.6
				c-0.04,0.02,0.16,0.31,0.21,0.49c0.07,0.22,0.1,0.44,0.15,0.66l0.09,1.68c0.29,0.68,0.29,0.68,0.29,0.68
				c0.3,0.75,0.56,1.71,0.57,2.14c0.01,0.42,1.09,1.4,1.19,1.62c0.1,0.22,0.1,0.9-0.15,0.92c0,0,0,0-0.19,0.07
				c-0.4,0.15-0.82,0.31-1.15,0.54c-0.16,0.11,0.91,0.53-0.17,0.64c-0.32,0.03-0.32,0.03-0.32,0.03c-0.31,0.3-0.71,0.67-0.89,0.82
				c-0.18,0.15-0.67,0.77-0.74,1c0,0,0,0-0.14,0.04c-0.52,0.16-0.52,0.16-0.52,0.16c-0.62,0.03-1.39,0.44-1.73,0.92
				c0,0,0,0-0.43,0.33c-0.48,0.37-0.48,0.37-0.48,0.37c-0.65,0.31-1.63,0.79-2.19,1.07c-0.56,0.28-2.83,1.54-3.84,2.14
				c0,0,0,0-0.91,0.55c-0.06,0.04-0.06,0.04-0.06,0.04c-0.06,0.05-0.54,0.06-1.07,0.02c-0.53-0.04-1.67,1.12-2,1.35
				c-0.33,0.23-1.84,1.07-2.62,1.38c-0.79,0.31-2.63,1.63-2.79,1.7s-0.76,0.14-1.03,0.22c-0.27,0.08-1.01,0.74-1.27,0.92
				c-0.26,0.18-1.01,0.3-0.99,1.05c0,0,0,0-1.15,0.02c-0.27,0-0.27,0-0.27,0c-0.3,0.09-0.5,0.08-0.45-0.02
				c0.05-0.1,0.06-0.41-0.09-0.47c-0.15-0.06-0.6,0.02-0.94,0.12c-0.34,0.1-0.22,1.44-0.76,2.31c0,0,0,0-1.07,0.14
				c-0.85,0.11-0.85,0.11-0.85,0.11c-0.62,0.4-1.48,0.82-1.9,0.93c-0.42,0.11-1.15,0.65-1.63,1c0,0,0,0-0.4,0.26
				c-0.57,0.37-0.57,0.37-0.57,0.37c-0.65,0.41-1.34,0.7-1.52,0.66c0,0,0,0-0.17-0.03c-0.21-0.04-0.21-0.04-0.21-0.04
				c-0.24-0.04-0.78,0.2-1.2,0.52c-0.42,0.32-1.68,1.53-2.17,1.76c-0.5,0.23-1.85,0.82-1.87,0.86c-0.02,0.05,0.31,0.15,0.81,0.11
				c0.49-0.05,2.04-0.37,2.39-0.54c0,0,0,0,0.32-0.16l1.36-0.69c0.43,0.1,0.85,0.27,1.28,0.26c0.17,0,0.29-0.44,0.52-0.57
				c0.35-0.2,0.78-0.43,1.19-0.44c0.8-0.03,0.8-0.03,0.8-0.03c0.82-0.24,1.52-0.88,1.55-1.42c0,0,0,0,0.65,0.29
				c1.1,0.49,1.1,0.49,1.1,0.49c0.19-0.71,0.58-1.29,0.86-1.29c0.28,0,1.32-0.04,1.67-0.08c0,0,0,0,0.01-0.05
				c0.08-0.81,0.08-0.81,0.08-0.81c0.79-0.02,1.71-0.08,2.04-0.13c0.33-0.05,1.32-0.48,1.62-0.52s1.56-0.06,2.02-0.13
				s1.52-1.02,1.79-1.43c0,0,0,0,0.66,0.4c0.03,0.02,0.03,0.02,0.03,0.02c0.43-0.39,0.81-0.63,0.86-0.52
				c0.04,0.11,0.48,0.15,0.8-0.31c0,0,0,0,0.41-0.21c0.34-0.18,0.9-0.09,1.37-0.1c0.66-0.02,0.66-0.02,0.66-0.02
				c0.46-0.39,1.03-0.7,1.27-0.7c0,0,0,0,0.21,0.04c0.18,0.03,0.34,0.18,0.51,0.17c0.43-0.01,0.38-0.98,1.21-0.39
				c0.17,0.12,0.17,0.12,0.17,0.12c0.54-0.22,1.38-0.6,1.88-0.85c0,0,0,0,0.39-0.29c0.52-0.39,0.83,0.71,1.33,0.1
				c0.32-0.4,0.32-0.4,0.32-0.4c0.47,0.12,1.45,0.38,2.17,0.58c0,0,0,0,0.22-0.82c0.03-0.1,0.03-0.1,0.03-0.1
				c0.17-0.08,0.79-0.27,1.39-0.43s2.26-0.44,2.36-0.28c0.09,0.16,0.45,0.51,0.5,0.28c0.05-0.24,0.73-0.66,1.41-0.5l0,0
				c0.43-0.14,0.43-0.14,0.43-0.14c0.47,0.08,0.9,0.19,0.97,0.24c0.06,0.05,0.45,0.3,0.85,0.44c0.4,0.14,0.84,1.37,0.92,1.62
				c0.08,0.24,2.01,0.25,2.72,0.3c0.71,0.05,3.03,0.5,3.61,0.8c0.58,0.3,1.57,2.08,1.84,2.51c0,0,0,0-0.92,0.08
				c-0.1,0.01-0.27,0.43-0.19,0.6c0.11,0.24,0.11,0.24,0.11,0.24c-0.13,0.17-0.38,0.45-0.56,0.62c-0.18,0.17,0.37,0.58,0.57,0.79
				c0.2,0.21-0.18,1.05-0.49,1.43c0,0,0,0,0.9,0.2c0.7,0.16,0.7,0.16,0.7,0.16c-0.23,0.55-0.56,1.34-0.73,1.74
				c-0.17,0.41-0.15,1.88-0.75,2.37c0,0,0,0,1.41,0.03c0.06,0,0.06,0,0.06,0c0.06,0.17,0.13,0.65,0.16,1.08s0.21,1.7,0.26,1.87
				c0,0,0,0-0.08,0.08c-0.59,0.63-0.59,0.63-0.59,0.63c0.53,0.47,1.24,1.11,1.56,1.42s-1.5,1.73-2.2,2.06c0,0,0,0-0.65,0.27
				c-0.76,0.32-1.21,1.21-1.66,1.9c-0.3,0.47,0.27,0.88,0.81,0.54c0.66-0.41,0.84,0.54,1.37,0.14c0.43-0.34,0.72-0.83,1.53-0.77
				c0.51,0.04,0.51,0.04,0.51,0.04c0.58-0.12,1.41-0.11,1.86,0.02c0,0,0,0,0.33-0.08c0.33-0.08,0.53-0.49,0.87-0.63
				c0.32-0.13,0.32-0.13,0.32-0.13c0.44,0.01,1.21,0.17,1.7,0.36c0.49,0.19,1.97-0.31,2.12-0.29c0.16,0.02,1.05,0.32,1.69,0.49
				c0.64,0.18,2.67-0.35,3.06-0.15c0.39,0.21,1.72,0.7,1.93,0.55s0.84-0.33,1.06-0.16s0.74,0.63,0.7,0.67
				c-0.04,0.04-0.99,0.06-1.95,0.03c0,0,0,0-0.87,0.07c-0.46,0.04-0.46,0.04-0.46,0.04c-0.45,0.39-0.01,0.79,0.97,0.89
				c0,0,0,0,0.76-0.22c0.76-0.22,1.28,0.78,2.05,0.07c0.29-0.26,0.29-0.26,0.29-0.26c0.66,0.13,1.3,0.29,1.44,0.36
				c0.14,0.07,0.41,0.39,0.54,0.5c0.13,0.11,0.87-0.04,1.17-0.16c0.29-0.12,1.23-0.23,1.4-0.14s0.35,0.48,0.3,0.6
				s-0.58,0.38-1.02,0.31c-0.45-0.07-0.91,1.03-1.26,1.14c-0.35,0.11-0.59,1.01-0.44,1.06s0.44,0.45,0.32,0.73
				c-0.12,0.28,1.01,0.45,1.37,0.66c0,0,0,0,0.37,0.06c0.16,0.02,0.34-0.04,0.5-0.07c0.29-0.05,0.29-0.05,0.29-0.05
				c0.32-0.05,0.72-0.09,0.88-0.09c0.16,0,0.6,0.21,0.53,0.48s0.03,1.01-0.19,1.05c-0.22,0.04-1.13-0.05-1.64-0.12
				c-0.5-0.06-0.49,1.05-0.3,0.75c0.19-0.3,1.24,0.21,1.03,0.48c-0.21,0.27-0.68,1.1-0.52,1.16c0.17,0.05,1.16,0.51,1.99,1.06
				c0,0,0,0,0.97,0.19c0.03,0.01,0.03,0.01,0.03,0.01c-0.03,0.21-0.3,0.73-0.59,1.14c-0.29,0.41,0.2,1.65,0.06,1.74
				c-0.15,0.09-0.29,0.58,0.11,0.81c0,0,0,0,0.41,0.15c0.16,0.06,0.45-0.04,0.63-0.14c0.24-0.14,0.55-0.12,0.72,0.09
				c0.08,0.1,0.08,0.1,0.08,0.1c0.13,0.11-0.29,0.43-0.93,0.72c-0.64,0.28-2.56-0.35-2.68-0.34c-0.13,0.01-0.96,0.48-1.67,0.92
				c-0.71,0.44-3.36,1-3.49,1c-0.13,0.01-0.85,0.38-1.38,0.72c0,0,0,0-0.54,0.18c-0.55,0.18-0.55,0.18-0.55,0.18
				c-0.68,0.05-1.86,0.14-2.63,0.19c0,0,0,0-0.26,0.3c-0.63,0.75-0.63,0.75-0.63,0.75c-0.82-0.24-1.81-0.37-2.19-0.27
				c-0.38,0.1-1.64,0.11-2,0.15c-0.35,0.05-1.91,0.41-2.85,0.64c-0.94,0.23-4.63,0.88-6.05,1.12s-5.37,0.75-5.6,0.82
				c0,0,0,0-0.2,0.07l-2.42,0.57c-2.01-0.05-2.01-0.05-2.01-0.05c-1.98,0.67-4.08,1.38-4.66,1.57c-0.58,0.19-3.33,0.61-4.8,0.9
				c0,0,0,0-1.34,0.03c-1.28,0.03-1.28,0.03-1.28,0.03c-1.27,0.35-2.36,0.67-2.42,0.73c-0.06,0.06-0.52,0.18-0.87,0.24
				c-0.35,0.06-1.59-0.06-1.89,0.1s-2.46,0.44-4.1,0.62c0,0,0,0-1.47,0.3c-0.49,0.1-1.36-0.34-1.57-0.16
				c-0.66,0.56-0.66,0.56-0.66,0.56c-0.51-0.33-1.07-0.46-1.25-0.29s-1.04-0.03-1.37,0.13c-0.33,0.16-1.64-0.54-2.33-0.64
				c0,0,0,0-0.43-0.25c-0.65-0.38-1.3-0.32-1.98-0.36c-0.13-0.01-0.13-0.01-0.13-0.01c-0.13-0.1-0.78-0.41-1.43-0.67
				s-3.12-1.06-3.97-1.32c0,0,0,0-0.58-0.52c-0.56-0.5-0.56-0.5-0.56-0.5c0.42-0.47,0.79-0.92,0.82-1c0.03-0.08-0.18-0.58-0.37-1.02
				c0,0,0,0,0.38-0.42c0.14-0.15,0.14-0.15,0.14-0.15c-0.03-0.26-0.24-0.77-0.45-1.14c-0.21-0.36-0.35-1.68-0.27-2.01
				s-0.99-0.81-1.01-0.97c-0.02-0.16-0.21-1.51-0.35-2.62c0,0,0,0-0.26-0.99c-0.05-0.21-0.05-0.21-0.05-0.21
				c-0.61-0.08-1.43-0.03-1.84,0.1c-0.41,0.13-2.06,0.74-2.76,1.03c-0.7,0.29-2.97,1.23-3.42,1.85c0,0,0,0-1.15-0.24
				c-0.66-0.13-0.66-0.13-0.66-0.13c-0.88,0.41-2.11,0.97-2.73,1.24c-0.63,0.27-2.75,0.88-3.28,1.14c-0.53,0.26-2.54,0.92-3.22,1.09
				c-0.67,0.17-2.31,1.36-2.56,1.57c-0.25,0.2-1.09-0.31-1.2-0.32c-0.11-0.01-0.92,0.16-1.76,0.32s-2.86,1.88-3.59,2.21
				c-0.73,0.33-2.79,0.77-2.75,1.07c0.04,0.3-1.16,0.15-1.38,0.2c-0.21,0.06-0.66,0.52-0.79,0.48c-0.13-0.04-1.23,0.25-2.14,0.54
				c0,0,0,0-0.8,0.31c-0.47,0.18-0.47,0.18-0.47,0.18c-0.45,0.28-1.04,0.48-1.32,0.45s-1.1,0.47-1.33,0.61s-1.43,0.63-2.11,0.86
				c0,0,0,0-0.64,0.13c-1.02,0.21-2.12,0.27-2.43,1.34c-0.01,0.02-0.01,0.02-0.01,0.02c-0.41-0.05-1.27-0.05-1.91,0
				c-0.64,0.05-1.6,1.26-1.71,1.28s-0.7,0.12-1.03,0.17c-0.33,0.04-1.84,0.67-2.75,1.1s-3.96,1.37-4.45,1.61
				c-0.49,0.23-2.01,0.94-2.24,1.13c-0.22,0.19-1.51,0.31-1.81,0.51c-0.3,0.19-1.48,0.65-1.84,0.72c-0.36,0.06-1.5,0.43-1.77,0.57
				c-0.28,0.14-2.31,0.94-3.88,1.47c0,0,0,0-1.3,0.7c-0.24,0.13-0.24,0.13-0.24,0.13c-0.32,0.07-1.12,0.13-1.78,0.13
				c0,0,0,0-0.11,0.68c-0.01,0.07-0.01,0.07-0.01,0.07c-0.33,0.04-1.18,0.26-1.89,0.47c-0.71,0.21-2.86,1.17-3.6,1.33
				s-3.08,1.6-4.2,1.97c0,0,0,0-0.95,0.52c-1.21,0.66-1.21,0.66-1.21,0.66c-1.53,0.47-3.41,1.11-4.18,1.41
				c-0.77,0.3-3,1.32-3.35,1.47c-0.36,0.15-2,0.7-2.8,0.93c-0.8,0.24-3.17,1.39-3.74,1.51c-0.57,0.12-2.6,0.87-3.58,1.08
				c0,0,0,0-0.82,0.34c-0.13,0.05-0.13,0.05-0.13,0.05c-0.18-0.02-1.5,0.24-2.91,0.58c0,0,0,0-1.09,0.6
				c-0.68,0.38-1.41,0.49-1.93,0.22c-0.74-0.37-1.23-0.45-1.85,0.05c-0.09,0.08-0.09,0.08-0.09,0.08c-0.29-0.08-1.4-0.49-2.48-0.91
				s-4.24-0.86-3.97-1.12c0,0,0,0,0.05-0.18c0.04-0.15,0.04-0.15,0.04-0.15c-0.12-0.2-0.47-0.31-0.77-0.24c0,0,0,0-0.19,0.14
				c-0.14,0.1-0.14,0.1-0.14,0.1c-0.08,0.39-0.19,0.18-0.25-0.47s0.47-2.15,0.06-2.26c0,0,0,0-0.13-0.21
				c-0.16-0.26-0.13-0.65-0.02-0.95c0.25-0.72,0.25-0.72,0.25-0.72c-0.68-0.16-1.11-0.33-0.94-0.38s0.56-0.27,0.52-0.4
				c0,0,0,0-0.09-0.04c-0.65-0.29-1.46-0.45-1.91-0.87c-0.3-0.28-0.1-0.92-0.06-1.4c0.01-0.16,0.34-0.37,0.28-0.47
				c-0.29-0.53-0.29-0.53-0.29-0.53c-0.12-0.63-0.57-1.6-0.99-2.15c0,0,0,0-0.47-0.48c-0.18-0.18-0.18-0.18-0.18-0.18
				c-0.32-0.12-0.41-0.36-0.2-0.53c0.21-0.17,0.21-1.25-0.35-2.13c0,0,0,0,0.08-0.98c0.04-0.52,0.04-0.52,0.04-0.52
				c0.37-0.33,1.06-1.23,1.54-1.98c0,0,0,0-0.14-0.34c-0.05-0.12-0.34-0.26-0.52-0.25c-0.55,0.03-0.25,0.2-0.15,0.44
				c0.07,0.16-0.33,0.65-0.46,0.64c-0.85-0.09-0.85-0.09-0.85-0.09c-0.08,0.51-0.28,0.81-0.46,0.67c-0.18-0.14-0.74-0.11-0.8,0.4
				c-0.07,0.51-2.04,0.77-2.23,1.47c0,0,0,0-0.83,0.22c-1.12,0.3-2.06,0.78-2.81,1.52c-0.37,0.36-0.37,0.36-0.37,0.36
				c-0.57,0.1-1.52,0.43-2.1,0.73c-0.59,0.3-2.48,0.81-2.6,1.04c0,0,0,0-0.17,0.18c-0.34,0.36-0.34,0.36-0.34,0.36
				c-0.57,0.1-1.28-0.05-1.57-0.35c-0.29-0.3-1.35-0.95-1.37-0.81s0.17,0.59,0.33,0.82c0,0,0,0,0.12,0.22
				c0.01,0.02-0.31,0.21-0.35,0.18c-0.23-0.14-0.46-0.44-0.56,0.05c-0.03,0.14,0.13,0.43,0.25,0.45c0.38,0.06,0.38,0.06,0.38,0.06
				c0.43-0.02,0.39,0.03-0.1,0.12c-0.49,0.08-1.32,0.91-1.44,0.82c0,0,0,0-0.12-0.06c-0.84-0.4-0.84-0.4-0.84-0.4
				c-0.02,0.52-0.05,1.01-0.07,1.07c-0.02,0.07-0.17,0.31-0.29,0.33c-0.12,0.02-1.22,0.1-2.2,0.21c0,0,0,0-0.66,0.63
				c-0.6,0.57-1.27,1.25-2.3,0.38c-0.09-0.07-0.59,0.03-0.6,0.07c-0.03,0.21,0.04,0.44,0.1,0.66c0.03,0.09,0.03,0.09,0.03,0.09
				c0.13,0.17-0.2,0.13-0.72-0.09c-0.52-0.22-1.79,0.25-1.61,0.32s0.1,0.6-0.57,1.04c0,0,0,0-0.9-0.93c-0.15-0.15-0.31-0.3-0.51-0.4
				c-0.11-0.06-0.11-0.06-0.11-0.06c-0.29,0.03-0.53,0.42-0.54,0.87c0,0,0,0-0.08,0.41c-0.02,0.12-0.29,0.28-0.46,0.29
				c-0.44,0.03-0.44,0.03-0.44,0.03c0.13-0.24,0.28-0.73,0.33-1.1c0,0,0,0-0.34-0.26c-0.09-0.07-0.27-0.17-0.32-0.14
				c-0.33,0.18-0.33,0.18-0.33,0.18c-0.25,0.32-0.42,0.66-0.38,0.76c0.04,0.1,0.02,0.56-0.05,0.73c-0.07,0.18-0.62,0.14-0.68,0.08
				C259.04,136.36,258.21,136.2,257.96,136.18z M314.74,93.9c-0.02-0.44-0.03-0.74-0.01-0.66c0.01,0.07,0.8,0.31,1.72,0.35
				c0,0,0,0,0.56-0.3c0.57-0.3,0.57-0.3,0.57-0.3c0.33-0.71,0.09-1.01-0.53-0.67c0,0,0,0-0.53,0.27c-0.53,0.27-0.53,0.27-0.53,0.27
				c0.13,0.63-0.23,1.08-0.8,0.99c0,0,0,0-0.4-0.22c-0.34-0.19-0.34-0.19-0.34-0.19c-0.32-0.48-0.58-0.55-0.58-0.17
				S314.76,94.33,314.74,93.9z M252.09,134.32c0.23,0.15,0.57,0.01,0.75-0.32c0,0,0,0,0.21-0.24c0.21-0.23,1.37-0.1,1.59,0.15
				c0.18,0.2,0.36,0.42,0.6,0.57c0.15,0.09,0.48,0.13,0.62,0.06c0.14-0.08,0.27-0.41,0.19-0.48c-0.59-0.54-0.83-0.91,0.35-1.13
				c0.3-0.06,0.3-0.06,0.3-0.06c0.25-0.45,0.02-0.9-0.5-1c-0.52-0.11-2.01-0.06-1.98,0.36c0,0,0,0-0.08,0.35
				c-0.04,0.17-0.04,0.17-0.04,0.17c-0.26,0.14-0.7,0.1-0.99-0.1c0,0,0,0,0.24-0.31c0.08-0.11,0.08-0.11,0.08-0.11
				c0.14-0.09,0.06-0.26-0.17-0.36c0,0,0,0-0.2,0.01c-0.17,0.01-1.11,2.13-1.03,2.32C252.09,134.32,252.09,134.32,252.09,134.32z
				 M264.19,114.74c-0.68,0.34-0.84,0.64-0.36,0.68s1.26,1.1,1.44,1.34c0.18,0.24,1.11,0.43,1.13,0.48s-0.05,0.27-0.2,0.4
				c-0.16,0.13-0.19,0.33-0.13,0.5c0.06,0.16,0.69,0.07,1.22-0.67c0,0,0,0,0.22-0.61c0.33-0.93,0.33-0.93,0.33-0.93
				c-0.95-0.48-2.19-0.88-2.76-0.89c0,0,0,0-0.56-0.18C264.19,114.74,264.19,114.74,264.19,114.74z M404.53,51.97
				c-0.39-0.09-0.77-0.13-0.85-0.1s-0.51,0.4-0.76,0.71c-0.25,0.31,0.98,1.03,1.7,0.73c0,0,0,0,0.64-0.29
				c0.26-0.12,0.26-0.12,0.26-0.12C405.93,52.62,404.91,52.06,404.53,51.97z M435.71,41.72c0.18,0.24,0.6,0.32,0.93,0.17
				c0.33-0.15,1.1-0.62,1.12-0.71c0.02-0.09-0.07-0.32-0.25-0.3c0,0,0,0-0.17,0.01c-0.27,0.02-0.27,0.02-0.27,0.02
				c-0.29,0.02-0.4-0.13-0.23-0.33c0,0,0,0,0.05-0.2c0.04-0.15,0.04-0.15,0.04-0.15c-0.1-0.19-0.45-0.2-0.77-0.04
				C435.84,40.35,435.53,41.47,435.71,41.72z M413.5,47.79c-0.27-0.25-0.66-0.2-0.86,0.11c-0.2,0.3-1.64,1.03-1.72,1.13
				c-0.07,0.1-0.03,0.48,0.25,0.61c0,0,0,0,0.1-0.06c0.45-0.26,0.45-0.26,0.45-0.26c0.56-0.06,1.28-0.17,1.6-0.25
				S413.77,48.04,413.5,47.79z M374.65,65.21c0.17,0.09,0.28-0.3,0.25-0.87c0,0,0,0,0.98,0.63c0.56,0.36,0.56,0.36,0.56,0.36
				c0.3-0.34,0.57-0.78,0.6-0.97s-0.08-0.72-0.29-0.73c-0.2-0.01-1.11,0.28-1.56,0.66c0,0,0,0-0.61,0.13
				c-0.07,0.01-0.08,0.43,0,0.62C374.65,65.21,374.65,65.21,374.65,65.21z M328.69,86.77c0.28,0.45,0.74,0.48,1.01,0.08
				c0.27-0.4,1.42-1.22,1.6-1.34c0.18-0.12-0.35-0.56-0.84-0.71c0,0,0,0-0.16,0.13c-0.58,0.46-1.12,0.99-1.47,1.58
				C328.69,86.77,328.69,86.77,328.69,86.77z M275.76,113.06c0.33,0.19,0.59-0.09,0.57-0.61c-0.02-0.52-0.77-1.25-0.98-1.19
				c-0.21,0.06-0.72,0.31-0.45,0.38s0.62,0.28,0.38,0.35c-0.25,0.07-0.36,0.55-0.12,0.81c0,0,0,0,0.35,0.16
				C275.76,113.06,275.76,113.06,275.76,113.06z M427.35,42.4c-0.12-0.1-0.34,0.08-0.49,0.4c0,0,0,0-0.24,0.2
				c-0.36,0.3-0.36,0.3-0.36,0.3c-0.48,0.27-0.93,0.56-1.01,0.66s-0.02,0.46,0.28,0.58c0,0,0,0,0.26-0.02
				c0.27-0.02,0.27-0.02,0.27-0.02c0.27-0.16,0.69-0.51,0.93-0.77S427.47,42.5,427.35,42.4z M384.39,60.63
				c0.12,0.1,0.27-0.11,0.33-0.47s1.7,0.07,2.27,0c0,0,0,0,0.53-0.1c0.03-0.01,0.03-0.01,0.03-0.01c-0.03-0.21-0.35-0.48-0.7-0.6
				c-0.35-0.12-1.51,0.04-1.82,0.19S384.27,60.53,384.39,60.63z M250.46,123.98c-0.16-0.92-0.51-1.31-0.79-0.85
				c-0.28,0.46-0.38,1.52,0.38,1.36c0,0,0,0,0.3-0.37C250.46,123.98,250.46,123.98,250.46,123.98z M422.53,45.66
				c0.5,0,0.94-0.21,0.97-0.46c0,0,0,0,0.13-0.12c0.33-0.3,0.68-0.61,0.11-0.89c-0.16-0.08-0.16-0.08-0.16-0.08
				c-0.4,0.25-1.16,0.81-1.68,1.25c0,0,0,0-0.76-0.02c-0.14,0-0.14,0-0.14,0C420.68,45.51,422.03,45.66,422.53,45.66z M358.39,71.71
				c-0.45,0.83-0.2,1.28,0.54,0.99c0,0,0,0,0.21-1.18c0.01-0.05,0.13-0.08,0.16-0.14c0.06-0.13,0.06-0.13,0.06-0.13
				c0.04-0.15-0.19-0.28-0.5-0.3c0,0,0,0-0.05,0.08C358.39,71.71,358.39,71.71,358.39,71.71z M259.25,131.2
				c-0.22,0.02-0.17,0.2,0.12,0.4c0.29,0.19,1.26-0.31,1.61-0.44c0,0,0,0,0.34-0.05c0.29-0.05,0.59-0.07,0.87-0.15
				c0.07-0.02,0.1-0.23,0.07-0.34c-0.03-0.1-0.03-0.1-0.03-0.1c-0.12-0.09-0.66-0.28-1.21-0.42S259.47,131.17,259.25,131.2z
				 M263.42,127.84c-0.16,1.67-0.16,1.67,2.01,2.52C264.67,129.4,264.1,128.7,263.42,127.84z"/>
		</g>
		<g>
			<path class="st0" d="M326.06,83.85c0.61,0.59,1.04,1.12,0.95,1.19c-0.09,0.07-0.55,0.1-0.84-0.09s-0.93-0.96-0.52-1.09
				c0,0,0,0,0.2-0.12c0.16-0.09,0.34-0.26,0.34-0.39c0-0.13-0.21-0.28-0.37-0.36c-0.12-0.06-0.35,0.04-0.46-0.02
				c-0.21-0.11-0.57-0.32-0.54-0.41c0.25-0.74,0.25-0.74,0.25-0.74c0.24,0.43,0.68,0.65,0.97,0.5c0.29-0.15,0.97-0.69,1.16-0.48
				c0.19,0.21,0.71,0.74,0.77,0.72c0.05-0.02,0.13-0.38,0.06-0.75c0,0,0,0-0.1-0.34c-0.15-0.51-0.07-0.56,0.8-0.52
				c0.11,0.01,0.22-0.06,0.34-0.07c0.17-0.02,0.17-0.02,0.17-0.02c0.18,0,0.3,0.22,0.25,0.49c0,0,0,0-0.09,0.01
				c-0.87,0.13-1.1,0.36-0.43,0.97c0.27,0.24,0.24,0.53-0.32,0.68c-0.41,0.11-0.7,0.57-1.1,0.63
				C326.06,83.85,326.06,83.85,326.06,83.85z"/>
		</g>
		<g>
			<path class="st0" d="M304.06,93.32c0.12-0.35,0.5-0.58,0.86-0.51c0.35,0.07,1.35-0.21,1.66,0.21c0.31,0.42-0.65,1.53-0.43,1.75
				s-0.41,0.92-0.94,0.8c-0.54-0.12-1.32-1.2-1.05-1.29c0,0,0,0,0.2-0.04c0.34-0.06,0.34-0.06,0.34-0.06
				c0.28-0.17,0.35-0.46,0.16-0.65c0,0,0,0-0.23-0.06C304.06,93.32,304.06,93.32,304.06,93.32z"/>
		</g>
		<g>
			<path class="st0" d="M309.37,91.73c0.4,0.19,0.21,0.96-0.44,1.71c0,0,0,0-0.87-0.58c-0.73-0.49-0.73-0.49-0.73-0.49
				C307.56,91.59,308.97,91.54,309.37,91.73z"/>
		</g>
		<g>
			<path class="st0" d="M360.53,65.09c-0.15,0.19-0.41,0.12-0.58-0.15s1.09-0.73,1.41-0.86c0.32-0.13,1.44-0.43,1.6-0.25
				c0.16,0.17,0.15,0.54-0.31,0.51c-0.46-0.03-0.74,1-0.84,1.01C361.71,65.34,360.68,64.89,360.53,65.09z"/>
		</g>
		<g>
			<path class="st0" d="M302.48,90.64c-0.07-0.37,0.03-0.56,0.21-0.41c0.18,0.15,0.94,0.29,1.21,0.21c0.26-0.08,0.92,0.01,1.32,0.08
				c0.4,0.07,1.34,0.3,1.23,0.41s-0.65,0.21-0.95,0.25s-0.51,0.61-0.83,0.41c-0.32-0.2-1.17-0.42-1.64-0.6c0,0,0,0-0.32-0.2
				C302.48,90.64,302.48,90.64,302.48,90.64z"/>
		</g>
		<g>
			<path class="st0" d="M358.2,66.87c-0.25,0.23-0.33,0.52-0.18,0.64c0.15,0.13,0.25,0.5-0.12,0.55c-0.37,0.05-1.08-0.83-1.12-1.38
				c0,0,0,0,0.58-0.28c0.48-0.23,0.48-0.23,0.48-0.23C358.54,66.09,358.45,66.64,358.2,66.87z"/>
		</g>
		<g>
			<path class="st0" d="M309.06,88.36c-0.54,0.24-0.87,0.15-0.75-0.2c0.13-0.35,0.52-1.31,0.85-1.31S309.6,88.13,309.06,88.36z"/>
		</g>
		<g>
			<path class="st0" d="M344.49,69.73c0.52,0.6,0.45,1.12-0.14,1.16c-0.59,0.04-1.43,1.04-1.98,0.82c0,0,0,0-0.39-0.22
				c-0.06-0.03,0.15-0.53,0.21-0.52c0.67,0.04,1.18-0.09,1.62-0.54C344.49,69.73,344.49,69.73,344.49,69.73z"/>
		</g>
		<g>
			<path class="st0" d="M317,86.93c0.08,0.17,0.06,0.38-0.06,0.47c-0.12,0.08-0.24,0.54-0.25,0.81c-0.01,0.27-0.12,0.92-0.26,0.85
				s-0.96-0.64-1.53-1.09c0,0,0,0,0.4-0.45C315.61,87.16,316.4,87.1,317,86.93C317,86.93,317,86.93,317,86.93z"/>
		</g>
		<g>
			<path class="st0" d="M311.19,89.88c0.14,0.3,0.04,0.54-0.21,0.54s-1.16,0.08-0.89,0.18c0.28,0.1,0.78,0.42,0.4,0.46
				s-1.4-0.17-1.55-0.52c-0.15-0.35,1.11-0.78,1.12-1C310.09,89.32,311.05,89.58,311.19,89.88z"/>
		</g>
		<g>
			<path class="st0" d="M311.77,91.34c-0.19-0.55-0.05-0.89,0.32-0.77c0.36,0.12,0.92-0.77,1.09-0.86c0.17-0.09,0.6-0.03,0.56,0.09
				s0.24,0.56,0.32,0.69s-0.28,0.37-1.12-0.01c0,0,0,0-0.74,0.55C311.77,91.34,311.77,91.34,311.77,91.34z"/>
		</g>
		<g>
			<path class="st0" d="M256.72,136.13c0.54,0.1,0.81,0.44,0.6,0.75c0,0,0,0-0.18,0.01c-0.35,0.03-0.79-0.02-1.06-0.18
				c-1.03-0.65-1.03-0.65-1.03-0.65c-0.06,0.66-0.16,0.98-0.23,0.7C254.76,136.49,256.18,136.03,256.72,136.13z"/>
		</g>
		<g>
			<path class="st0" d="M352.66,70.32c-0.85-0.31-0.82-0.27,0.07,0.11c0,0,0,0,0.84-0.61c0.16-0.12,0.16-0.12,0.16-0.12
				c0.76,0.34,0.86,0.93,0.23,1.32c0,0,0,0-0.62-0.34C352.66,70.32,352.66,70.32,352.66,70.32z"/>
		</g>
		<g>
			<path class="st0" d="M331.85,79.68c0.21,0.06,0.5-0.05,0.65-0.25c0.15-0.19,0.8-0.65,0.91-0.33c0,0,0,0-0.06,0.15
				c-0.09,0.22-0.38,0.4-0.44,0.62c-0.1,0.34-0.1,0.34-0.1,0.34c-0.29,0.25-0.86,0.25-1.26,0c0,0,0,0-0.28-0.3
				c-0.08-0.09-0.08-0.09-0.08-0.09C330.97,79.58,331.64,79.62,331.85,79.68z"/>
		</g>
		<g>
			<path class="st0" d="M326.89,78.47c0.68,0.16,1.03,0.55,0.79,0.85c-0.24,0.31-1.34-0.21-1.5-0.25c0,0,0,0-0.09,0.52
				c-0.02,0.1-0.28,0.29-0.32,0.27c-0.33-0.13-0.33-0.13-0.33-0.13C325.09,79.53,326.21,78.3,326.89,78.47z"/>
		</g>
		<g>
			<path class="st0" d="M306.78,87.69c-0.07-0.46,0.15-0.66,0.48-0.46c0.33,0.21-0.11,1.17-0.63,1.59c0,0,0,0-0.51,0.35
				c-0.04,0.03-0.3-0.08-0.36-0.17c-0.07-0.1-0.1-0.3-0.03-0.36c0.29-0.23,0.77-0.37,0.9-0.64
				C306.78,87.69,306.78,87.69,306.78,87.69z"/>
		</g>
		<g>
			<path class="st0" d="M295.36,102.97c-0.16,0.39-0.39,0.63-0.51,0.55c0,0,0,0-0.22-0.26c-0.17-0.19-0.17-0.19-0.17-0.19
				c-0.1-0.24-0.07-0.38,0.07-0.31c0.14,0.07,0.75-0.1,1-0.22c0.25-0.12,0.95-0.37,0.97-0.24c0.02,0.13,0.34,0.42,0.49,0.55
				c0.15,0.13-0.16,0.58-0.48,0.69c0,0,0,0-0.39-0.19C295.36,102.97,295.36,102.97,295.36,102.97z"/>
		</g>
	</g>
</g>
</svg>
