<?xml version="1.0" encoding="utf-8"?>
<!-- Generator: Adobe Illustrator 27.8.1, SVG Export Plug-In . SVG Version: 6.00 Build 0)  -->
<svg version="1.1" id="Capa_1" xmlns="http://www.w3.org/2000/svg" xmlns:xlink="http://www.w3.org/1999/xlink" x="0px" y="0px"
	 viewBox="0 0 512 512" style="enable-background:new 0 0 512 512;" xml:space="preserve">
<path class="st0" d="M421.8,137.9c-0.99-3.44-3.5-5.91-6.9-6.79c-0.93-0.24-1.88-0.34-2.83-0.32c-2.83,0.03-5.63,1.19-7.74,3.3
	l-52.1,52.1c-1.92,1.93-4.6,3.04-7.31,3.04h-38.79c-2.86,0-5.44-1.16-7.32-3.03v-0.01c-1.88-1.88-3.04-4.45-3.04-7.31v-38.94
	c0-2.72,1.11-5.38,3.04-7.32l52.1-52.1c2.77-2.76,3.9-6.74,2.97-10.38c-0.88-3.42-3.35-5.94-6.78-6.94
	c-9.88-2.8-20.01-4.22-30.12-4.22c-60.13,0-109.04,48.92-109.04,109.04c0,12.57,2.14,24.96,6.36,36.85L91.33,327.84
	c-8.67,8.67-13.65,20.67-13.65,32.92c0,12.8,5.19,24.41,13.58,32.84l-0.07,0.07c8.44,8.43,20.07,13.65,32.91,13.65
	c0.03,0,0.05,0,0.08,0c0.03,0,0.05,0,0.07,0c12.24,0,24.24-4.97,32.91-13.65L280.1,270.73c11.66,4.21,24,6.33,36.73,6.33
	c0.03,0,0.06,0,0.09,0c0.02,0,0.04,0,0.06,0c60.13,0,109.04-48.92,109.04-109.05C426.02,157.92,424.6,147.78,421.8,137.9z
	 M143.6,341.4h0.01c2.86,2.86,4.63,6.8,4.63,11.15c0,8.7-7.08,15.78-15.78,15.78c-4.35,0-8.3-1.77-11.16-4.63
	c-0.03-0.03-0.05-0.05-0.07-0.08l0,0c-2.82-2.85-4.56-6.76-4.56-11.07c0-8.7,7.08-15.78,15.79-15.78
	C136.81,336.77,140.74,338.54,143.6,341.4z M92.04,328.55l123.42-123.42l-0.11-0.3c-4.25-11.87-6.41-24.25-6.41-36.81
	c0-59.57,48.47-108.04,108.04-108.04c10.01,0,20.06,1.41,29.85,4.19c3.07,0.89,5.29,3.15,6.08,6.21c0.85,3.31-0.19,6.92-2.7,9.44
	l-52.1,52.1c-2.12,2.12-3.34,5.04-3.34,8.02v38.94c0,3.09,1.25,5.9,3.26,7.94l-0.08,0.08L144.24,340.62l0,0
	c-3.03-3-7.18-4.85-11.78-4.85c-9.26,0-16.79,7.52-16.79,16.78c0,4.59,1.85,8.75,4.85,11.78l-28.55,28.55
	c-8.21-8.24-13.29-19.6-13.29-32.12C78.68,348.77,83.55,337.03,92.04,328.55z"/>
</svg>
